<svg xmlns="http://www.w3.org/2000/svg" viewBox="0 0 214.85 138.25"><defs><style>.cls-1{fill:#5e3634;}.cls-2{fill:#73433d;}.cls-3{fill:#472a26;}.cls-4{fill:#36211d;}.cls-5{fill:#752914;}.cls-6{fill:#b63f1f;}.cls-7,.cls-8{fill:#450904;}.cls-10,.cls-7{opacity:0.2;}.cls-9{fill:#f9c432;}.cls-10{fill:#fff;}.cls-11{fill:#d4b094;}.cls-12{fill:#518020;}.cls-13{fill:#9d2c04;}.cls-14{fill:#416619;}.cls-15{fill:#beff7a;}.cls-16{fill:#8cde36;}</style></defs><title>Asset 3</title><g id="Layer_2" data-name="Layer 2"><g id="OBJECTS"><ellipse class="cls-1" cx="107.42" cy="113.4" rx="85.75" ry="24.85"/><ellipse class="cls-2" cx="107.42" cy="99.82" rx="107.42" ry="31.13"/><ellipse class="cls-3" cx="107.71" cy="99.5" rx="103.93" ry="28.21"/><ellipse class="cls-4" cx="107.42" cy="99.82" rx="44.26" ry="12.83"/><path class="cls-5" d="M83.88,94.29,81.1,105.57s37.82,12.46,52.39-3.13L129.21,92Z"/><path class="cls-6" d="M34.28,40.61c0,32.66,31.38,59.14,70.08,59.14s70.08-26.48,70.08-59.14Z"/><path class="cls-7" d="M167.22,40.61C161.14,68,132.63,88.8,98.36,88.8c-25.64,0-48-11.62-60.27-29,9.46,23.22,35.55,39.91,66.27,39.91,38.71,0,70.08-26.48,70.08-59.14Z"/><path class="cls-8" d="M174.44,40.61a3.89,3.89,0,0,1-1.5,2.78C166.26,49.47,138.09,54,104.36,54S42.44,49.47,35.77,43.39a3.89,3.89,0,0,1-1.5-2.78c0-7.41,31.38-13.43,70.09-13.43S174.44,33.2,174.44,40.61Z"/><path class="cls-9" d="M172.94,43.39C166.26,49.47,138.09,54,104.36,54S42.44,49.47,35.77,43.39c6.67-6.09,34.85-10.66,68.59-10.66S166.26,37.3,172.94,43.39Z"/><path class="cls-10" d="M53.78,41.11c-1.72,1.06-2,2.35,1.23,3.82,4.15,1.87,9.35,1.39,13.77,2.06,5.53.84,11.13,1.11,16.71,1.4,17.68.92,35.52,1.84,53-1,3.55-.58,7.23-1.38,10.05-3.62a3,3,0,0,0,1.17-1.52c.46-1.84-2-2.93-3.87-3.21A276.55,276.55,0,0,0,97,36.22c-7.37.22-14.74-.22-22.1.23A62.63,62.63,0,0,0,63.8,38C61.92,38.45,56.32,39.54,53.78,41.11Z"/><path class="cls-11" d="M144.41,44.78a239.78,239.78,0,0,0,21.5-36.56,11.79,11.79,0,0,0,1.33-4A4.13,4.13,0,0,0,165.66.42c-1.2-.78-3.39-.45-3.95.86a268.83,268.83,0,0,1-22.44,41.37C140.34,44.17,142.55,44.66,144.41,44.78Z"/><path class="cls-12" d="M56.49,42.1a7.78,7.78,0,0,1,4.42-1.4,2,2,0,0,1,1.17.28A5,5,0,0,0,62,42.82a4.55,4.55,0,0,0-3.72,2.11A6.52,6.52,0,0,1,56.49,42.1Z"/><path class="cls-12" d="M89.91,46.81a5,5,0,0,1-1.23-1.93,2.4,2.4,0,0,1-1.34.85A3.76,3.76,0,0,0,89.43,48,1.76,1.76,0,0,1,89.91,46.81Z"/><path class="cls-12" d="M155.36,48.22a5,5,0,0,1-1.23-1.94,2.36,2.36,0,0,1-1.34.86,3.74,3.74,0,0,0,2.09,2.29A1.83,1.83,0,0,1,155.36,48.22Z"/><path class="cls-12" d="M90.08,37.76a5.12,5.12,0,0,1,.54-2.23,2.42,2.42,0,0,1-1.55-.36,3.68,3.68,0,0,0-.19,3.09A1.83,1.83,0,0,1,90.08,37.76Z"/><path class="cls-12" d="M50.24,45.25a4.91,4.91,0,0,1-2.23.52,2.32,2.32,0,0,1,.35,1.54,3.69,3.69,0,0,0,2.86-1.2A1.76,1.76,0,0,1,50.24,45.25Z"/><path class="cls-12" d="M136.17,36.71a5,5,0,0,0-2.16.76,2.4,2.4,0,0,0-.52-1.5,3.71,3.71,0,0,1,3.06-.5A1.77,1.77,0,0,0,136.17,36.71Z"/><path class="cls-12" d="M68.16,50.23a5,5,0,0,0-2.08-1,2.37,2.37,0,0,0,.68-1.44A3.71,3.71,0,0,1,69.3,49.6,1.79,1.79,0,0,0,68.16,50.23Z"/><path class="cls-12" d="M103.29,44l-.22,1.82a5.21,5.21,0,0,1,5.25-.35L108.25,44A5.76,5.76,0,0,0,103.29,44Z"/><path class="cls-12" d="M78.79,36.36,77,35s.31,3.82-2.89,5.67l1.57.84A7,7,0,0,0,78.79,36.36Z"/><path class="cls-12" d="M156.4,42.76l1.49.05a4.22,4.22,0,0,1-.65-4.22l-1.18.16A4.68,4.68,0,0,0,156.4,42.76Z"/><path class="cls-12" d="M125.68,39.73l-2.16-.56s1.78,3.4-.45,6.35l1.76.16A7,7,0,0,0,125.68,39.73Z"/><path class="cls-12" d="M140,44.83l.12,2.22s-3-2.41-6.31-.81l.19-1.76A7,7,0,0,1,140,44.83Z"/><path class="cls-6" d="M120.4,40.37c-.81,1-3.08,1.81-4.38,2a34.2,34.2,0,0,1-19.26-3.05,12.26,12.26,0,0,1,.52-1.55,13.4,13.4,0,0,1,6.49-7.07,12.12,12.12,0,0,1,11,.26,11.06,11.06,0,0,1,4.23,4.3A10.53,10.53,0,0,1,120.4,40.37Z"/><path class="cls-13" d="M102.79,33.69a1.1,1.1,0,0,0,0,2.2A1.1,1.1,0,0,0,102.79,33.69Z"/><path class="cls-13" d="M107.79,31.26a.78.78,0,0,0,0,1.56A.78.78,0,0,0,107.79,31.26Z"/><path class="cls-13" d="M114.54,35a1.57,1.57,0,1,0,1.58,1.57A1.6,1.6,0,0,0,114.54,35Z"/><path class="cls-6" d="M65.9,45a6.7,6.7,0,0,0,3.57,1.64,27.87,27.87,0,0,0,15.66-2.48,9.44,9.44,0,0,0-.42-1.27,10.92,10.92,0,0,0-5.28-5.75,9.88,9.88,0,0,0-9,.21A9.11,9.11,0,0,0,67,40.83,8.55,8.55,0,0,0,65.9,45Z"/><path class="cls-13" d="M80.23,39.55a.9.9,0,0,1,0,1.79A.9.9,0,0,1,80.23,39.55Z"/><path class="cls-13" d="M76.16,37.57a.64.64,0,0,1,0,1.27A.64.64,0,0,1,76.16,37.57Z"/><path class="cls-13" d="M70.67,40.59a1.28,1.28,0,1,1-1.28,1.28A1.3,1.3,0,0,1,70.67,40.59Z"/><path class="cls-7" d="M120.4,40.37c-.81,1-3.08,1.81-4.38,2a34.2,34.2,0,0,1-19.26-3.05,12.26,12.26,0,0,1,.52-1.55A34.32,34.32,0,0,0,119,35.27,10.53,10.53,0,0,1,120.4,40.37Z"/><path class="cls-14" d="M104.35,43.84c-2,1.85-3.69,3.4-6.63,3.17-2.29-.18-4-1.31-6-2a.32.32,0,0,0-.41.41c1,2.54,5.17,3.37,7.59,3.35s5.57-1.78,6.58-4.06C105.7,44.07,104.88,43.35,104.35,43.84Z"/><path class="cls-12" d="M111.87,43.42a13,13,0,0,0-1.79-.89,4.74,4.74,0,0,0,.85-3.84c-.26-1.08-1.66-2.11-2.69-1.12a18.37,18.37,0,0,0-2.08,2.3,5.51,5.51,0,0,0-1.44-1.9,2.09,2.09,0,0,0-2.92.36c-1.59,2.24,0,6.2,1.72,7.82s5.44,1.91,7.86.92C112.74,46.52,113.29,44.26,111.87,43.42Z"/><path class="cls-12" d="M145.36,79.26s-15.47,16.19,2.53,30.09c14.3,11,23.51-3.42,23.51-3.42Z"/><path class="cls-15" d="M159.68,81.23c-3.48-2.14-8.78-5-13-2.94C143.23,80,143,84.62,143.48,88a26.17,26.17,0,0,0,7.17,14.76,18.58,18.58,0,0,0,15.2,5.36c3-.42,6-1.87,7.44-4.52C177.4,95.87,168,86.36,159.68,81.23Z"/><path class="cls-16" d="M168.18,94.24a3.79,3.79,0,0,1,2.75,1.07,3.63,3.63,0,0,1,.4,2.66,8.65,8.65,0,0,1-1.45,4.36,3.52,3.52,0,0,1-4.1,1.29,4.66,4.66,0,0,1-1.35-1.08c-1.3-1.38-5-5.57-4-7.66S166.48,94.07,168.18,94.24Z"/><path class="cls-16" d="M163.8,88.73a2.8,2.8,0,0,0,1-2.1,2.5,2.5,0,0,0-1.08-1.49,12.21,12.21,0,0,0-5.79-2.45,1.88,1.88,0,0,0-1,.07,1.8,1.8,0,0,0-.82,1.48,14,14,0,0,0,1.19,7.17C159.17,96.11,162.07,90.68,163.8,88.73Z"/><path class="cls-16" d="M149.4,82c-3.32-1.45-4.78,4.53-3.68,6.94.64,1.4,2.11,2.18,3.45,2.94A10.59,10.59,0,0,0,151.46,93a2.93,2.93,0,0,0,2.44-.31c2.1-1.5-.4-5.36-1.32-6.84a12.26,12.26,0,0,0-2.42-3.35A4.43,4.43,0,0,0,149.4,82Z"/><path class="cls-16" d="M157,105.77a2.64,2.64,0,0,0,2.53-.76,3.1,3.1,0,0,0,.31-2.21c-.23-2.06-.43-6.83-1.95-8.4-1.28-1.32-4.17,0-5.46.76-2.66,1.6-4,3.31-2,6.18A10.26,10.26,0,0,0,157,105.77Z"/><path class="cls-15" d="M169,96.69a.61.61,0,0,0-1.19.24A.61.61,0,0,0,169,96.69Z"/><path class="cls-15" d="M167.88,101a.43.43,0,0,0-.84.18A.43.43,0,0,0,167.88,101Z"/><path class="cls-15" d="M162.65,96.14a.47.47,0,0,0-.92.19A.47.47,0,0,0,162.65,96.14Z"/><path class="cls-15" d="M155.13,100.12a.49.49,0,0,0-.19.95C155.64,101.31,155.83,100.11,155.13,100.12Z"/><path class="cls-15" d="M157.76,103.63a.49.49,0,0,0-1,.2A.49.49,0,0,0,157.76,103.63Z"/><path class="cls-15" d="M159.61,86.59l0,0a.4.4,0,0,0,.09-.47l0-.07a.49.49,0,1,0-.11.58Z"/><path class="cls-15" d="M159,90.27a.39.39,0,0,0-.76.16A.39.39,0,0,0,159,90.27Z"/><path class="cls-15" d="M148.49,87.85a1,1,0,0,0-1.89.4A1,1,0,0,0,148.49,87.85Z"/><path class="cls-15" d="M151.42,87.41a.42.42,0,0,0-.83.18A.42.42,0,0,0,151.42,87.41Z"/></g></g></svg>