<svg xmlns="http://www.w3.org/2000/svg" viewBox="0 0 214.85 104.11"><defs><style>.cls-1{fill:#5e3634;}.cls-2{fill:#73433d;}.cls-3{fill:#472a26;}.cls-4{fill:#36211d;}.cls-5{fill:#518020;}.cls-6{fill:#456e1b;}.cls-7{fill:#fed3b1;}.cls-8{fill:#ca4c00;}.cls-9{fill:#592d16;opacity:0.2;}.cls-10{fill:#d45417;}.cls-11{fill:#fff;opacity:0.1;}.cls-12{fill:#d21200;}.cls-13{fill:#e64638;}.cls-14{fill:#b80910;}.cls-15{fill:#ff9d00;}</style></defs><title>Asset 5</title><g id="Layer_2" data-name="Layer 2"><g id="OBJECTS"><ellipse class="cls-1" cx="107.42" cy="79.25" rx="85.75" ry="24.85"/><ellipse class="cls-2" cx="107.42" cy="65.67" rx="107.42" ry="31.13"/><ellipse class="cls-3" cx="107.71" cy="65.36" rx="103.93" ry="28.21"/><ellipse class="cls-4" cx="107.42" cy="65.67" rx="44.26" ry="12.83"/><path class="cls-5" d="M191.8,54.08c-1.29,2.17-3.64,3.8-6.15,3.49,3.62,2.3,4.3,7.87,1.79,11.35s-7.15,4.59-11.25,3.31c1.51.67,1.83,2.91.86,4.25a4.77,4.77,0,0,1-4.44,1.62A13.9,13.9,0,0,1,168,76.47c.31,3.56-2.19,6.93-5.39,8.49s-7,1.63-10.48,1.14A11.1,11.1,0,0,1,145,81.24c-.41,5.66-6.73,9.44-12.38,9s-9.3-4.08-13.6-7.79c-.75,2.93-4.37,4.36-7.31,3.68a16.09,16.09,0,0,1-7.93-4.78c-.87,3.17-4.53,5-7.8,4.64A20.43,20.43,0,0,1,85.88,81.7a15.18,15.18,0,0,1-12.12,7.43c-4.94.26-10.44-2.68-13.35-6.68a5.5,5.5,0,0,1-6,3.56c-2.51-.48-5.23-4.81-5.08-7.36-3.52,2.34-7.84,3.81-12,3s-8.79-4.89-8.8-9.11a5.73,5.73,0,0,1-7.71-3.07c-1-3,.73-7.65,3.81-8.24-3.57-.8-5.46-5.28-4.25-8.73s4.72-5.7,8.33-6.31,7.3.16,10.81,1.17q3.23.93,6.56,1.81C79.41,57.91,119.5,62,147.82,43.72c5.32-3.43,12-3.81,18.33-3.75q7.24.06,14.46.69c1.81.16,3.62.34,5.42.55s3.82.53,5.15,1.83a6.89,6.89,0,0,1,1.68,3.69A10.67,10.67,0,0,1,191.8,54.08Z"/><path class="cls-6" d="M186.58,49.63c-.11,1.53-2.05,2.18-3.57,2s-3.37-1.64-4.85-1.29a7.18,7.18,0,0,1,3.62,9.92c-.88,1.51-2.32,3.09-3.79,2.15,1.08,1.91,1.18,4.57-.4,6.09S173.31,70.4,171,70c-.17,1.78-2.16,3-3.95,2.8a9.55,9.55,0,0,1-5.42-2.59,6.89,6.89,0,0,1,.95,4.08,7.2,7.2,0,0,1-1.15,4.62c-1.41,1.73-4.1,1.92-6.15,1a17.05,17.05,0,0,1-5.48-4.34,3.41,3.41,0,0,1-2.89,4.18,4.61,4.61,0,0,1-3-1,10.48,10.48,0,0,1-3.12-4.41,13.06,13.06,0,0,1-2.95,7.34A7.21,7.21,0,0,1,130.58,84c-3.11-1-5.08-4.59-6.38-7.59a3.28,3.28,0,0,1-2.61,3.51,6.19,6.19,0,0,1-4.6-1,12.42,12.42,0,0,1-4.48-4.57c.37,3.09-2.52,5.85-5.59,6.32s-6-.7-8.68-2.26a3.18,3.18,0,0,1-2.88,2.46A3.74,3.74,0,0,1,92,78.35c.31,1.36-1,2.65-2.4,2.82A6.52,6.52,0,0,1,85.69,80c-2.59-1.52-4.78-4.47-6.82-6.67a19.69,19.69,0,0,1-2.77,5.25,8,8,0,0,1-4.92,3.08,8.75,8.75,0,0,1-3.22-.2c-3.62-.81-7.32-3.23-8.31-6.81a3.18,3.18,0,0,1-3.53,2.74,4.54,4.54,0,0,1-3.55-3.16,7.23,7.23,0,0,1-.16-4.64c-.79.83-1.61,1.64-2.46,2.41a14.38,14.38,0,0,1-4.31,3,6,6,0,0,1-5.07-.15c-1.92-1.1-3.79-4.25-2.91-6.28-.62,1.18-2.65.66-3.11-.58a4.52,4.52,0,0,1,.58-4c-1.12-1.09-3.37-.6-4.13-2a2.35,2.35,0,0,1-.25-1.23c0-2.9,2.12-5.47,4.66-6.88s5.48-1.87,8.35-2.32c.74-.83,1.5-1.65,2.29-2.44C79.41,57.91,119.5,62,147.82,43.72c5.32-3.43,12-3.81,18.33-3.75q7.24.06,14.46.69a60.7,60.7,0,0,1,5.14,6.86A3.44,3.44,0,0,1,186.58,49.63Z"/><path class="cls-7" d="M206.29,26.45c-.39-2.85-2.61-4.42-5.34-4.72-.25,0-.5,0-.75,0L200,21a8.13,8.13,0,0,0-2.2-3.65,4.17,4.17,0,0,0-6.48.84,10,10,0,0,0-.68,7.49c-1.83,1.31-3.65,2.63-5.42,4-2.31,1.79-4.76,3.41-5.83,6.21-.66,1.74,1,3.62,2.75,3.6,2.77,0,5.28-1.82,7.68-3.07s5-2.53,7.5-3.72a8.46,8.46,0,0,0,5.08-.24C204.94,31.42,206.67,29.32,206.29,26.45Z"/><path class="cls-8" d="M167.8,67c-2.34,1.84-5.28,2.69-8.16,3.42-9.95,2.52-20.15,5.46-30.42,5.5-16,.05-33,1.27-48.82-.1-13.58-1.19-30.14-3-41-12.09C35.1,60.14,33,55.43,35,49.17a26.32,26.32,0,0,1,.9-2.49C39.38,38.22,46.69,31.72,54,26,74.2,10.31,98.9-3.09,124.24.62c20.51,3,38.53,18.25,45.73,37.58A53.2,53.2,0,0,1,172.61,48C173.74,54.77,173.19,62.74,167.8,67Z"/><path class="cls-9" d="M168.07,67c-2.34,1.84-5.28,2.69-8.16,3.42-9.95,2.52-20.15,5.46-30.42,5.5-16,.05-33,1.27-48.82-.1-13.58-1.19-30.14-3-41-12.09-4.28-3.55-6.34-8.26-4.41-14.52a26.32,26.32,0,0,1,.9-2.49c1.17,1.17,2.22,2.29,3,2.93C47.13,56.07,57,59.27,67,61A141.79,141.79,0,0,0,170.24,38.2,53.2,53.2,0,0,1,172.88,48C174,54.77,173.46,62.74,168.07,67Z"/><path class="cls-10" d="M95.23,67.21c-1.28,3.69-4.52,6.42-8.1,8s-7.51,2-11.38,2.47c1.53,2.38,6,2.11,6.57,4.89a3.15,3.15,0,0,1-1.89,3.2,8.69,8.69,0,0,1-3.89.62,57.68,57.68,0,0,1-14-1.47c-1.11-.28-2.2-.6-3.28-1-4.28-1.49-8.64-4.35-9.55-8.78-.63-3.06.58-6.27,2.51-8.74a32.6,32.6,0,0,1,7.06-6.12c3.33-2.36,11.66-5.41,19.58-6.47C89.61,52.36,99.6,54.6,95.23,67.21Z"/><path class="cls-10" d="M187,44.18a83.59,83.59,0,0,0-11.59,15.36C172.35,65,169.44,70.48,164,74c-4.26,2.75-9.33,3.91-14.32,4.79-13.65,2.41-41.29-.39-37.21-20.78.09-.49.21-1,.34-1.49,2.83-10.71,12.42-15.17,22.8-17.53,9.06-2.07,20.67-.77,29-4.32,6-2.57,16.06-10.5,22.64-6a7.89,7.89,0,0,1,2.58,2.82C191.94,35.46,190.16,40.75,187,44.18Z"/><path class="cls-11" d="M120.72,8.06c-5.68-3.68-14-2.84-20.4-1.82A65.78,65.78,0,0,0,81,12.88,157.46,157.46,0,0,0,63.9,23.31c-5.44,3.72-13.22,7.74-15,14.52a4.37,4.37,0,0,0,4.16,5.46c6.06.47,11.21-4.1,16.17-7s10.07-6,15.28-8.65a69.8,69.8,0,0,1,15.44-6,35.88,35.88,0,0,1,8.51-1c2.94,0,5.8.85,8.71.5C123.88,20.26,126.94,12.09,120.72,8.06Z"/><path class="cls-11" d="M151.14,18a24.43,24.43,0,0,0-6.94-4.06c-3-1.31-6-2.43-9.31-1.54s-5.4,5.22-3.35,8.25c1.52,2.26,3.57,3.53,5.92,4.82,1.82,1,3.5,2.43,5.39,3.28,3.15,1.43,6.6,1.12,8.83-1.76C153.66,24.41,153.68,20.29,151.14,18Z"/><path class="cls-9" d="M187,44.18a83.59,83.59,0,0,0-11.59,15.36C172.35,65,169.44,70.48,164,74c-4.26,2.75-9.33,3.91-14.32,4.79-13.65,2.41-41.29-.39-37.21-20.78.7.23,1.58.62,2.69,1.11a62,62,0,0,0,20.07,5.27c8.92.69,18.15-1.07,25.73-5.83,6.76-4.25,11.89-10.62,16.64-17a33.79,33.79,0,0,1,4.74-5.58,32.21,32.21,0,0,1,7.44-4.42C191.94,35.46,190.16,40.75,187,44.18Z"/><path class="cls-11" d="M58,68.94c-1.88,3.46-2.32,7.93-.24,11.28a19.94,19.94,0,0,0,4.77,4.66c-1.11-.28-2.2-.6-3.28-1-4.28-1.49-8.64-4.35-9.55-8.78-.63-3.06.58-6.27,2.51-8.74a32.6,32.6,0,0,1,7.06-6.12c3.33-2.36,11.66-5.41,19.58-6.47-4.24,2.23-8.6,4-12.61,6.82C63,62.85,59.89,65.47,58,68.94Z"/><path class="cls-12" d="M177.6,77.64c-25.38,7.8-29.26-21.16-29.26-21.16l2.66-.09a94.19,94.19,0,0,0,33.28-7.8c1-.44,2-.9,3-1.38C187.29,47.21,199.83,70.8,177.6,77.64Z"/><path class="cls-13" d="M187.35,66.35a13.61,13.61,0,0,1-5.9,7.33,20,20,0,0,1-9.12,2.76A19.71,19.71,0,0,1,163,75a19.91,19.91,0,0,1-8.72-8.11c-1.93-3.18-2.52-6.86-3.24-10.51,1.25-.06,2.5-.15,3.76-.26a94.06,94.06,0,0,0,27.58-6.71c.65-.27,1.3-.54,1.94-.83A34.94,34.94,0,0,1,187,55.87C187.85,59.3,188.4,63,187.35,66.35Z"/><path class="cls-14" d="M174,59.89c2.8-1.7,4.83-4.42,7.42-6.42.57-.44,1.35-.85,2-.46a1.63,1.63,0,0,1,.56.77c1.68,3.92-.32,8.73-3.75,11.27s-7.94,3.19-12.21,3a15.71,15.71,0,0,1-3.86-.55,15.34,15.34,0,0,1-5.3-3.13,5.3,5.3,0,0,1-2-2.6c-1-4.12,5.19-.55,6.8-.26A14.83,14.83,0,0,0,174,59.89Z"/><path class="cls-15" d="M163.6,63.16a1.27,1.27,0,0,0-.29-.8,1,1,0,0,0-.93-.31,1.51,1.51,0,0,0-1,.77,5.55,5.55,0,0,0-.46.91,1.25,1.25,0,0,0,.77,1.57,1.27,1.27,0,0,0,1.58-.77,5,5,0,0,0,.22-.78A2.88,2.88,0,0,0,163.6,63.16Z"/><path class="cls-15" d="M167,63.53a1,1,0,0,0-.87-.75,1,1,0,0,0-.95.64,2.46,2.46,0,0,0-.18.94,1,1,0,0,0,1,1.1,1.07,1.07,0,0,0,1.1-1A2.34,2.34,0,0,0,167,63.53Z"/><path class="cls-15" d="M171.13,63.56a.8.8,0,0,0-1.53-.09,3.22,3.22,0,0,0-.07,1.6.77.77,0,0,0,1.47.09A3.33,3.33,0,0,0,171.13,63.56Z"/><path class="cls-15" d="M174.76,62.22a.78.78,0,0,0-1,.88,3.31,3.31,0,0,0,.28.74l0,.06,0,.08a2.81,2.81,0,0,0,.16.49.92.92,0,0,0,1.73-.36A2,2,0,0,0,174.76,62.22Z"/><path class="cls-15" d="M179.69,61.36c-.2-.17-.46-.27-.67-.43a4.09,4.09,0,0,0-.64-.47.79.79,0,0,0-.86,0,.76.76,0,0,0-.32.8,2.14,2.14,0,0,0,.77,1.06,2.67,2.67,0,0,0,1,.56.86.86,0,0,0,.76-1.53Z"/><path class="cls-15" d="M182,58.08a2.74,2.74,0,0,0-1.62-.4.77.77,0,0,0-.53,1.09,3.11,3.11,0,0,0,1.54,1.07.93.93,0,0,0,1.19-.58A1,1,0,0,0,182,58.08Z"/></g></g></svg>