<svg xmlns="http://www.w3.org/2000/svg" xmlns:xlink="http://www.w3.org/1999/xlink" viewBox="0 0 140.18 154.52"><defs><style>.cls-1{fill:none;}.cls-2{isolation:isolate;}.cls-3{opacity:0.65;}.cls-4,.cls-58{fill:#fff;}.cls-4{opacity:0;}.cls-5{fill:#f9f9f9;opacity:0.01;}.cls-10,.cls-11,.cls-12,.cls-13,.cls-14,.cls-15,.cls-16,.cls-17,.cls-18,.cls-19,.cls-20,.cls-21,.cls-22,.cls-23,.cls-24,.cls-25,.cls-26,.cls-27,.cls-28,.cls-29,.cls-30,.cls-31,.cls-32,.cls-33,.cls-34,.cls-35,.cls-36,.cls-37,.cls-38,.cls-39,.cls-40,.cls-41,.cls-42,.cls-43,.cls-44,.cls-45,.cls-46,.cls-47,.cls-5,.cls-52,.cls-56,.cls-6,.cls-7,.cls-8,.cls-9{mix-blend-mode:multiply;}.cls-6{fill:#f3f3f3;opacity:0.02;}.cls-7{fill:#ededed;opacity:0.03;}.cls-8{fill:#e7e7e7;opacity:0.04;}.cls-9{fill:#e1e1e1;opacity:0.05;}.cls-10{fill:#dbdbdb;opacity:0.06;}.cls-11{fill:#d5d5d5;opacity:0.07;}.cls-12{fill:#d0d0d0;opacity:0.08;}.cls-13{fill:#cacaca;opacity:0.09;}.cls-14{fill:#c4c4c4;opacity:0.1;}.cls-15{fill:#bebebe;opacity:0.11;}.cls-16{fill:#b8b8b8;opacity:0.12;}.cls-17{fill:#b2b2b2;opacity:0.13;}.cls-18{fill:#acacac;opacity:0.14;}.cls-19{fill:#a6a6a6;opacity:0.15;}.cls-20{fill:#a0a0a0;opacity:0.16;}.cls-21{fill:#9a9a9a;opacity:0.17;}.cls-22{fill:#949494;opacity:0.18;}.cls-23{fill:#8e8e8e;opacity:0.19;}.cls-24{fill:#888;opacity:0.2;}.cls-25{fill:#828282;opacity:0.21;}.cls-26{fill:#7d7d7d;opacity:0.21;}.cls-27{fill:#777;opacity:0.22;}.cls-28{fill:#717171;opacity:0.23;}.cls-29{fill:#6b6b6b;opacity:0.24;}.cls-30{fill:#656565;opacity:0.25;}.cls-31{fill:#5f5f5f;opacity:0.26;}.cls-32{fill:#595959;opacity:0.27;}.cls-33{fill:#535353;opacity:0.28;}.cls-34{fill:#4d4d4d;opacity:0.29;}.cls-35{fill:#474747;opacity:0.3;}.cls-36{fill:#414141;opacity:0.31;}.cls-37{fill:#3b3b3b;opacity:0.32;}.cls-38{fill:#353535;opacity:0.33;}.cls-39{fill:#2f2f2f;opacity:0.34;}.cls-40{fill:#2a2a2a;opacity:0.35;}.cls-41{fill:#242424;opacity:0.36;}.cls-42{fill:#1e1e1e;opacity:0.37;}.cls-43{fill:#181818;opacity:0.38;}.cls-44{fill:#121212;opacity:0.39;}.cls-45{fill:#0c0c0c;opacity:0.4;}.cls-46{fill:#060606;opacity:0.41;}.cls-47{opacity:0.42;}.cls-48{fill:#984400;}.cls-49{fill:#b75b00;}.cls-50{fill:#efbe67;}.cls-51{fill:#873d00;}.cls-52{fill:#d6d6d6;}.cls-52,.cls-56{opacity:0.5;}.cls-53{clip-path:url(#clip-path);}.cls-54{fill:#231c1e;}.cls-55{clip-path:url(#clip-path-2);}.cls-56{fill:#ac7900;}.cls-57{fill:#e1b973;}.cls-58{opacity:0.3;}</style><clipPath id="clip-path"><path class="cls-1" d="M104.14,60.11c-7.09-7-21.46-11.86-38-11.86s-30.95,4.82-38,11.86c7.08,7,21.45,11.86,38,11.86S97.05,67.15,104.14,60.11Z"/></clipPath><clipPath id="clip-path-2"><path class="cls-1" d="M108.82,50.18c0,12-19.13,21.79-42.71,21.79S23.39,62.21,23.39,50.18,42.51,28.39,66.11,28.39,108.82,38.14,108.82,50.18Z"/></clipPath></defs><title>Asset 11</title><g class="cls-2"><g id="Layer_2" data-name="Layer 2"><g id="Layer_2-2" data-name="Layer 2"><g class="cls-3"><path class="cls-4" d="M140.17,120.73c-.82,18.16-33,35.42-71.73,33.66S-.8,132.6,0,114.44,34.63,69.23,73.33,71,141,102.59,140.17,120.73Z"/><path class="cls-5" d="M139.43,120.47c-.81,18-32.74,35-71.12,33.27S-.36,132.21.45,114.23,34.74,69.66,73.12,71.4,140.24,102.5,139.43,120.47Z"/><path class="cls-6" d="M138.69,120.21c-.79,17.79-32.46,34.6-70.52,32.88S.08,131.82.88,114s34-43.94,72-42.21S139.5,102.42,138.69,120.21Z"/><path class="cls-7" d="M138,120c-.79,17.61-32.19,34.19-69.92,32.48s-67.52-21-66.73-38.62S35,70.5,72.7,72.21,138.75,102.34,138,120Z"/><path class="cls-8" d="M137.22,119.68c-.78,17.44-31.9,33.79-69.31,32.1S1,131,1.74,113.6s33.34-42.67,70.76-41S138,102.25,137.22,119.68Z"/><path class="cls-9" d="M136.49,119.42c-.78,17.26-31.63,33.38-68.72,31.71S1.4,130.65,2.17,113.39s33-42,70.12-40.36S137.26,102.17,136.49,119.42Z"/><path class="cls-10" d="M135.75,119.16c-.76,17.07-31.34,33-68.11,31.31s-65.8-20.21-65-37.29,32.7-41.4,69.47-39.74S136.52,102.09,135.75,119.16Z"/><path class="cls-11" d="M135,118.9c-.76,16.89-31.07,32.56-67.51,30.92S2.28,129.87,3,113,35.43,72.2,71.87,73.85,135.78,102,135,118.9Z"/><path class="cls-12" d="M134.28,118.63c-.75,16.72-30.78,32.17-66.91,30.54S2.72,129.48,3.47,112.76s32.07-40.14,68.2-38.5S135,101.92,134.28,118.63Z"/><path class="cls-13" d="M133.54,118.37c-.74,16.54-30.5,31.76-66.3,30.15s-64.08-19.43-63.34-36,31.76-39.5,67.56-37.88S134.29,101.84,133.54,118.37Z"/><path class="cls-14" d="M132.81,118.11c-.73,16.35-30.22,31.35-65.7,29.75S3.6,128.7,4.33,112.34,35.77,73.47,71.25,75.08,133.54,101.75,132.81,118.11Z"/><path class="cls-15" d="M132.07,117.85c-.72,16.17-29.94,30.94-65.1,29.36S4,128.31,4.76,112.13,35.89,73.9,71,75.49,132.8,101.67,132.07,117.85Z"/><path class="cls-16" d="M131.34,117.58c-.72,16-29.67,30.54-64.5,29S4.48,127.92,5.2,111.92s30.8-37.6,65.64-36S132.06,101.59,131.34,117.58Z"/><path class="cls-17" d="M130.6,117.32c-.71,15.82-29.38,30.13-63.89,28.58S4.92,127.53,5.63,111.71s30.49-37,65-35.4S131.31,101.5,130.6,117.32Z"/><path class="cls-18" d="M129.87,117.06c-.71,15.63-29.11,29.72-63.3,28.19S5.36,127.14,6.06,111.5,36.23,75.17,70.42,76.72,130.57,101.42,129.87,117.06Z"/><path class="cls-19" d="M129.13,116.8c-.69,15.45-28.82,29.31-62.69,27.8S5.8,126.75,6.49,111.29s29.86-35.7,63.72-34.16S129.82,101.34,129.13,116.8Z"/><path class="cls-20" d="M128.39,116.53c-.68,15.28-28.54,28.91-62.08,27.41S6.24,126.36,6.92,111.08,36.46,76,70,77.54,129.08,101.25,128.39,116.53Z"/><path class="cls-21" d="M127.66,116.27c-.68,15.1-28.27,28.5-61.49,27S6.68,126,7.35,110.87,36.58,76.44,69.8,77.94,128.34,101.17,127.66,116.27Z"/><path class="cls-22" d="M126.92,116c-.67,14.91-28,28.1-60.88,26.63s-58.92-17.06-58.25-32,28.9-33.79,61.8-32.31S127.59,101.09,126.92,116Z"/><path class="cls-23" d="M126.19,115.75c-.66,14.73-27.71,27.69-60.28,26.23S7.56,125.19,8.22,110.45,36.8,77.29,69.38,78.76,126.85,101,126.19,115.75Z"/><path class="cls-24" d="M125.45,115.48C124.8,130,98,142.77,65.77,141.33S8,124.8,8.65,110.24,36.92,77.71,69.17,79.17,126.1,100.92,125.45,115.48Z"/><path class="cls-25" d="M124.72,115.22c-.65,14.38-27.15,26.88-59.08,25.46S8.44,124.41,9.08,110,37,78.14,69,79.58,125.36,100.84,124.72,115.22Z"/><path class="cls-26" d="M124,115c-.64,14.19-26.86,26.47-58.47,25.06s-56.63-16-56-30.2S37.15,78.56,68.76,80,124.62,100.76,124,115Z"/><path class="cls-27" d="M123.24,114.69c-.62,14-26.58,26.07-57.87,24.68S9.32,123.63,10,109.61,37.26,79,68.55,80.4,123.87,100.67,123.24,114.69Z"/><path class="cls-28" d="M122.51,114.43c-.62,13.84-26.3,25.66-57.27,24.29S9.76,123.24,10.38,109.4s27-30,58-28.59S123.13,100.59,122.51,114.43Z"/><path class="cls-29" d="M121.77,114.17c-.61,13.66-26,25.25-56.66,23.89s-54.91-15.21-54.3-28.87,26.68-29.35,57.33-28S122.39,100.51,121.77,114.17Z"/><path class="cls-30" d="M121,113.91c-.61,13.47-25.75,24.84-56.07,23.5s-54.33-15-53.73-28.43S37.61,80.26,67.93,81.63,121.64,100.42,121,113.91Z"/><path class="cls-31" d="M120.3,113.65c-.59,13.29-25.46,24.44-55.46,23.11s-53.76-14.69-53.17-28S37.72,80.68,67.72,82,120.9,100.34,120.3,113.65Z"/><path class="cls-32" d="M119.56,113.38c-.58,13.12-25.18,24-54.85,22.72s-53.2-14.42-52.61-27.55,25.74-27.44,55.41-26.1S120.15,100.26,119.56,113.38Z"/><path class="cls-33" d="M118.83,113.12c-.58,12.94-24.9,23.63-54.26,22.33s-52.62-14.16-52-27.11S38,81.53,67.3,82.86,119.41,100.17,118.83,113.12Z"/><path class="cls-34" d="M118.09,112.86c-.57,12.75-24.62,23.22-53.65,21.94s-52-13.9-51.47-26.67S38.07,82,67.1,83.26,118.67,100.09,118.09,112.86Z"/><path class="cls-35" d="M117.36,112.59c-.57,12.58-24.34,22.82-53,21.55S12.83,120.51,13.4,107.92,38.18,82.38,66.89,83.67,117.92,100,117.36,112.59Z"/><path class="cls-36" d="M116.62,112.33c-.55,12.4-24.06,22.41-52.44,21.16s-50.91-13.37-50.35-25.78S38.3,82.81,66.68,84.08,117.18,99.92,116.62,112.33Z"/><path class="cls-37" d="M115.89,112.07c-.55,12.22-23.79,22-51.85,20.77S13.71,119.73,14.26,107.5s24.15-24.27,52.21-23S116.43,99.84,115.89,112.07Z"/><path class="cls-38" d="M115.15,111.81c-.54,12-23.5,21.59-51.24,20.37s-49.76-12.84-49.22-24.89S38.53,83.65,66.27,84.9,115.69,99.76,115.15,111.81Z"/><path class="cls-39" d="M114.41,111.54c-.53,11.86-23.22,21.19-50.63,20S14.59,119,15.13,107.08s23.51-23,50.93-21.77S115,99.67,114.41,111.54Z"/><path class="cls-40" d="M113.68,111.28c-.52,11.68-22.94,20.78-50,19.6s-48.61-12.32-48.08-24S38.76,84.5,65.85,85.72,114.2,99.59,113.68,111.28Z"/><path class="cls-41" d="M112.94,111c-.51,11.5-22.66,20.37-49.43,19.2s-48-12-47.52-23.56S38.87,84.93,65.64,86.13,113.46,99.51,112.94,111Z"/><path class="cls-42" d="M112.21,110.76c-.51,11.31-22.38,20-48.83,18.81s-47.47-11.79-47-23.12,22.56-21.1,49-19.91S112.71,99.42,112.21,110.76Z"/><path class="cls-43" d="M111.47,110.49c-.5,11.14-22.1,19.57-48.23,18.43s-46.89-11.54-46.39-22.68S39.1,85.78,65.23,87,112,99.34,111.47,110.49Z"/><path class="cls-44" d="M110.73,110.23c-.49,11-21.82,19.16-47.62,18S16.79,117,17.28,106,39.21,86.2,65,87.36,111.23,99.26,110.73,110.23Z"/><path class="cls-45" d="M110,110c-.48,10.78-21.54,18.75-47,17.64s-45.75-11-45.26-21.79,21.61-19.2,47.09-18S110.48,99.17,110,110Z"/><path class="cls-46" d="M109.26,109.71C108.79,120.3,88,128.05,62.84,127s-45.17-10.75-44.69-21.35S39.44,87.05,64.61,88.18,109.74,99.09,109.26,109.71Z"/><path class="cls-47" d="M108.53,109.44c-.47,10.42-21,17.94-45.82,16.86s-44.6-10.48-44.13-20.9,21-17.93,45.82-16.81S109,99,108.53,109.44Z"/></g><path class="cls-48" d="M108.82,50.18c0,12-19.13,21.79-42.71,21.79S23.39,62.21,23.39,50.18,42.51,28.39,66.11,28.39,108.82,38.14,108.82,50.18Z"/><path class="cls-49" d="M16.64,59.59v40.78c0,14.67,22.15,26.56,49.47,26.56s49.46-11.89,49.46-26.56V59.59Z"/><path class="cls-50" d="M115.57,59.59c0,14.67-22.15,27-49.46,27s-49.47-12.31-49.47-27S38.79,33,66.11,33,115.57,44.92,115.57,59.59Z"/><path class="cls-49" d="M109.84,54c0,14.61-19.58,26.46-43.73,26.46S22.37,68.61,22.37,54,42,27.54,66.11,27.54,109.84,39.39,109.84,54Z"/><path class="cls-51" d="M115.57,79.39C115.39,90,106.94,96,99.9,99.6c-10.27,5.24-22.35,7.05-33.84,7.1s-23.51-2-33.84-7.1c-6.79-3.37-14.94-10.41-15.54-18.24v1.47a16.48,16.48,0,0,0,3.12,8.31c4.93,6.86,13.61,10.76,21.61,13.2a88.64,88.64,0,0,0,35.06,2.84c10-1.08,20.31-3.84,28.7-9.41,5.53-3.67,9.48-9.32,10.4-14.21C115.44,84.22,115.57,79.39,115.57,79.39Z"/><path class="cls-50" d="M109.84,50.6c0,12.73-19.58,23.06-43.73,23.06S22.37,63.33,22.37,50.6,42,27.54,66.11,27.54,109.84,37.86,109.84,50.6Z"/><path class="cls-49" d="M108.82,50.18c0,12-19.13,21.79-42.71,21.79S23.39,62.21,23.39,50.18,42.51,28.39,66.11,28.39,108.82,38.14,108.82,50.18Z"/><path class="cls-48" d="M104.14,60.11c-7.09-7-21.46-11.86-38-11.86s-30.95,4.82-38,11.86c7.08,7,21.45,11.86,38,11.86S97.05,67.15,104.14,60.11Z"/><path class="cls-52" d="M103.2,81.59c-2.65,1.42-6.62,2.07-8.84,4,1.92,4.62,10.71-7.46,12.22-2.59.67,2.14-3.2,3.61-4.25,5-2.36,3.25,2.53.22,3.42,1.77s-2.23,3.37-1.32,5.43c.37.82,1.66.64,1.73,1.77s-1.27,2.14-2.12,2.81c-2.24,1.78-4.73,3.49-7.18,5.12-2.27,1.5-6.47,3.5-7.15,6.06,6.69,1.08,11.21-7.74,17.64-6.73,1,6.51-9.45,6.8-11.73,11.75,2.29.38,6.34-2.35,8.41-3.24a13,13,0,0,0,5.82-5c.57-.81,2-2.3,1.81-3.24-.27-1.36-1.93-1.24-2.16-2.52-.26-1.55,5.29-6.11.09-5.45-.7-2.22,4.14-3.51,4.11-6-5.84-.18-1.61-3.15-1.71-6.48-.54.1-1.43-.21-2-.11-.46-4,4.95-6,4.52-10-.13-1.26-4.62,3.25-4.65,3.28A31.2,31.2,0,0,1,103.2,81.59Z"/><path class="cls-52" d="M19.15,76.09a17.85,17.85,0,0,0,7.36,6.64c2,.94,11.94,3,11.31,4.7-3.06.08-5.5-.81-8.59-.73-.59,2,3.77,4.27,5.6,5.38-3.11.77-4.88,1.68-1.55,3.88a37.52,37.52,0,0,0,8.61,3.6c1.67.53,8.64,1.9,7,4.2-1.33,1.92-9.37-.68-11.5-1.11-2.6-.52-7.75-1-6.73,2.25.84,2.63,7.35,3.67,10.18,4.78,1.48.58,7.12,3.34,4.17,4.61s-8-1.55-11-1.13c.06.28-.22.74-.15,1-2.17,0-3.82-1.12-5.44-2s-3.67-1.38-5.11-2.38-4.42-4.32-4.52-5.75c2.52-.18,4,.92,6.2,1.23,1.18-3.45-5.88-5.42-5.58-8.49,7.52.67-1-7.07-.12-9.24a6.71,6.71,0,0,1,3,.3c1.95-1.92-.89-3.69-2.42-5.15S19.2,77.81,19.15,76.09Z"/><path class="cls-52" d="M99,86.11c-2.64.91-5.3,1.7-8,2.57-2,.64-5.45,1-6.78,2.36,2.13,1.36,4.62,1.19,7.06,1.19,1.36,0,6.51-.79,6.82,1.1.39,2.33-5.28,3.69-6.82,4.25-3.65,1.32-1,2.51,1.19,3.75,1.19.67,1.79.82.8,2-.29.34-1.08.39-1.36.69-.44.47-.16,1-.56,1.4-1.78,1.88-6.14,1.87-8.63,3.21-6.36,3.4,10.68,3.08,7.08,6.67-1.6,1.61-6.29,1-8.44,1.17-.63.06-3.08.42-3.36,1.11-.59,1.48,1.88,1.61,2.79,1.68,5,.4,10-.57,14.74-1.73a35.15,35.15,0,0,0,11.41-5.23c2.45-1.66,7.06-5.46,6.73-8.63,0-.54-.57-.83-.58-1.38,0-.8.41-1,.51-1.67a19.25,19.25,0,0,0,0-2.84c0-.63.43-1.2.4-1.82,0-.41-.39-.74-.43-1.1-.09-1,.09-2.5.09-3.7,0-2.52-.71-4.53-.51-7,.08-1,1.74-4.54.84-5.35s-3.19,1.53-3.84,2.07C106.93,83.56,102.87,84.75,99,86.11Z"/><g class="cls-53"><rect class="cls-54" x="4.49" y="17.71" width="100.26" height="1.74" transform="translate(-3.04 20.56) rotate(-20.76)"/><rect class="cls-54" x="7.03" y="24.43" width="100.26" height="1.74" transform="translate(-5.25 21.9) rotate(-20.76)"/><rect class="cls-54" x="9.58" y="31.15" width="100.26" height="1.74" transform="translate(-7.47 23.24) rotate(-20.76)"/><rect class="cls-54" x="12.13" y="37.86" width="100.26" height="1.74" transform="translate(-9.69 24.58) rotate(-20.76)"/><rect class="cls-54" x="14.67" y="44.58" width="100.26" height="1.74" transform="translate(-11.9 25.92) rotate(-20.76)"/><rect class="cls-54" x="17.22" y="51.3" width="100.26" height="1.74" transform="translate(-14.12 27.26) rotate(-20.76)"/><rect class="cls-54" x="19.76" y="58.02" width="100.26" height="1.74" transform="translate(-16.33 28.6) rotate(-20.76)"/><rect class="cls-54" x="22.31" y="64.74" width="100.26" height="1.74" transform="translate(-18.55 29.94) rotate(-20.76)"/><rect class="cls-54" x="24.86" y="71.45" width="100.26" height="1.74" transform="translate(-20.76 31.27) rotate(-20.76)"/><rect class="cls-54" x="27.4" y="78.17" width="100.26" height="1.74" transform="translate(-22.98 32.61) rotate(-20.76)"/><rect class="cls-54" x="29.95" y="84.89" width="100.26" height="1.74" transform="translate(-25.2 33.95) rotate(-20.76)"/></g><path class="cls-52" d="M58,30.87c-1.47-.13-2.91,1.15-4.21,1.64A71.12,71.12,0,0,0,47,35.31,41.16,41.16,0,0,0,41.27,39c-1.29.93-3.05,1.83-4,3.08,1.53-.08,3.14-1.34,4.63-1.86a22.58,22.58,0,0,1,6.79-1.7c1.41,0,1.74.17.67,1.06s-3,1.22-4,2.34c1.35.89,4.57.07,6.25.23.15,1.26-4.65,2.56-5.63,3-3,1.28-6.43,2.39-9.15,4.18-1.57,1-2.42,2.7.22,1.7,3.81-1.45,7.45-3.25,11.42-4.23a96.71,96.71,0,0,1,23.19-3.17A37.07,37.07,0,0,1,80.94,45c1,.23,5.06,1.63,5.53.68a12.87,12.87,0,0,0-5.27-2.33c-2.49-.55-5-1.39-7.39-2.16-1.67-.52-7.45-2.43-3.12-3.86,3.75-1.23,7.65.06,11.15,1.54a44,44,0,0,0,5.66,1.85c1,.26,3.71,1.26,4.66.64.7-.45.54-1.45.25-2.07-.82-1.79-3.21-2.16-4.87-2.58-3.44-.88-6.6-2.4-10.12-3.07-5.11-1-10-2.2-15-3.43A11.67,11.67,0,0,0,54,31.29Z"/><path class="cls-52" d="M63.51,29.6c2.42.14,4.8-.17,7.19-.21,4.28-.07,8.79-.41,12.83.89,3.23,1,6.18,2.74,9.35,3.92a18.94,18.94,0,0,1,8.78,7c.59.81.92,1.75,1.44,2.56-2.41-.23-5.08-2.91-7.72-2.3.42,1.22,2.2,1.36,1.05,2.76-.32.4-1.13.38-1.28,1-.22.87.72,1.26,1.26,1.69a35,35,0,0,1,5.08,4.4c.66.74,3.07,2,2.38,3.27-.5.87-2.24.62-3,.37-1.6-.53-3.07-1.21-4.66-1.64-3.52-1-6.89-1.58-10.35-2.8A38.8,38.8,0,0,0,76.14,48c-7.25-.59-14.31-1.49-21.55-.42-3.56.53-6.73.84-10.15,2.07-3.15,1.13-6.37,2.55-9.35,4-1.34.63-7.82,4.48-7.08.9.3-1.43,1.95-2.23,2.65-3.43.35-.6.74-1.48.32-2.12-1.11-1.73-4.51,1.91-6.37,1.5-.2-2.69,1.71-4.42,3.36-6.3a32.32,32.32,0,0,1,2.74-2.75c.64-.57,2.09-1.52,1.87-2.51-.39,0-.49-.21-.78-.3.92-1.45,4.3-2.86,5.88-3.58a25.7,25.7,0,0,1,7-1.86c3.61-.55,6.85-2.3,10.32-3.31C57.61,29.11,60.78,29.44,63.51,29.6Z"/><g class="cls-55"><path class="cls-56" d="M55,64.25c-1.38.93-6.59,4-9.24,3.32.22-.6.21-1.42.74-2-2-.21-8.66,1.79-8.48-1.7-2-1.1-4.72-.32-6.79-1.24-1.35-.6-4.85-2.67-2.6-4.33-5.09-2.68-4.15-9.23.58-12.15,5-3.09,12-4,17.69-3.41,0,.23.09.46.14.69a44,44,0,0,0,7.54-.35C56.3,43,62,42.5,59.7,45.58c5.53.6,10.9-.79,16.41-.27-1.43,3.06-6.06,1.63-7.48,4.25s3.85,4.21,3.35,7c5.33,2.26,13.72-.72,19-2.14,2.62-.71,4.81-1.37,7.61-1.08,1.17.12,8,1.71,5.12,3.4a2.09,2.09,0,0,0,2,.8c.58,3.08-9.63,3.89-11.78,4.57-4.35,1.37-8.65,3.47-13.09,5.08-4.86,1.76-10.66,2.12-15.64,3-2.56.44-4.46.75-6.45-1.17-1-.94-1.19-2.37-2.41-3S52.9,66,51.63,66Z"/><path class="cls-57" d="M61.58,47.11a13,13,0,0,0-5.09-4.5,26,26,0,0,0-2.56-.91,6.84,6.84,0,0,0-2.87-1,6.49,6.49,0,0,0-2,.68c-.42.19-.63.42-1.12.38-.68-.06-.43-.24-.92-.58-.73-.51-1.14-.29-1.83.27-.36.3-.28.58-.91.58s-.88-.44-1.36-.55a5.84,5.84,0,0,0-2.44.41c-1.21.27-4.08.78-4.59,2.15l.24.05c0,.33-1.57.86-2,1.16-1.91,1.26-5.09,3.14-5.57,5.59A17.44,17.44,0,0,0,28.44,54a7.3,7.3,0,0,0,.92,4.49,12.45,12.45,0,0,0,2.34,2.36,9.72,9.72,0,0,0,1.31,1,8.23,8.23,0,0,0,2.35.56A14.45,14.45,0,0,1,38,63.69a25.8,25.8,0,0,0,4.65,1.19c3.83.88,8.52,2.47,12.29.61,1.73-.86,2.84-2.55,4.08-4a17.22,17.22,0,0,0,3.39-5.82A9.87,9.87,0,0,0,61.58,47.11Z"/><path class="cls-58" d="M39.52,48.68c-.71,1-1.83,1.22-2.75,1.92a8.82,8.82,0,0,0-2.61,3.32c-.78,1.68-1.34,4.48.59,5.53.32-.47.15-1.37.15-1.92a9.76,9.76,0,0,1,.24-2.48,5.8,5.8,0,0,1,2.1-3.55c1-.67,2-.54,2.72-1.64.26-.42.54-.85.77-1.27s.27-1.1.57-1.33Z"/><path class="cls-58" d="M43.9,49.39c0,2.77-1.67,5-1.65,7.78a18.83,18.83,0,0,0,.26,4.63c.25,1,.39,2.21,1.59,2.19-.69.39-2.36-.43-3-.74a6.94,6.94,0,0,1-1.43-.68c-.41-.33-.59-1-1-1.2-.6.94-1.28-.74-1.33-1.2a9.54,9.54,0,0,1,.5-4c.58-1.67.79-3.6,2.46-4.49.21.44-.13,1.59.32,1.86s.87-.79,1-1.19a12.78,12.78,0,0,1,1.5-3.2Z"/><path class="cls-58" d="M55,52.86A5.12,5.12,0,0,1,55.5,54a14.29,14.29,0,0,1,.94,6.14c-.23-.15-.42-.47-.69-.57-.35.83,0,4.51-1.76,4.11-.08-1,.1-1.94.1-2.94,0-.35.06-1-.2-1.31-.52-.53-.54,0-1,.28-1.14.79-1.34-.13-1.34-1.22s.1-2.6-1.13-3.25c-.47-.24-.84-.25-1.14-.74a8,8,0,0,1-.48-2c-.24-.89-.76-1.67-1-2.57-.11-.44-.82-1.76-.51-2s.67.13.89.47c.34.53,1.53,1.87,1.42.36,0-.27-.5-.83-.07-1.07s2.08,1.64,2.4,2A18.51,18.51,0,0,1,55,52.86Z"/><path class="cls-58" d="M54.45,46.78c1.15.33,2.34,1.84,3.08,2.73a10.42,10.42,0,0,1,1.89,3.67c.23.74.87,3,1.07,1,.1-1.08-1.24-2.27-1-3.2.42-1.37,1.55,1,2.14,1,1-.12-.28-2.23-.59-2.62A11.1,11.1,0,0,1,59.9,48c-.16-.28-.3-.35-.24-.71s.43-.4.46-.59c.09-.7-1.46-1.75-2-2.05a12.66,12.66,0,0,0-3.65-1.49c-.32.92,1.39,1.32,1.89,1.84,1.34,1.39-1.22.73-1.78.88,0,.2-.12.38-.13.46Z"/><path class="cls-58" d="M41.18,42.52a5.14,5.14,0,0,0-1.3,0c-.45.11-.87.24-1.31.38a13.48,13.48,0,0,0-2.24,1.22,13,13,0,0,0-3.95,2.78A6.41,6.41,0,0,0,31.11,49c-.11.46.11.68,0,1.1a4.53,4.53,0,0,1-.71,1.16A9,9,0,0,0,29,56.5a6.72,6.72,0,0,0,1.16,3c.41.61,1.58,1.92,2.38,1.74.24-.94-.7-1.8-1-2.58A5.89,5.89,0,0,1,31,55.91a11.52,11.52,0,0,1,2-5.81A14.81,14.81,0,0,1,37,46.34a4.31,4.31,0,0,0,1-.71c.29-.35.19-.89.47-1.19.55-.59,1.5-.47,2.11-1.09.25-.26.44-.6.71-.83Z"/><path class="cls-58" d="M50.06,41.73c.65,1.2-.28,1.22-.45,2.18.51.13.75-.22,1.22-.26.25.77-.49.94-.59,1.53A1.25,1.25,0,0,0,51,42.84Z"/><path class="cls-52" d="M48.45,44.37c-1.15-.18-2,.26-3.15-.24-.79-.33-1.88-.9-2.71-.6S41,44.62,40.18,45a11.23,11.23,0,0,0-2.71,1.9c-1.82,1.59-4.11,2.74-5.42,4.77A8.45,8.45,0,0,0,31,58.34a3.62,3.62,0,0,0,1.46,2c.26-2.32-.82-4.45.34-6.63A15.26,15.26,0,0,1,37,48.54c1.76-1.26,3.41-2.7,5.46-3.22,1.24-.3,1.83.5,3,.54a5.6,5.6,0,0,0,2.74-1,1.56,1.56,0,0,1,1.6-.17Z"/><path class="cls-52" d="M53.1,46.78a33,33,0,0,1,2.63,2.36c2.12,2.37,3.16,5.43,1.94,8.46-.42-.6-.21-2.13-.41-2.9a11.9,11.9,0,0,0-1.12-3c-1-1.75-2.91-3-4.53-4.23a6.66,6.66,0,0,0-4.37-1.32c-1.1.09-1.08-.6-1.94-.92s-2.23.46-2.66-.55c1.11-.49,2.39.07,3.51.11,1.36,0,1.85-.46,3.14.24S52,45.82,53.1,46.78Z"/><path class="cls-52" d="M42.89,43.83c1.28,1.64,4.72-.74,6.1-1.19,1.13-.36,1.77-1,3.12-.84a5,5,0,0,1,3.07,1.06c-1.12-.4-7.9-1.17-7.11,1.62,1.29.71,3.26-.29,4.72-.08,1,.15,3.5.75,4.05,1.71-.57.13-1.09-.36-1.61-.56a4.69,4.69,0,0,0-1.76-.23c-1.33,0-2.6-.27-3.93-.27s-2.64.09-3.93,0-2.23-.71-3.39-.81Z"/><path class="cls-52" d="M43.46,42.5c-.14.73,1.38,1,1.31,1.85-.54.35-1.39-.2-2-.25a10.23,10.23,0,0,0-2.17.27c-1.18.17-3.34.11-4,1.37a20.46,20.46,0,0,1,2.78-.4c-.08.61-1.85,1.55-2.39,2-.71.65-2,1.45-2.33,2.39,1.89-.1,3.9-2.24,5.37-3.27a6.38,6.38,0,0,1,2.48-1.46c.81-.13,2.58,0,2.27,1.19s-1.86,1.21-2.55,1.82-.89,1.78-1.89,2.41c-1.67,1-4.17,3.31-3.64,5.67.83.17,1.48-1.21,1.91-1.74a25.94,25.94,0,0,1,2.27-2.3,18.83,18.83,0,0,0,1.79-1.9c.58-.72.93-1.55,1.47-2.3.33-.48,1.36-1.94,1.86-1.23.35.49,0,2-.11,2.55-.35,2.43-.85,5.37,0,7.74.65-.26.34-1.45.38-2,.07-1,.14-1.88.14-2.85,0-1.34,0-2.63.13-3.93s0-2.62,1.77-2.31c1.14.2,1.58,1.42,2.58,1.85-.06-.59-.68-.91-.94-1.41.9-.25,1.49.8,2.27.76-.06-1-2.4-1.37-3.13-1.44-1.27-.12-2.39.19-3.09-1a5.43,5.43,0,0,0-.84-1.43C45.06,43.06,43.53,42.11,43.46,42.5Z"/><path class="cls-52" d="M46.87,45.65a10.1,10.1,0,0,1,1.39,1.89c.32.71.4,1.76,1.16,2.16.17-1-.44-1.41-.82-2.26-.57-1.26.09-1.44,1.25-1.52,2.2-.14,3.79.83,5.81,1.48-.06-1.59-2.84-1.43-3.91-1.61a10.55,10.55,0,0,0-2-.27,5,5,0,0,1-2.15-.16c-.06-.84,1-1.22,1.61-1.5.4-.18,2.13-1,1.08-1.33-.64-.21-1.65.83-2.17,1.12a6.18,6.18,0,0,1-2.41,1,16.11,16.11,0,0,0-2.47.34,7,7,0,0,0-1.89,1.25c-1,.78-4.35,2.55-4.18,4.05.87.27,2.09-1.62,2.69-2.16a18.16,18.16,0,0,1,2.68-1.92c.67-.42,1.25-1.1,2.06-1.19a1.72,1.72,0,0,1,1.92,1.74c.6.15.75-1.1,1.33-.52Z"/><path class="cls-58" d="M49.58,47.28c0,1.34.72,1.89,1.39,3,.39.63,1.69,3,1.09,3.71-1.05,1.17-2.29-1.68-2.65-2.21s-1-1-1.42-1.63-.44-1.24-.85-1.72c-.79,1.11.2,3.91.41,5.11a38.3,38.3,0,0,1,.27,6.26c0,.6-.28,5.13,1,4.7,1-.35.38-5.88.56-6.74,1.22,0,1.43,2.81,1.47,3.64,0,.46-.19,1.39.1,1.76.6.78.67-.37,1.23-.39.13.88-.16,1.77-.09,2.68,1.12-.28,1.33-1.91,1.48-2.83.11-.66.24-3.34,1.22-2.89.75.36.35,3.11,1.12,2.79s.36-2.67.36-3.29A14.27,14.27,0,0,0,55,52.69a18.35,18.35,0,0,0-3.62-5,6.3,6.3,0,0,0-.85-.64Z"/><path class="cls-58" d="M42.29,50c-.74.92-1.88,2.55-1.62,3.78.75-1.14,1-3.36,2.52-4a11.45,11.45,0,0,1-.76,4.32c-.27,1-1.47,4.8.39,5.14.87-1.49.67-4,.94-5.65a7.58,7.58,0,0,1,.39-2.2c.46-.74.49-.08.86.36a6.07,6.07,0,0,0,.4-2.66c.07-.8.77-2.29-.61-1.82C43.71,47.59,43,49.15,42.29,50Z"/><path class="cls-58" d="M39.58,48.26A8.52,8.52,0,0,0,38,49.71c-.36.46-.9,1.73-1.57,1.61-.74-1.38,1.45-2.89,2.31-3.74S42,45.7,42,44.46c-.72-.06-1.36.58-1.89,1a19.6,19.6,0,0,1-2.17,1.6A23.46,23.46,0,0,0,34.58,50a8.1,8.1,0,0,0-2.47,4.3c-.11.59-.33,2.38.63,1.63.62-.47.62-1.58,1.37-2,.1,1-.22,1.84-.11,2.83s1,2.27,1.22.68a7.6,7.6,0,0,1,.57-3,11.65,11.65,0,0,1,2-2.3c1.18-1.32,2.57-2.4,3.79-3.7.44-.46.71-1.1,1.19-1.52a6.33,6.33,0,0,1,1.45-.67C42.67,45.26,40.64,47.51,39.58,48.26Z"/><path class="cls-58" d="M42.84,42.36a2.12,2.12,0,0,0-2.07-.06c-.65.28-3.24,1.17-3.09,2,1,.24,2.3-.39,3.37-.39.62,0,2.55,1,3,.39S43.3,42.6,42.84,42.36Z"/><path class="cls-58" d="M45.24,43.35c.19.6.84.3,1,1.06.53,0,.28-.52.61-.83s.77-.21,1.1-.4S49.65,42,49.7,41.61c-1.23-.27-1.73,1.51-2.81,1.31-.24-.05.16-1.19-.68-1.12C45.73,41.85,45.11,42.92,45.24,43.35Z"/><path class="cls-58" d="M54.32,43.08h.23a8,8,0,0,0-3.75-.24c-.65.1-2.94.92-3,1.7,1.77.16,3.56-.42,5.4-.38,1.32,0,3.48.55,3.92,2-.85.54-2.26-.1-3.11-.38a19.21,19.21,0,0,0-3-.71c-.46-.07-2.79-.51-2.69.27s2.34,1,2.83,1.09a9.11,9.11,0,0,1,5.11,2.6,15,15,0,0,1,1.12,2.14,4.07,4.07,0,0,0,2.42,1.61c.18-.75-.54-1.76-.82-2.4a5.12,5.12,0,0,1-.63-2.17c.71-.24,2.26,1.52,2.81.8s-1.57-2.2-2-2.55a28.36,28.36,0,0,0-2.27-1.93c-.49-.28-1-.46-1.52-.79s-.69-.6-1.06-.84Z"/><path class="cls-58" d="M49.14,48c.3.45.91,2-.24,1.58-.76-.24-1.39-4.58-2.16-2.42-.31.85.06,1.37.14,2.17s0,1.64,0,2.44c0,1.53,0,3.86,1,5.13,1.33-.67-.37-3.92.71-5s1.7,2.59,3.06,2.26c.51-1.23-.59-2.3-.65-3.51-.07-1.4.94-1.59,2-1A5.86,5.86,0,0,1,55,52c.2.34,1.06,2.4,1.49,2.44,1,.12,0-2.19-.2-2.54a11.07,11.07,0,0,0-2-2.72c-.73-.7-1.61-1.17-2.34-1.86s-1.82-1.5-2.87-1.26C47.78,46.35,48.64,47.25,49.14,48Z"/><path class="cls-58" d="M42.77,49.31c-.71,1-1.9,2.2-1.7,3.51.94-.06,1.14-2.41,2.12-2.54a6.81,6.81,0,0,1-.53,2.55,11.63,11.63,0,0,0-.12,2.71c0,.4-.13,2.42.4,2.46s.87-2,.92-2.32c.24-1.74.19-3.73,1-5.32.37-.78,2.19-2.85.81-3.57C44.4,46.14,43.3,48.57,42.77,49.31Z"/><path class="cls-52" d="M60.09,60.46c-2,3-6.27,3.36-9.33,4.2-2.16.59-2.93,1.14-5.17.13a28.6,28.6,0,0,0-5.38-1.46,31,31,0,0,1-5.09-2c-1.85-1.28-.7-3,1.22-3.35.34,1.09.16,2.81,1.32,3.44,1.84,1,2-.89,3.38-1,1.68-.1,1.89,1.81,3.44.9,1.31-.77.48-3.13.81-4.26,1.35-4.56,2.28,2.33,3.49,3.27,3.76,3,3.57-3.42,3.78-5.34a3,3,0,0,1,1.69,2c2.17-.18.26-6.07.4-7.9a2.4,2.4,0,0,1,1.13,0c.41,1,1.92,5.92,3.39,4.18,1.19-1.41-1.9-4.25-1.55-5.89A5,5,0,0,1,60,48.57c-.32-.26-1.39-2.61-1.88-3.22,2.36-.07,4.87,4,5.11,6.18C63.56,54.55,61.74,58.05,60.09,60.46Z"/><path class="cls-57" d="M68.34,47a12.41,12.41,0,0,1,4.89-4.32,25.59,25.59,0,0,1,2.46-.87,6.55,6.55,0,0,1,2.75-.92,6.31,6.31,0,0,1,2,.65c.4.18.61.4,1.08.36.65,0,.41-.23.87-.55.71-.49,1.1-.28,1.76.26.36.28.28.55.88.55s.84-.42,1.3-.52a5.39,5.39,0,0,1,2.35.39c1.16.26,3.92.75,4.4,2.06l-.22.05c0,.32,1.5.83,1.93,1.11,1.83,1.22,4.89,3,5.35,5.37a18,18,0,0,1,.07,3A7,7,0,0,1,99.28,58,12.09,12.09,0,0,1,97,60.22a8.88,8.88,0,0,1-1.25.94,7.68,7.68,0,0,1-2.26.53A13.72,13.72,0,0,0,91,62.92a23.81,23.81,0,0,1-4.47,1.13c-3.67.86-8.18,2.38-11.8.59-1.66-.82-2.73-2.45-3.91-3.81a16.31,16.31,0,0,1-3.26-5.59A9.47,9.47,0,0,1,68.34,47Z"/><path class="cls-58" d="M89.52,48.5c.68.91,1.76,1.17,2.65,1.84a8.65,8.65,0,0,1,2.5,3.19c.75,1.62,1.29,4.31-.57,5.31C93.79,58.39,94,57.52,94,57a9.55,9.55,0,0,0-.23-2.39,5.57,5.57,0,0,0-2-3.4c-1-.64-2-.52-2.62-1.58-.24-.4-.51-.81-.73-1.22s-.26-1-.54-1.28Z"/><path class="cls-58" d="M85.31,49.18c0,2.66,1.61,4.84,1.6,7.48a18.81,18.81,0,0,1-.26,4.44c-.24,1-.38,2.13-1.53,2.1.67.38,2.27-.41,2.92-.71a6.88,6.88,0,0,0,1.37-.65c.4-.32.58-.91,1-1.16.57.91,1.23-.7,1.27-1.14a9.15,9.15,0,0,0-.48-3.85c-.56-1.6-.75-3.46-2.36-4.3-.2.41.12,1.52-.31,1.78s-.83-.76-1-1.14A12.32,12.32,0,0,0,86.11,49Z"/><path class="cls-58" d="M74.69,52.51a4.94,4.94,0,0,0-.51,1.12,13.6,13.6,0,0,0-.91,5.89c.22-.14.41-.44.67-.54.33.79,0,4.33,1.69,4,.08-1-.1-1.87-.1-2.83,0-.34-.06-1,.2-1.25.49-.51.51,0,.91.26,1.09.76,1.28-.13,1.28-1.17s-.09-2.5,1.09-3.12c.45-.23.81-.24,1.09-.71a7.93,7.93,0,0,0,.46-2c.23-.84.73-1.59.94-2.46.1-.42.78-1.69.49-2s-.65.13-.86.46c-.33.5-1.47,1.79-1.37.34,0-.26.48-.8.07-1s-2,1.58-2.3,1.89A17.81,17.81,0,0,0,74.69,52.51Z"/><path class="cls-58" d="M75.19,46.68c-1.11.31-2.25,1.76-3,2.62a10.09,10.09,0,0,0-1.82,3.52c-.22.72-.83,2.9-1,.91-.1-1,1.19-2.17.91-3.07-.41-1.31-1.49,1-2,.92-1-.11.27-2.14.56-2.51A11.1,11.1,0,0,0,70,47.82c.16-.27.29-.33.23-.68s-.41-.39-.44-.57c-.09-.67,1.4-1.68,1.92-2a12.14,12.14,0,0,1,3.51-1.43c.3.89-1.34,1.27-1.82,1.77-1.29,1.34,1.17.7,1.71.85,0,.19.12.36.13.43Z"/><path class="cls-58" d="M87.93,42.59a4.75,4.75,0,0,1,1.25,0c.43.11.83.23,1.26.37a13.2,13.2,0,0,1,2.15,1.17,12.39,12.39,0,0,1,3.78,2.67,6,6,0,0,1,1.23,2.07c.11.44-.11.65,0,1A4.2,4.2,0,0,0,98.25,51a8.62,8.62,0,0,1,1.4,5,6.55,6.55,0,0,1-1.11,2.87c-.39.58-1.52,1.84-2.29,1.66-.23-.9.67-1.73,1-2.48a5.65,5.65,0,0,0,.45-2.62,11,11,0,0,0-1.9-5.57,14.14,14.14,0,0,0-3.9-3.62,4.17,4.17,0,0,1-.94-.68c-.28-.34-.18-.85-.45-1.14-.53-.56-1.44-.45-2-1-.25-.25-.42-.57-.68-.79Z"/><path class="cls-58" d="M79.4,41.83c-.62,1.15.27,1.17.43,2.09-.49.12-.72-.21-1.17-.25-.24.74.47.9.57,1.47a1.2,1.2,0,0,1-.74-2.25Z"/><path class="cls-52" d="M81,44.37c1.1-.18,1.91.24,3-.23.75-.33,1.81-.88,2.6-.59s1.5,1.05,2.31,1.44a10.38,10.38,0,0,1,2.61,1.82c1.74,1.53,4,2.63,5.2,4.59a8.07,8.07,0,0,1,1,6.37,3.55,3.55,0,0,1-1.41,1.94c-.25-2.23.79-4.28-.33-6.37a14.71,14.71,0,0,0-4.09-5c-1.68-1.2-3.27-2.59-5.24-3.08-1.19-.3-1.76.48-2.86.52a5.45,5.45,0,0,1-2.63-1,1.5,1.5,0,0,0-1.54-.17Z"/><path class="cls-52" d="M76.49,46.67A32.48,32.48,0,0,0,74,49c-2,2.26-3,5.21-1.85,8.12.4-.57.19-2,.39-2.79a11,11,0,0,1,1.07-2.89c1-1.68,2.8-2.89,4.36-4.06a6.35,6.35,0,0,1,4.19-1.27c1,.09,1-.58,1.86-.89s2.14.45,2.56-.52c-1.07-.47-2.3.07-3.37.1-1.31,0-1.78-.43-3,.24S77.51,45.75,76.49,46.67Z"/><path class="cls-52" d="M86.28,43.84c-1.22,1.58-4.53-.71-5.86-1.14-1.08-.35-1.69-.93-3-.81a4.82,4.82,0,0,0-3,1c1.08-.38,7.58-1.12,6.83,1.56-1.24.68-3.13-.28-4.53-.08-1,.15-3.36.72-3.89,1.64.55.13,1-.35,1.55-.53a4.3,4.3,0,0,1,1.69-.22c1.27,0,2.49-.26,3.77-.27s2.53.09,3.78,0,2.13-.68,3.25-.78Z"/><path class="cls-52" d="M85.74,42.56c.14.71-1.32.95-1.26,1.78.51.34,1.34-.19,1.93-.24a8.77,8.77,0,0,1,2.08.27c1.14.16,3.22.1,3.86,1.31a19,19,0,0,0-2.67-.38c.07.58,1.78,1.48,2.29,2,.68.63,1.93,1.4,2.24,2.29-1.82-.08-3.75-2.14-5.16-3.14A6.32,6.32,0,0,0,86.67,45c-.78-.12-2.48,0-2.18,1.15s1.79,1.16,2.45,1.75.86,1.71,1.81,2.31c1.61,1,4,3.18,3.5,5.44-.8.17-1.42-1.16-1.83-1.67a26.87,26.87,0,0,0-2.19-2.21A18.5,18.5,0,0,1,86.51,50c-.55-.69-.89-1.48-1.4-2.21-.33-.46-1.31-1.86-1.8-1.18-.33.47,0,1.94.11,2.45.33,2.33.82,5.15,0,7.44-.62-.25-.32-1.4-.36-1.94-.07-.91-.13-1.81-.13-2.73,0-1.29,0-2.53-.13-3.78s0-2.52-1.7-2.22c-1.09.2-1.51,1.37-2.48,1.78.06-.56.66-.87.91-1.36-.87-.23-1.43.78-2.18.73.06-1,2.3-1.31,3-1.38,1.22-.11,2.3.19,3-1a5.4,5.4,0,0,1,.8-1.37C84.2,43.1,85.67,42.19,85.74,42.56Z"/><path class="cls-58" d="M78.05,49.67c-.41,1.47.54,1,1.17.15.22-.28,1-1.54,1.47-1.4,1,.34-.9,4.76-1,5.45a6.08,6.08,0,0,0,1.44,5.18c.94-.55.62-2.4.62-3.36a25.79,25.79,0,0,1,.26-4,18.54,18.54,0,0,0,.52-3.25c0-1.5-.06-2.81-2-2.12C79.23,46.77,78.42,48.35,78.05,49.67Z"/><path class="cls-58" d="M76.49,48.49c-1.62,1.39-2.87,2.29-3.61,4.34A16.72,16.72,0,0,0,72,58.42a6.16,6.16,0,0,0,.61,3c.32.62,1.29,2.12,2.1,2.07.15-1.82-.19-3.6.43-5.3,1.36-.39,1,1.72,1,2.45a4.85,4.85,0,0,0,1.2,3.1c1.11,1.25,1.14-.48,1.28-1.41.06-.41-.08-1.11.38-1.31.64-.27,1,.49,1.15.92s.63,2.55,1.33,1.31c.16-.29-.11-1.38.29-1.55.2-.09.8.54.91.73.55.92.22,2.44,1.79,1.56a5.79,5.79,0,0,0,2.31-2.44,7.77,7.77,0,0,0,.55-3.38c0-.7-.73-2.72-.1-3.1,1.55-1,1.46,5.15,1.82,5.81.62.16,1.1-1.3,1.17-1.79,1.06.65,1.89-.06,1.8-1.18a9.18,9.18,0,0,0-1-2.83,17.62,17.62,0,0,0-3.45-4.47c-.64-.68-1.27-1.32-1.88-2s-1-1.84-1.8-2.35c-2-1.26-.69,4-.64,4.65.12,1.6.63,4.44-.43,5.69-.44-.78-.14-1.81-.22-2.69s-.28-1.81-.36-2.73a14.33,14.33,0,0,1-.16-2.86c.13-1.5.56-2.8-1.52-2.3A10.7,10.7,0,0,0,76.49,48.49Z"/><path class="cls-58" d="M80.16,45.15c-1.31.71-2.9,1-4.15,1.84a11.78,11.78,0,0,0-3,3.49,8.76,8.76,0,0,0-1.14,3.9c-.09.68-.19,4-1.29,3.76a7.79,7.79,0,0,0-.17-1.94c-.31-.82-.83-.64-1,.12-.94-.15-1-1.71-1-2.46-.11-1.08-.66-1.88-.65-3a6.68,6.68,0,0,1,2.38-4.78c3-2.64,7.3-4,11-2.51,1.43.55-.09,1-.92.91s-1.73-.18-2.6-.26c-1.23-.11-4.1,0-4.8,1.15a21.23,21.23,0,0,0,3.73-.13c.62,0,3.37-.52,3.67.16Z"/><path class="cls-58" d="M81.11,42.9c.62.3,2,1.24,2.67.82.17-.12.15-.41.28-.53s.55-.24.66-.38c.38-.51.1-.72-.51-.93-.22-.07-.48,0-.69-.09s-.47-.3-.59-.32c-.63-.12-.89.24-.83.92a27.94,27.94,0,0,0-2.84-1C77.76,41.92,80.77,42.74,81.11,42.9Z"/><path class="cls-58" d="M86.67,43.58a13.87,13.87,0,0,1,2.21.26c.8.07,4.11.48,4,1.68-1,.08-1.84-.41-2.71-.38-1.6.07.54.87,1,1.08a12.27,12.27,0,0,1,3.39,2.86,10.59,10.59,0,0,1,2.9,4.65c.29,1.1.75,5.41-1,5.58-.2-2.09.29-4.43-.5-6.36a12.11,12.11,0,0,0-3.82-4.78,12.84,12.84,0,0,0-2.46-1.5c-.77-.36-1.38-1-2.11-1.36s-2.41-.39-2.88.19c-.68.84.81,1.15,1.34,1.6a22.59,22.59,0,0,1,2.18,2.49c.8.92,1.71,1.77,2.54,2.68a6.82,6.82,0,0,1,1.24,3c.21,1.15-.5,2,0,3.1,1.39.22.52,1.55,1.7,1.94a4.55,4.55,0,0,0,3-.33,5.54,5.54,0,0,0,2.57-4.72,7.77,7.77,0,0,0-2-5.55,14.61,14.61,0,0,1-1.69-1.83c-.28-.42-.24-.85-.46-1.24s-.64-.58-1-.91c-1-.84-1.62-2.17-2.89-2.73-1.69-.77-5.92-1.93-6.46,1C85.44,44.18,86,43.64,86.67,43.58Z"/><path class="cls-52" d="M69,52.78a6.11,6.11,0,0,1,3.32.91c.9.48,1.31,1.37,2.53,1.69,3.17.83,2.58-1.77,4.65-3.63,1.28,2.11-.07,5.34,1.69,7.44C84.42,63,82.65,56,83,54.59a.59.59,0,0,1,.69,0,21,21,0,0,1,1.42,7.07,2.64,2.64,0,0,0,1.55,0,2.17,2.17,0,0,1,3-1.56,2.31,2.31,0,0,0,1.34,2.43,5.59,5.59,0,0,0,.46-5.37c2.48,0,.76,2.23,1.61,3.31,1.6,2,1.88-.7,3.78-.37-.07,2.79-7.05,4-9.24,4.69a23.21,23.21,0,0,1-5,1.19c-2.11,0-2.36-1-3.93-2-2.7-1.83-5.94-2.65-8.77-4.33-4.23-2.51-2.63-7.34-2.43-11.28C69.76,47.7,68.9,51.4,69,52.78Z"/><path class="cls-57" d="M82.05,62.3a12.45,12.45,0,0,0-4.25-4.95c-.7-.51-1.58-.75-2.32-1.19a6.4,6.4,0,0,0-2.61-1.29,6.32,6.32,0,0,0-2,.38,1.85,1.85,0,0,1-1.11.21c-.64-.14-.38-.28-.79-.67-.64-.58-1-.42-1.78,0-.39.24-.35.52-1,.44s-.77-.54-1.21-.7a5.61,5.61,0,0,0-2.38.06c-1.19.11-4,.22-4.65,1.46l.22.07c-.07.32-1.6.62-2.06.84-2,1-5.25,2.33-6,4.6a17.6,17.6,0,0,0-.49,3,7,7,0,0,0,.3,4.39,11.93,11.93,0,0,0,1.92,2.55A8.88,8.88,0,0,0,53,72.61a8,8,0,0,0,2.16.84A13.52,13.52,0,0,1,57.42,75a24,24,0,0,0,4.27,1.73c3.52,1.34,7.78,3.46,11.61,2.18,1.76-.58,3-2.06,4.39-3.24a16.37,16.37,0,0,0,4-5.1A9.47,9.47,0,0,0,82.05,62.3Z"/><path class="cls-58" d="M60.86,60.92c-.8.81-1.9.92-2.87,1.47a8.53,8.53,0,0,0-2.91,2.82c-1,1.5-1.86,4.08-.15,5.33.36-.4.32-1.28.39-1.8a9.53,9.53,0,0,1,.54-2.33,5.59,5.59,0,0,1,2.47-3.11c1.05-.5,2-.24,2.8-1.2.3-.37.62-.74.9-1.11s.4-1,.71-1.19Z"/><path class="cls-58" d="M64.94,62.16c-.36,2.64-2.24,4.58-2.59,7.2A18.41,18.41,0,0,0,62,73.79c.11,1,.09,2.16,1.23,2.29-.71.29-2.19-.72-2.8-1.1a6.93,6.93,0,0,1-1.27-.83c-.35-.37-.44-1-.82-1.28-.69.81-1.13-.87-1.11-1.31a8.87,8.87,0,0,1,1-3.74c.76-1.52,1.21-3.33,2.92-3.95.14.44-.33,1.49.06,1.81s.93-.64,1.12-1a13.13,13.13,0,0,1,1.85-2.85Z"/><path class="cls-58" d="M75,66.9a5.37,5.37,0,0,1,.36,1.18,13.62,13.62,0,0,1,.1,6c-.2-.17-.34-.5-.59-.63-.43.74-.61,4.29-2.21,3.69,0-1,.35-1.84.48-2.79,0-.34.19-1,0-1.27-.42-.57-.51-.08-.94.14-1.18.6-1.26-.3-1.11-1.34s.43-2.46-.66-3.24c-.41-.29-.76-.34-1-.85a7.28,7.28,0,0,1-.19-2c-.12-.87-.51-1.68-.6-2.56,0-.44-.55-1.78-.22-2s.63.21.79.57c.25.54,1.22,2,1.31.52,0-.26-.37-.86.07-1s1.76,1.83,2,2.18A17.89,17.89,0,0,1,75,66.9Z"/><path class="cls-58" d="M75.31,61.06c1.06.46,2,2,2.58,3a9.91,9.91,0,0,1,1.32,3.73c.12.74.43,3,.89,1,.24-1-.88-2.32-.48-3.16.58-1.25,1.34,1.17,1.9,1.18,1,0,0-2.15-.22-2.56a12.76,12.76,0,0,1-1-1.39c-.11-.29-.24-.37-.13-.71s.46-.33.51-.5c.18-.66-1.16-1.86-1.63-2.21a12.12,12.12,0,0,0-3.28-1.9c-.43.84,1.15,1.44,1.56,2,1.1,1.49-1.26.53-1.81.6,0,.19-.16.35-.19.42Z"/><path class="cls-58" d="M63.24,55.27A5,5,0,0,0,62,55.08c-.44.05-.85.11-1.3.19a12.69,12.69,0,0,0-2.29.87,12.31,12.31,0,0,0-4.11,2.13,6,6,0,0,0-1.49,1.89c-.17.42,0,.66-.12,1.05s-.58.71-.82,1A8.65,8.65,0,0,0,49.81,67a6.47,6.47,0,0,0,.72,3c.3.62,1.25,2,2,2,.36-.86-.43-1.81-.65-2.6a5.55,5.55,0,0,1-.1-2.66,11,11,0,0,1,2.64-5.26,14,14,0,0,1,4.35-3.05,4.18,4.18,0,0,0,1-.55c.33-.3.3-.82.61-1.07.59-.49,1.49-.25,2.14-.76a10.16,10.16,0,0,1,.79-.7Z"/><path class="cls-58" d="M71.8,55.68c.45,1.23-.43,1.13-.72,2,.47.18.75-.12,1.2-.09.14.76-.59.82-.76,1.37a1.2,1.2,0,0,0,1-2.13Z"/><path class="cls-52" d="M69.92,58c-1.07-.32-1.93,0-3-.63-.71-.43-1.68-1.11-2.5-.94s-1.63.84-2.49,1.11A11.18,11.18,0,0,0,59.14,59c-1.93,1.28-4.26,2.07-5.77,3.83A8.1,8.1,0,0,0,51.47,69,3.49,3.49,0,0,0,52.6,71.1c.54-2.17-.21-4.35,1.19-6.26a14.54,14.54,0,0,1,4.72-4.38c1.84-1,3.6-2.13,5.62-2.35,1.21-.13,1.67.72,2.76.9a5.33,5.33,0,0,0,2.74-.64,1.49,1.49,0,0,1,1.55.05Z"/><path class="cls-52" d="M74,60.88a33.81,33.81,0,0,1,2.2,2.59c1.71,2.52,2.3,5.57.74,8.3-.33-.62.08-2.06,0-2.81a10.82,10.82,0,0,0-.66-3,16.06,16.06,0,0,0-3.77-4.62,6.37,6.37,0,0,0-4-1.82c-1.06,0-1-.72-1.72-1.13s-2.18.14-2.47-.87c1.12-.32,2.27.38,3.33.56,1.29.22,1.82-.19,3,.64S73.13,59.82,74,60.88Z"/><path class="cls-52" d="M64.71,56.75c1,1.72,4.58-.1,6-.34,1.12-.2,1.81-.69,3.08-.4a4.83,4.83,0,0,1,2.78,1.41c-1-.52-7.36-2.14-7,.62,1.14.84,3.14.15,4.5.54,1,.27,3.23,1.17,3.64,2.15-.56.05-1-.49-1.47-.74a4.3,4.3,0,0,0-1.64-.45c-1.26-.17-2.44-.6-3.7-.77s-2.52-.26-3.74-.51-2-1-3.12-1.22Z"/><path class="cls-52" d="M65.42,55.55c-.23.68,1.18,1.12,1,1.93-.56.26-1.31-.37-1.89-.5a9.76,9.76,0,0,0-2.09,0c-1.15,0-3.2-.33-4,.78a20.23,20.23,0,0,1,2.69,0c-.14.57-2,1.23-2.54,1.64-.76.53-2.09,1.12-2.52,2,1.81.16,4-1.62,5.53-2.41a6.17,6.17,0,0,1,2.55-1.07c.79,0,2.46.34,2,1.43s-1.93.91-2.66,1.4c-.89.6-1.09,1.58-2.12,2-1.72.77-4.4,2.61-4.2,4.92.77.26,1.56-1,2-1.41a26.57,26.57,0,0,1,2.47-1.9,17.39,17.39,0,0,0,1.95-1.57c.64-.61,1.08-1.35,1.69-2,.38-.4,1.55-1.66,1.94-.92.26.51-.3,1.91-.44,2.41-.65,2.26-1.52,5-1,7.37.65-.16.5-1.33.62-1.87.19-.89.38-1.77.5-2.69.18-1.27.37-2.49.64-3.72s.37-2.49,2-2c1.06.34,1.32,1.56,2.22,2.1,0-.57-.53-1-.72-1.47.9-.12,1.32,1,2.07,1,.07-1-2.11-1.61-2.79-1.77-1.19-.28-2.31-.13-2.81-1.38A5.26,5.26,0,0,0,67,56.41C66.86,56.29,65.54,55.19,65.42,55.55Z"/><path class="cls-58" d="M72.07,63.63c.21,1.52-.67.89-1.18,0-.18-.31-.83-1.67-1.26-1.59-1.07.2.24,4.84.26,5.55a6,6,0,0,1-2.12,4.93c-.86-.67-.29-2.46-.16-3.42a24.84,24.84,0,0,0,.29-4,17.93,17.93,0,0,1-.07-3.29c.2-1.48.44-2.78,2.21-1.84C71.3,60.6,71.88,62.27,72.07,63.63Z"/><path class="cls-58" d="M73.77,62.68c1.42,1.59,2.54,2.65,3,4.78a16.25,16.25,0,0,1,.15,5.66,6.23,6.23,0,0,1-1,2.89c-.4.56-1.57,1.92-2.36,1.76.09-1.82.68-3.54.29-5.31-1.29-.57-1.23,1.57-1.34,2.29a4.93,4.93,0,0,1-1.62,2.91c-1.26,1.09-1.06-.63-1.07-1.57,0-.42.23-1.09-.2-1.34-.6-.37-1,.34-1.26.75s-1,2.43-1.5,1.11c-.12-.31.3-1.35-.07-1.57-.19-.12-.87.42-1,.6-.67.83-.54,2.39-2,1.31a5.85,5.85,0,0,1-2-2.74,7.89,7.89,0,0,1-.09-3.42c.11-.69,1.09-2.6.53-3.06-1.41-1.15-2.15,4.91-2.59,5.51-.64.07-.92-1.44-.92-1.93-1.14.5-1.87-.32-1.62-1.42a8.88,8.88,0,0,1,1.32-2.67,17.58,17.58,0,0,1,4-4c.73-.59,1.44-1.14,2.14-1.76s1.24-1.7,2.1-2.09c2.15-1,.15,4,0,4.69-.33,1.57-1.22,4.32-.34,5.7.55-.72.39-1.78.59-2.64s.51-1.76.73-2.65a15.45,15.45,0,0,0,.54-2.82c.07-1.5-.18-2.85,1.82-2.07A10.48,10.48,0,0,1,73.77,62.68Z"/><path class="cls-58" d="M70.59,58.86c1.21.89,2.75,1.34,3.87,2.4A11.8,11.8,0,0,1,77,65.12a9,9,0,0,1,.6,4c0,.68-.36,3.95.76,3.89a7.78,7.78,0,0,1,.44-1.89c.41-.78.9-.53,1,.25,1,0,1.17-1.56,1.34-2.29.25-1.06.91-1.77,1-2.88a6.68,6.68,0,0,0-1.7-5.06c-2.57-3-6.7-4.9-10.59-4-1.5.36-.05,1,.78,1s1.75.06,2.61.09c1.23.06,4.07.56,4.6,1.79a21.33,21.33,0,0,1-3.68-.64c-.6-.13-3.26-1-3.66-.34Z"/><path class="cls-58" d="M70,56.51c-.66.21-2.19,1-2.76.45-.15-.14-.09-.42-.21-.56s-.51-.31-.6-.47c-.31-.56,0-.72.64-.84.22-.05.47,0,.69,0s.51-.24.63-.25c.64,0,.85.37.7,1a28.87,28.87,0,0,1,3-.66C73.41,56,70.32,56.4,70,56.51Z"/><path class="cls-58" d="M64.35,56.43a13.68,13.68,0,0,0-2.22,0c-.8,0-4.13-.08-4.21,1.11,1,.22,1.88-.15,2.74,0,1.57.28-.65.79-1.14.93a12.11,12.11,0,0,0-3.74,2.38A10.4,10.4,0,0,0,52.27,65c-.43,1-1.47,5.25.26,5.66.48-2,.32-4.43,1.37-6.23a11.89,11.89,0,0,1,4.43-4.22A12.42,12.42,0,0,1,61,59.09c.81-.26,1.5-.81,2.27-1.07s2.44-.06,2.83.58c.56.93-1,1-1.55,1.4A23.27,23.27,0,0,0,62,62.18c-.92.8-1.94,1.52-2.88,2.31a6.66,6.66,0,0,0-1.64,2.83c-.37,1.12.22,2-.47,3.06-1.41,0-.73,1.47-1.95,1.7a4.59,4.59,0,0,1-2.92-.73,5.57,5.57,0,0,1-1.91-5A7.86,7.86,0,0,1,53,61.09a13.91,13.91,0,0,0,1.92-1.58c.34-.38.36-.81.62-1.17s.71-.49,1.16-.75c1.16-.69,1.91-1.93,3.24-2.33,1.79-.52,6.13-1.1,6.27,1.91C65.5,57.19,65,56.58,64.35,56.43Z"/></g><path class="cls-52" d="M19.51,73.55c-.81,0-.37,9.84-.52,11.74-.33,4.32.11,8.75.1,13.2,0,3.71.19,8,3.27,10.24,2.47,1.81,7.17,4.53,10.19,4.48,1-3.56-7-4.31-5.79-8.32,2.64-.36,4.42.71,4.22,3.67,4.37,1.14,2.93-4.32,5.77-4.53.93,2.14.27,4.45.51,6.71.37,3.47,2.33,2.78,3-.42.43-2.13-.21-4.59,0-6.76.19-2.42.94-4.8,1.29-7.19.24-1.69,1.77-13.31-1.17-11.32s0,11.21-4.26,11.69c-.2-2.07.81-7.23-.59-8.83-2.32-2.66-3.8,3.33-4.21,5-4.7-.87-2-8.13-2.89-11.36-1.74-6.45-3.86,4.82-5.84,5-.44-4.58,2.14-8.4-.07-12.2Z"/><path class="cls-52" d="M75.36,103.07c3.4,1.1,2.13-5.63,4.92-5.79,1.64,3-.65,8.22-.36,11.77.32,3.94.17,8.17.51,12.19,4.72,1.59,1.35-10.83,6.62-9.58.57,1.57.15,5.08.9,6.28,1.91,3.09,3.41-2.06,3.73-3.5.43-1.93.23-6.24,2.29-7.4,2.94-1.65,2.46,2.25,2.45,4.12,0,1.58-.68,5.47.52,6.68,1.76,1.78,3.17-.49,3.71-2,1.09-3.1,1-11.64,5.41-12.21.92,1.64.26,8.53,3.38,7.46,2.21-.76,2.78-6.6,3-8.37.93-6.35,1.72-14.09,1.21-20.64-7.7-1,.42,12.55-9.17,11.28-.31-1.81-.45-7.46-2.69-6.82-3.32,1-.75,6.79-2.43,8.5-2.68,2.74-4.37-2.46-5.82-3.42-3.23-2.13-3.82,2.5-4.43,4.76-.69,2.56-2.39,5.76-3.62,1.6-.79-2.66.34-5.55-.83-8-2.79-5.89-2,3.26-4.49,3-1.77-.2-.73-4.16-3.2-.11C75.28,95.64,75.09,99.86,75.36,103.07Z"/><path class="cls-52" d="M93,83.27c-.21,4.3-19.12,4.88-22.91,5.47a43.28,43.28,0,0,1-10.9.43c-1.51-.13-9.38-.79-10,.53-1.74,3.36,20.07,5,22.31,5.8,6,2.16-2.53,4.26-5.07,4.25s-8.84-1.1-10.68.74c-3.13,3.13,2.76,3.5,4.76,3.49,2.67,0,6.73-.52,9,.74,3.91,2.18-.07,4.13-2.64,4.33-3.2.24-6.28-.58-9.38-.84-4-.34-7.86-.28-11.75-.86-1-.14-3.78-.89-4.66-.44-1.71.88-.68,2.78.43,3.85,3.54,3.44,19.32,1.52,19.82,6.76-3.16,2.43-8.73,1.43-12.21.31-1.61-.51-10.43-1.7-6.77,2.12,2.17,2.26,8.73,2.23,11.52,2.63A90.35,90.35,0,0,0,66.4,123c9.15,0,17.32-.15,25.89-3.7A42.28,42.28,0,0,0,104,112.53c2.62-2.22,6.92-4.65,7.62-8.12a8.87,8.87,0,0,0,.34-2.06c-3.27-.27-7.54,3.29-10.6,4.49-3.5,1.38-8.09,1.46-11.22,3-.52-3.62,6-6.67,8.78-7.66a30.33,30.33,0,0,0,11.11-6.56c2-2,5.34-8.49-.12-7.63-4.9.78-9.23,4.31-14.3,4.5-1.08-5,5.1-6.33,8.29-8.37,2.36-1.5,9.16-5.33,8.49-8.82-3.07-.77-8.6,3-11.36,4.26-3.25,1.49-7.15,3.49-10.55,4.12Z"/><path class="cls-52" d="M112.06,61.3c-.66,5.76-7.74,11.55-12.35,14.27-5.72,3.38-12,4.82-18,6.37,1-1.85,3.92-2.81,5.71-3.63-3-1.75-8.29.78-11.27,1.9a28.54,28.54,0,0,1-12.26,2.21c-5.41-.43-19.46-1.3-22.35-7.07,2.67-1.83,7.24.29,10,.76,3.08.53,8.72,1.39,11.48-.42-.75-2.41-6.21-2.11-8.29-2.15,3.11,1.13,6.84.14,10.12.42,3.1.28,6.48,1.06,9.62.87,5.33-.32,11.29-2.13,16.48-3.41,6.95-1.72,19.94-9.51,20.26-18,2,2.39-1.78,8.5-2.09,11.26Z"/><path class="cls-52" d="M22.47,49.89c.8,2.09.58,4.52,1.17,6.76a18,18,0,0,0,3.16,5.82,35.94,35.94,0,0,0,5.93,6.33c1.53,1.25,4.36,2,5.33,3.82-2.11.59-7.87-4.42-8.42-1.19-.38,2.24,4.11,4.67,5,6.69-2.2.57-8.12-2.88-9.59-4.59a40.68,40.68,0,0,1-4.62-7.68c-1.75-3.36-3.1-6.09-2.65-10,.25-2.16,2.23-6.64,4.65-7.18Z"/></g></g></g></svg>