<svg xmlns="http://www.w3.org/2000/svg" viewBox="0 0 75.63 68.12"><defs><style>.cls-1{isolation:isolate;}.cls-2{fill:#402c1b;}.cls-3{fill:#d9ba98;}.cls-4{fill:#f2ddc6;}.cls-5{fill:#4a7006;}.cls-6{fill:#649015;}.cls-7{fill:#7eb023;}.cls-8,.cls-9{fill:#aab3b8;mix-blend-mode:multiply;}.cls-8{opacity:0.3;}.cls-9{opacity:0.5;}.cls-10{fill:#fdf4dc;}</style></defs><title>Asset 2</title><g class="cls-1"><g id="Layer_2" data-name="Layer 2"><g id="Layer_1-2" data-name="Layer 1"><path class="cls-2" d="M15.55,28.27c-6.85,3.95-12.23,6-14,2.93A9.89,9.89,0,0,1,.42,25a2.55,2.55,0,0,0,.31,1c1.47,2.54,7.2,2,12.8-1.25s9-7.91,7.48-10.45a2.44,2.44,0,0,0-.7-.77c1.87.88,3.41,3.55,4.13,4.8C26.23,21.46,22.39,24.32,15.55,28.27Z"/><path class="cls-3" d="M25.69,17.29C28.43,22,25.12,29.08,18.29,33S3.7,36.31,1,31.56A8.15,8.15,0,0,1,.44,25,6.05,6.05,0,0,0,1,26.47c1.56,2.69,5.08,3.78,9,3.12L5.51,23.43a1.52,1.52,0,0,1-.48-.5C4.18,21.46,6,18.74,9,17s6.29-2,7.14-.5a1.5,1.5,0,0,1,.2.66l3.09,7c2.51-3,3.34-6.62,1.78-9.32a5.8,5.8,0,0,0-1-1.24A8.12,8.12,0,0,1,25.69,17.29Z"/><path class="cls-4" d="M26.16,24a17.1,17.1,0,0,1-7.87,9C11.46,37,3.7,36.31,1,31.56a7.41,7.41,0,0,1-.95-4,6,6,0,0,0,.54,1.32c1.56,2.69,6.43,3,10.31,2.34L9.7,29.63l.29,0L5.54,23.48c-.13-1.27.69-2.73,3-4.08,3-1.74,6.3-2,7.15-.5a1.63,1.63,0,0,1,.19.66l3.09,7a10.33,10.33,0,0,0,2.57-6,7.58,7.58,0,0,0,.38-3.79,7.4,7.4,0,0,1,3.27,3A7.5,7.5,0,0,1,26.16,24Z"/><path class="cls-2" d="M40.78,6.94c-5.92-3.4-10.66-5-12.56-1.71a12.23,12.23,0,0,0-1.55,6.35,3.45,3.45,0,0,1,.38-1c1.56-2.71,6.75-2.65,11.59.13s7.5,7.23,6,9.94a3.61,3.61,0,0,1-.71.85c1.78-1.07,3.41-3.91,4.18-5.25C50,12.9,46.7,10.34,40.78,6.94Z"/><path class="cls-3" d="M49.12,17.19C52,12.11,49.6,5.25,43.7,1.86s-13.05-2-16,3.05a9.58,9.58,0,0,0-1,6.69,7.37,7.37,0,0,1,.66-1.53,8.6,8.6,0,0,1,8.46-4l-4.63,6.66a2.29,2.29,0,0,0-.48.55c-.9,1.57.55,4.17,3.16,5.67s5.59,1.44,6.49-.13a2.08,2.08,0,0,0,.23-.69L44,10.81a8.59,8.59,0,0,1,.84,9.3,7.87,7.87,0,0,1-1,1.34A9.6,9.6,0,0,0,49.12,17.19Z"/><path class="cls-4" d="M50.11,10.32A13.13,13.13,0,0,0,43.7,1.86c-5.91-3.39-13.05-2-16,3.05a9.35,9.35,0,0,0-1.21,4.15,6.6,6.6,0,0,1,.61-1.39c1.65-2.88,6.13-3.63,9.62-3.3l-1.2,1.72h.27l-4.59,6.6c-.23,1.31.4,2.72,2.41,3.87,2.62,1.5,5.59,1.45,6.49-.12a2.16,2.16,0,0,0,.23-.69L43.78,8.4a9.39,9.39,0,0,1,1.83,5.87,8.22,8.22,0,0,1,0,3.82,9.19,9.19,0,0,0,4.47-7.77Z"/><path class="cls-5" d="M75.55,52.35c.29-4.75-.07-10-3.67-13.49A13,13,0,0,0,65,35.51c-2.9-.47-5.83.28-8.73.48a.61.61,0,0,0-1,0h-.11a3.81,3.81,0,0,0-.69-.6c-.3-.23-.6-.44-.87-.68a.33.33,0,0,0,.09-.24,11.22,11.22,0,0,0-9.23-10.66c-5.06-1-15.28,4.47-15,5,2.13,3.74,6.91,5.59,10.85,6.58s8.35,1.35,12.12-.08a4.63,4.63,0,0,0,.92.71c.34.22.69.42,1,.65.18.12.43.2.64.31-.84,4.08.21,8.61,4.33,10.51,2.78,1.29,5.85,1.71,8.67,2.9,2.2.93,4.47,2.44,6.93,2.52A.6.6,0,0,0,75.55,52.35Z"/><path class="cls-6" d="M62.06,35c1.37-3,.85-7.06,0-10.32,0-.48.08-.89.12-1.22a.78.78,0,0,0-1.31-.59,49.67,49.67,0,0,0-6.12,6.1c-1.17,1.57-2.1,4-1.23,5.84a2.38,2.38,0,0,0-.39.45.5.5,0,0,0-.08.27c-2.22-1.48-5.13.44-6.55,2.19a13.19,13.19,0,0,0-3.09,8.36.74.74,0,0,0,.9.73,25.38,25.38,0,0,0,10.49-4c1.13-.83,2.27-1.92,2.29-3.42a3.45,3.45,0,0,0-1.8-2.77.87.87,0,0,0,.16-.17l.14-.18a.56.56,0,0,0,.07-.16,4.55,4.55,0,0,0,.94.32C58.61,37.21,61,37.27,62.06,35Z"/><path class="cls-6" d="M71.45,41.88a1.6,1.6,0,0,0,1.27,1.78,1.56,1.56,0,0,0,1.56-.52A10.52,10.52,0,0,0,72.69,40a6.81,6.81,0,0,1-.44.62l-.13.13A1.6,1.6,0,0,0,71.45,41.88Z"/><path class="cls-6" d="M67.13,39.83a1.88,1.88,0,0,0,3.16.56A5,5,0,0,0,71,38.25a11.34,11.34,0,0,0-3.57-1.89C67.1,37.51,66.73,38.93,67.13,39.83Z"/><path class="cls-6" d="M69.2,49.5a9.71,9.71,0,0,0,1.1-2.9l0-.08a.51.51,0,0,1,0-.13,1.72,1.72,0,0,0-.53-1.79,1.1,1.1,0,0,0-.25-.17l-.08-.06a2.39,2.39,0,0,0-.83-.23h-.49l-.16,0c-.1,0-.21,0-.31.06h0a2.2,2.2,0,0,0-.77.37l-.07.07a1.52,1.52,0,0,0-.22.22,1.71,1.71,0,0,0-.2,1.85,4.08,4.08,0,0,1,0,1.68c.62.2,1.23.41,1.83.67C68.59,49.21,68.89,49.36,69.2,49.5Z"/><path class="cls-6" d="M64.15,47.75c.66-1,1.25-2,1.84-3,1.6-2.8-3.71-4.84-4.39-1.34-.21,1.07-.27,2.24-.39,3.39A26,26,0,0,0,64.15,47.75Z"/><path class="cls-6" d="M63,35.8a3.85,3.85,0,0,0-.12.49,1.66,1.66,0,0,0,3.14,1,2.91,2.91,0,0,0,.3-1.2l-.73-.14A11.84,11.84,0,0,0,63,35.8Z"/><path class="cls-6" d="M72.3,48.34a1.73,1.73,0,0,0-2.47,1.47A18.58,18.58,0,0,0,73,51.09,1.84,1.84,0,0,0,72.3,48.34Z"/><path class="cls-6" d="M59,45.45c.81-1.05,1.54-2.17,2.18-3.1a2.36,2.36,0,0,0-.3-3.27L60.7,39A2.34,2.34,0,0,0,57,41.19c0,.24-.1.46-.14.69A7,7,0,0,0,59,45.45Z"/><path class="cls-6" d="M42.5,26.65a1.83,1.83,0,0,0,2.91.13A3.23,3.23,0,0,0,46,24.57a11.7,11.7,0,0,0-1.74-.5,7.83,7.83,0,0,0-2.52,0A19.87,19.87,0,0,0,42.5,26.65Z"/><path class="cls-6" d="M49.56,35a1.7,1.7,0,0,0,0-.22,2.18,2.18,0,0,0-2.31-2.5c-1.44.17-2.44,1.51-3.06,2.93A17.94,17.94,0,0,0,49.56,35Z"/><path class="cls-6" d="M35.64,32.79a19,19,0,0,1,1.49-1.3c1.54-1.18.25-4.12-1.63-3.16a13.13,13.13,0,0,0-3.25,2.18A13.27,13.27,0,0,0,35.64,32.79Z"/><path class="cls-6" d="M47.72,25.4c0,.08.05.71.05.94,0-.22-.2,1.08-.12.83a2.58,2.58,0,0,0,1.25,3.34,2.44,2.44,0,0,0,2.81-.58A9.76,9.76,0,0,0,47.72,25.4Z"/><path class="cls-6" d="M35.08,26.41a4.87,4.87,0,0,1,1.21.21,5.22,5.22,0,0,0,1.64.56,1.91,1.91,0,0,0,2-2.79,30.91,30.91,0,0,0-5.39,1.92C34.69,26.35,34.88,26.39,35.08,26.41Z"/><path class="cls-6" d="M42.17,29.58c-1.8.58-3.4,2.38-4.56,3.79-.06.06-.11.13-.16.19a29,29,0,0,0,3.07.95c.26.07.53.12.8.18A17.75,17.75,0,0,1,43.93,33C45.94,31.9,44.17,28.94,42.17,29.58Z"/><path class="cls-6" d="M74.68,44.74h0a1.69,1.69,0,0,0-1.51,1.8A1.63,1.63,0,0,0,75,48,19.81,19.81,0,0,0,74.68,44.74Z"/><path class="cls-7" d="M47.69,40.73a2.34,2.34,0,0,0-2.07-.84,11.47,11.47,0,0,0-1.35,4.59,5.19,5.19,0,0,0,1.66-.91l.14-.06.33-.18s0,0,.15-.06a2.34,2.34,0,0,0,1.06-.77A1.47,1.47,0,0,0,47.69,40.73Z"/><path class="cls-7" d="M54.35,30.08a5.75,5.75,0,0,0-.91,4.26,3,3,0,0,0,3-.91,1.56,1.56,0,0,0,.09-1.89,3.59,3.59,0,0,0-1.2-1,3,3,0,0,0,1,.22,2,2,0,0,0,2-3c-.1-.15-.41-.66-.49-.75L57.71,27a5.64,5.64,0,0,0,.62.21c1.36.38,2.42-1,2.39-2.22a2,2,0,0,0-.35-1.09,45.57,45.57,0,0,0-5.6,5.6c-.14.19-.27.39-.4.59l.15.11Z"/><path class="cls-7" d="M60.31,26.48a1.07,1.07,0,0,0,.29,1.25,1.92,1.92,0,0,0,1,.42,2,2,0,0,0-1.48.45,1.74,1.74,0,0,0-.68,1.94A2.1,2.1,0,0,0,61,31.93a6.71,6.71,0,0,1,1.19.26,20.08,20.08,0,0,0-.68-6.71v0A2.2,2.2,0,0,0,60.31,26.48Z"/><path class="cls-7" d="M49.87,44c-.56-1-1.86-1.61-2.77-.72a.81.81,0,0,0-.15.82c0,.1.15.57.11.29a6.35,6.35,0,0,0,.28,1s0,.11,0,.17a24.7,24.7,0,0,0,2.82-.87C50.1,44.43,50,44.2,49.87,44Z"/><path class="cls-7" d="M49.29,40.09a1.64,1.64,0,0,0,1.18-2.51,2.4,2.4,0,0,0-.51-.64L50,37a5.84,5.84,0,0,0,1.66.62,1.62,1.62,0,0,0,1.84-1.71,2,2,0,0,0-.15-.73l-.11.15a.35.35,0,0,0-.08.24c-1.38-.91-3-.42-4.38.5a2.65,2.65,0,0,0,.21.26l-.36-.16a7.9,7.9,0,0,0-1.54,1.43A15.41,15.41,0,0,0,46,39.16l.52.16C47.41,39.62,48.33,40.28,49.29,40.09Z"/><path class="cls-7" d="M50,41a1.09,1.09,0,0,0,.3,1.31,1.78,1.78,0,0,0,.45.24c.06.1.13.22,0,0,.09.18.17.35.25.53s.23.67.35,1a18.53,18.53,0,0,0,2.95-1.61C53.43,40.74,51.08,39.19,50,41Z"/><path class="cls-7" d="M52.85,38.94a1.16,1.16,0,0,0,.86,1.61h.06l0,.07c.21.26.44.5.64.77a2.92,2.92,0,0,1,.38.85,4.19,4.19,0,0,0,2.1-3.14,2.3,2.3,0,0,0,0-.45l-.09-.09C55.73,37.57,53.58,37.57,52.85,38.94Z"/><path class="cls-7" d="M59.18,34.56c.38.39.71.79,1.11,1.17a2,2,0,0,1,.36.46,3,3,0,0,0,.87-1.14,8.72,8.72,0,0,0,.56-1.86A11.09,11.09,0,0,0,60,32.81,1,1,0,0,0,59.18,34.56Z"/><path class="cls-8" d="M52,61.61c1.67-5.39-2.84-11.56-10.06-13.8s-14.43.33-16.1,5.71,2.84,11.56,10.07,13.79S50.34,67,52,61.61Z"/><path class="cls-9" d="M70.48,49.92c1-2.51-3.45-6.58-9.9-9.1s-12.46-2.53-13.44,0,3.45,6.58,9.9,9.1S69.5,52.42,70.48,49.92Z"/><path class="cls-3" d="M47.32,47.61a20.49,20.49,0,0,0-6.1-3.34c-1.45-.56-3.65-1.48-5.42-1.31l-.15-.77c0-.44-2.44-11.57-2.52-16.57a1.38,1.38,0,0,0-1.29.05,4.4,4.4,0,0,0-.51.18L31,26a18.54,18.54,0,0,0-2.16.5,1.47,1.47,0,0,0-1,1.05c.29,1.52,3,13.83,3.34,17.19-3,0-6.75,2.55-8.61,4.16A8.09,8.09,0,0,0,20.78,59a5.25,5.25,0,0,0,4.52,2.61,5.63,5.63,0,0,0,.88,1.73A6.86,6.86,0,0,0,31,65.81,10.31,10.31,0,0,0,38.44,63a4.42,4.42,0,0,0,4,.85c2,0,3.9-1.62,4.76-3.26a5.69,5.69,0,0,0,.6-3.24,5.13,5.13,0,0,0,1.59-1.21C51.8,53.46,49.58,49.55,47.32,47.61Z"/><path class="cls-4" d="M42,45.8c-1.68-.68-3.35-1.37-5-2.09A9.68,9.68,0,0,0,34.79,43a52.44,52.44,0,0,1-1.5-6.93c-.62-3.4-1-6.9-1.9-10.23l-.06,0L31,26a18.54,18.54,0,0,0-2.16.5c-.48.13-.42.48-.56,1,.29,1.53,3.27,14.16,3.65,17.51-3,0-7.06,2.73-8.92,4.34a7.12,7.12,0,0,0-2.63,7,2.9,2.9,0,0,0,2.84-1c1.62-1.46,2.89-3.2,4.55-4.64.73-.62,1.42-1.2,2-1.81a15.69,15.69,0,0,1-1.49,2.66c-1.29,1.9-3.43,4.49-3.25,7,.28,3.92,4,6.27,7.4,3.55,1.84-1.49,2.29-3.44,2.54-5.7A29.84,29.84,0,0,0,35.19,52c1.85,4.57,5.09,11.46,8.09,7.5,1.59-2.09,0-5.33-1.24-7.18L42,52.18h.11c1.5.14,3.55-.16,3.81-2C46.2,48,43.74,46.51,42,45.8Z"/><path class="cls-10" d="M34.5,44.61a2.57,2.57,0,0,0-.72-.4c-.16-.33-.32-.67-.49-1-.08-.17-.17-.36-.27-.55A40.55,40.55,0,0,0,32.19,38a64.28,64.28,0,0,0-2.77-10.31c-.05-.12-.25-.11-.24,0a62.05,62.05,0,0,0,1.21,8,73.93,73.93,0,0,0,1.34,7.61c.05.66.07,1.31-.29,1.56l-.23.09a.58.58,0,0,0,.31,1.11.42.42,0,0,0,.12,0h0a.67.67,0,0,0,1.3.18.14.14,0,0,0,0-.06.7.7,0,0,0,1-.46C34.49,45.79,35,45,34.5,44.61Z"/><path class="cls-10" d="M29.06,46.36c-1.8-.32-3.59,1-5,2.07s-3,2.35-3.15,4.27c-.17,1.71,2.51,1.7,2.68,0,.11-1.16,1.44-2.32,2.2-3.1.46-.46.93-.91,1.38-1.39a24.94,24.94,0,0,1,1.91-1.66A.11.11,0,0,0,29.06,46.36Z"/><path class="cls-10" d="M32.05,48.32a.48.48,0,0,0-.25-.22.34.34,0,0,0-.22-.05h0a.7.7,0,0,0-.46.26,4.3,4.3,0,0,0-.63,1.37,22.33,22.33,0,0,0-2.66,6.54c-.27,1.22-.33,3.32,1.51,3,1.21-.23,2-2.28,2.36-3.27.51-1.41.16-3,.37-4.43C32.19,50.36,32.65,49.35,32.05,48.32Z"/><path class="cls-10" d="M43.91,48.08a7.43,7.43,0,0,0-3.26-2,19.62,19.62,0,0,0-2.14-.66c-.75-.17-1.5-.08-2.24-.25a.13.13,0,0,0-.1.24c.53.34.84.87,1.36,1.22a11.85,11.85,0,0,0,1.67.93,8.25,8.25,0,0,1,3.11,2.07C43.19,50.8,44.85,49.19,43.91,48.08Z"/><path class="cls-10" d="M41.09,54.52a30.43,30.43,0,0,0-3-4c-1-1.14-1.8-2.66-3.19-3.32a.33.33,0,0,0-.48.38c.58,2.58,2.35,4.65,3.76,6.84.14.45.28.89.41,1.34a1.34,1.34,0,0,0,1.29,1,1.34,1.34,0,0,0,1.33-1.22A1.13,1.13,0,0,0,41.09,54.52Z"/></g></g></g></svg>