<svg xmlns="http://www.w3.org/2000/svg" xmlns:xlink="http://www.w3.org/1999/xlink" viewBox="0 0 127.61 107.76"><defs><style>.cls-1{fill:#88ae1a;}.cls-2{fill:none;}.cls-3{fill:#ea2e25;}.cls-4{isolation:isolate;}.cls-5{clip-path:url(#clip-path);}.cls-6{fill:#458750;}.cls-12,.cls-7{fill:#47654d;}.cls-8{fill:#1c652e;}.cls-9{fill:#1d5b27;}.cls-10{clip-path:url(#clip-path-2);}.cls-11{fill:#97b723;}.cls-12{opacity:0.32;}.cls-12,.cls-23{mix-blend-mode:multiply;}.cls-13{fill:#91c19d;opacity:0.64;}.cls-13,.cls-22{mix-blend-mode:soft-light;}.cls-14{fill:#334a04;opacity:0.29;mix-blend-mode:overlay;}.cls-15{opacity:0.35;}.cls-16{fill:#fff;}.cls-17{clip-path:url(#clip-path-5);}.cls-18,.cls-22{fill:#efffe9;}.cls-19{fill:#387746;}.cls-20{fill:#f44d4d;opacity:0.65;}.cls-21{clip-path:url(#clip-path-6);}.cls-22{opacity:0.3;}.cls-23{fill:#d8a8a7;opacity:0.34;}.cls-24{fill:#db1616;}.cls-25{fill:#4c0000;}.cls-26{opacity:0.16;}.cls-27{opacity:0.39;}.cls-28{opacity:0.38;}.cls-29{opacity:0.51;}</style><clipPath id="clip-path"><path class="cls-1" d="M54.71,12.55c16.86-4.92,36.94-1.48,48.18,12.66,5.45,6.87,8.13,11.47,9.09,20.38,1.2,11.08,1.2,18.37-4.51,28.19C105.59,77,99.09,82.27,96,84.28c-5.5,3.63-12.27,4.29-18.75,4.37a130.2,130.2,0,0,1-22-1.61c-6.09-1-12.21-2.41-17.55-5.63C26.92,75,17.4,56.88,21.38,43.72,26.18,27.83,39.94,16.85,54.71,12.55Z"/></clipPath><clipPath id="clip-path-2"><path class="cls-2" d="M54.71,12.55c16.86-4.92,36.94-1.48,48.18,12.66,5.45,6.87,8.13,11.47,9.09,20.38,1.2,11.08,1.2,18.37-4.51,28.19C105.59,77,99.09,82.27,96,84.28c-5.5,3.63-12.27,4.29-18.75,4.37a130.2,130.2,0,0,1-22-1.61c-6.09-1-12.21-2.41-17.55-5.63C26.92,75,17.4,56.88,21.38,43.72,26.18,27.83,39.94,16.85,54.71,12.55Z"/></clipPath><clipPath id="clip-path-5"><path class="cls-3" d="M94.28,60.4c1.58,16.29-10.52,32.12-26.07,37.24S36,100.94,23,91c-4.19-3.18-9.08-9.65-11.52-14.3-2.09-4-3.07-8.45-4-12.85C36.78,62.85,64.93,61.43,94.28,60.4Z"/></clipPath><clipPath id="clip-path-6"><path class="cls-2" d="M94.28,60.4c1.58,16.29-10.52,32.12-26.07,37.24S36,100.94,23,91c-4.19-3.18-9.08-9.65-11.52-14.3-2.09-4-3.07-8.45-4-12.85C36.78,62.85,64.93,61.43,94.28,60.4Z"/></clipPath></defs><title>Layer 25</title><g class="cls-4"><g id="Layer_2" data-name="Layer 2"><g id="Layer_1-2" data-name="Layer 1"><g id="Layer_25" data-name="Layer 25"><path class="cls-1" d="M54.71,12.55c16.86-4.92,36.94-1.48,48.18,12.66,5.45,6.87,8.13,11.47,9.09,20.38,1.2,11.08,1.2,18.37-4.51,28.19C105.59,77,99.09,82.27,96,84.28c-5.5,3.63-12.27,4.29-18.75,4.37a130.2,130.2,0,0,1-22-1.61c-6.09-1-12.21-2.41-17.55-5.63C26.92,75,17.4,56.88,21.38,43.72,26.18,27.83,39.94,16.85,54.71,12.55Z"/><g class="cls-5"><path class="cls-6" d="M18.87,51.6c1-1.85,2.27-3.51,3.19-5.43,1-2.08,2.09-4.14,3.28-6.11A40.21,40.21,0,0,1,34,30c6.59-5.61,14.25-10.28,22.62-12.64a43.48,43.48,0,0,1,13.42-1.65,44.42,44.42,0,0,1,13.58,3c7.64,2.74,15.66,5.49,20.64,12.31,2.78,3.79,5.14,7.85,8.2,11.44a40.4,40.4,0,0,0,4.61,4.73c2.12,1.78,6.15,2.22,7.11-1.07.85-2.91-1.22-4.56-3-6.38a43,43,0,0,1-4.46-5.08c-2.75-3.77-5-7.87-8.15-11.37-6-6.75-15-9.8-23.33-12.74A48.51,48.51,0,0,0,56.32,9.1c-10.18,2.65-19.27,8.34-27.11,15.24-3.78,3.33-7.35,7.14-9.47,11.77a43.54,43.54,0,0,0-2.56,7.38A34.38,34.38,0,0,0,16.56,47c-.2,1.33-.15,2.61-.28,3.95s1.95,1.83,2.59.7Z"/><path class="cls-7" d="M17.31,58.64c1.87-.51-.56-1.09,1.09-2A52.26,52.26,0,0,0,25,52.13c3.13-2.61,6.82-6.92,10-9.48,5.56-4.47,12-7.09,18.61-10,6.92-3,15.9-4.3,23-2.28,29.89,8.48,40.62,22,45.05,22.27,3.41.22,2.07-3.46.21-5.67-1.43-1.69-3.45-2.5-5.33-3.63S113,41.19,111.35,40c-3.22-2.19-6.33-4.51-9.47-6.81A66.63,66.63,0,0,0,93.7,28c-3.89-2.22-9.87-5.13-14.29-5.62-8.15-.89-16.84-1.24-24.67,1.55C47.23,26.6,40.62,31.21,34.57,36.3c-3.55,3-7,6.1-10.3,9.33a35.88,35.88,0,0,0-5,5.42c-1.3,2-2.77,3.79-3.45,6.06a1.26,1.26,0,0,0,1.53,1.53Z"/><path class="cls-8" d="M18.78,62.22c1.83.44,2-1.07,3.76-1.65s4.75-1.91,6.55-2.58c3.64-1.38,7.81-3.77,11.37-5.34,6.86-3,13.24-3.95,20.7-5.24,6.85-1.19,13.5-.24,20.08,1.82s15,3.51,21.59,5.31a72.86,72.86,0,0,0,14.47,2.07c1.89,0-1.18,1,.71,1s3.94.73,6,.66c2.43-.09,4.74-3,3-5.32a7.63,7.63,0,0,0-5.27-3.24,31.63,31.63,0,0,0-6.15-.31,39.87,39.87,0,0,1-10-.77c-7-1.52-13.49-4.43-20.22-6.69-7-2.36-14.37-3.8-21.82-3-8.1.82-15.72,3.43-23.1,6.78a112,112,0,0,0-12,6.48c-1.85,1.13-3.63,2.41-5.42,3.63s-4.07,2.31-5.09,4.28a1.48,1.48,0,0,0,.88,2.16Z"/><path class="cls-9" d="M21.11,64.64c2.46,2.15,4.29.8,7.46.93,3.53.14,8.59,1.43,12.06.77,6.65-1.26,13.21-3.17,20-3.53,14-.74,29.61,1.12,43.58.86,3.78-.07,10.93-1.82,14.64-2.58,1.76-.36-1.76,2.64-.06,2.06,2-.7,4.28-1.38,5.67-3.09,1.91-2.36.82-6.26-2.6-6.26a14.69,14.69,0,0,0-5,1.34,40.26,40.26,0,0,1-4.6,1.31,46.2,46.2,0,0,1-8.77,1.06,122,122,0,0,1-19.65-1.32C76.93,55.33,70,54.38,63,54.5s-13.7,1.55-20.42,3.24c-3.67.92-7.33,1.9-11,2.67-3.39.7-7.07,1-10.19,2.56a1.07,1.07,0,0,0-.21,1.67Z"/><path class="cls-7" d="M24.09,69.4c1.43,2,4.53,3,6.76,3.95a48.18,48.18,0,0,0,9.5,2.79A105.1,105.1,0,0,0,60,78c12.38.2,25.13.12,37.11-3.41a63.75,63.75,0,0,0,10.3-4.07A23.69,23.69,0,0,0,112,67.38a13.64,13.64,0,0,0,2.2-1.95c.58-.73.77-1.62,1.33-2.35,1.08-1.43,1.06-2-.28-1.82-.71.1-1.83-.28-2.58-.17s.57.94-.17,1.2c-1.66.6-4.27,1.82-5.86,2.59C104,66.16,85.05,69,79.38,69.39c-6,.48-12,.49-18.08.42-6.23-.07-12.47-.21-18.68-.77-3.54-.32-7-.84-10.59-1.23-2.45-.27-6.3-1-7.94,1.39a.18.18,0,0,0,0,.2Z"/><path class="cls-7" d="M24.46,75.24c1.22,3,5.26,4.47,8,5.69,3.42,1.53,6.92,2.81,10.46,4,7.08,2.39,14.56,4.76,22,5.44a65.37,65.37,0,0,0,11.19-.26c3.69-.32,7.38-.66,11-1.2a51.59,51.59,0,0,0,19-6.88,95.44,95.44,0,0,0,9.47-6.66c2.78-2.17,6.74-5,6.85-8.85a2.5,2.5,0,0,0-1.83-2.4c-3.49-.47-6.4,1.91-9,4-2.32,1.86-4.7,3.65-7.18,5.29a46.18,46.18,0,0,1-16.68,7.12,93.38,93.38,0,0,1-9.73,1.23,101.34,101.34,0,0,1-10.45.58,90.07,90.07,0,0,1-20.64-3c-3.86-1-7-.81-10.86-1.72-1.85-.44-4.17-3.49-6.06-3.76s-3.57-.58-5.2.31a.94.94,0,0,0-.43,1.06Z"/></g><g class="cls-10"><path class="cls-11" d="M21,46.77a2.34,2.34,0,0,0-2.4,2c-.11.74.8,1.54,1.42.83,4.51-5.19,11.06-8.06,14.88-14A23.51,23.51,0,0,1,38,31.25a22.74,22.74,0,0,1,5-3.44,54.11,54.11,0,0,1,11-4.74,58.28,58.28,0,0,1,12.58-2.68A38.18,38.18,0,0,1,79,21.77a56.12,56.12,0,0,1,11.09,3.89c3.23,1.65,5.76,4.33,9.14,5.72,1.84.76,3.9,1.2,5.56,2.35s2.55,2.87,3.62,4.44c2.21,3.25,5.17,6.89,9.2,7.73a1.68,1.68,0,0,0,1.62-2.78,34.91,34.91,0,0,0-4-3.91,28.56,28.56,0,0,1-3.86-4.64,19.33,19.33,0,0,0-3-3.71A16.13,16.13,0,0,0,103,28a20.61,20.61,0,0,1-5-2.38c-1.56-1.08-3-2.32-4.66-3.27a48.66,48.66,0,0,0-12-4.45,46.19,46.19,0,0,0-12.53-1.66,53.44,53.44,0,0,0-12.78,2.23,60.91,60.91,0,0,0-12.2,4.62c-3.37,1.75-7,4.06-9.33,7.09-1.27,1.62-2.14,3.5-3.39,5.14a29.72,29.72,0,0,1-4.5,4.54c-3.05,2.63-5.93,5.09-7.94,8.65l1.58.43A2.1,2.1,0,0,1,21.09,47a.15.15,0,0,0-.08-.27Z"/><path class="cls-11" d="M15.9,60.83A86,86,0,0,0,26.33,54.6c3-2,6.18-3.86,9.08-6.05s5.29-4.88,8.52-6.5a53.52,53.52,0,0,1,10.16-3.5A55,55,0,0,1,76,37.11a43.24,43.24,0,0,1,10.87,3,74.92,74.92,0,0,0,10.25,3.77c4.17,1.11,8.31,2.16,12.39,3.58s8,3.33,12.26,4a1.28,1.28,0,0,0,1-2.33c-3.2-2.31-7-3.61-10.65-5a108.14,108.14,0,0,0-11.42-3.48,72.33,72.33,0,0,1-11.19-3.72,47.26,47.26,0,0,0-10.9-3.41,58.69,58.69,0,0,0-22.45.5,52,52,0,0,0-10.55,3.41c-3.47,1.56-5.94,4-8.65,6.59-6.53,6.2-14.82,10.15-21.42,16.25-.32.29.08.72.43.56Z"/><path class="cls-11" d="M18.31,64.54a67.25,67.25,0,0,0,9.87-2.92,88.79,88.79,0,0,0,8.39-3.11c1.39-.64,2.69-1.45,4.06-2.13A16.93,16.93,0,0,1,45.57,55c3.29-.55,6.6-1,9.91-1.41A105.8,105.8,0,0,1,76.15,53c6.63.56,13.24,1.5,19.84,2.29,3.7.45,7.4.91,11.05,1.62s7.11,1.66,10.74,2.23a1,1,0,0,0,.74-1.75c-5.43-3.67-12.43-4.3-18.78-5.13-6.84-.9-13.71-1.74-20.57-2.47a94.19,94.19,0,0,0-21,0c-6.54.76-13.52,1.3-19.23,4.82-6.55,4-14.32,5.19-21.06,8.79-.63.34-.17,1.21.46,1.09Z"/><path class="cls-11" d="M21.8,67c3,1,6.39.9,9.56,1s6.54.27,9.81.31a145.78,145.78,0,0,0,19.82-1,65.42,65.42,0,0,1,9.58-.72c3.26.08,6.51.47,9.77.65,6.3.35,12.84.33,19-1.14,3.49-.83,6.82-2.07,10.35-2.75a70.14,70.14,0,0,1,11.19-1.21.6.6,0,0,0,.16-1.18c-6.29-1.58-12.41.47-18.65,1.25-3.22.4-6.4,1.06-9.64,1.34a88.24,88.24,0,0,1-9.48.32c-6.49-.1-12.87-1-19.34-.11s-13.1,1.7-19.73,2c-3.84.15-7.67.19-11.51.18-3.58,0-7.4-.46-10.91.41a.31.31,0,0,0,0,.59Z"/><path class="cls-11" d="M24.8,73.81c3.19.4,6.45.55,9.61,1.18s5.93,1.77,8.88,2.66a98.82,98.82,0,0,0,18.37,3.9,61.9,61.9,0,0,0,19-1.27,87.57,87.57,0,0,1,9.55-1.13,26.41,26.41,0,0,0,8-2.2c3.25-1.4,6.47-2.74,9.82-3.88l5-1.65c1.54-.52,3.26-1,4.36-2.25a.84.84,0,0,0-.37-1.4c-2.76-.62-6,1.1-8.59,1.94-2.76.89-5.5,1.82-8.17,2.94s-5.56,2.58-8.6,3.06-6,.33-9,.8c-3.24.53-6.41,1.42-9.68,1.77a52.28,52.28,0,0,1-9.69.09,96.7,96.7,0,0,1-18.94-3.45,62.92,62.92,0,0,0-9.65-2.37,30.37,30.37,0,0,0-10,.75c-.31.07-.2.48.07.51Z"/></g><g class="cls-10"><path class="cls-12" d="M126.75,57a3.48,3.48,0,0,0-3-3.37A3.41,3.41,0,0,0,120,56.11c-1.63,9.47-11.6,13-19.64,15.55-9.49,3-19.09,5.49-29.11,4.44a39.93,39.93,0,0,1-22.07-9.27,39,39,0,0,1-8.42-11,69.9,69.9,0,0,1-6-14.07,26.75,26.75,0,0,1,0-14,33.12,33.12,0,0,1,6.5-12.52c1.53-1.82-.55-5.26-2.76-3.58a32.2,32.2,0,0,0-5.36,5,25.55,25.55,0,0,0-3.59,6.44,30.69,30.69,0,0,1,1.14-5c1.17-3.67-4.24-5.84-6.15-2.59a40.67,40.67,0,0,0-3.95,9.25c-1.17-2.73-6-3.16-6.58.33-1.72,9.79-2.13,20-.19,29.82,1.82,9.24,7.42,16.31,14.74,21.94q2.63,2,5.42,3.76a25.6,25.6,0,0,0,3.49,2.92c1.64,1.11,3.64,1.9,5.2,3.1a2.08,2.08,0,0,0,2.53-.28,74.88,74.88,0,0,0,44.21,3.86c3.92-.85,9.56-1.79,11.94-5.45a43.62,43.62,0,0,0,6.92-2C118.65,78.58,128,68.92,126.75,57Z"/><path class="cls-13" d="M122.25,21.54A37.64,37.64,0,0,0,106,5.54,46.88,46.88,0,0,0,82.37.05C74,.49,65.24,5,63.83,14a.5.5,0,0,0,0,.12,24.79,24.79,0,0,0-1.58,8.6A29.56,29.56,0,0,0,70.7,44.58,38.44,38.44,0,0,0,92.94,55.81a29.06,29.06,0,0,0,13.54-1.69c4.14-1.48,8.52-3.24,11.59-6.52a26.39,26.39,0,0,0,6.38-12.19A21.31,21.31,0,0,0,122.25,21.54Z"/></g><g class="cls-10"><path class="cls-14" d="M125.81,53.4a4,4,0,0,0-3.6-6.07c.06-.67.09-1.35.09-2a3.35,3.35,0,0,0-6.2-1.68c-3.41,5.79-9.2,9.73-15.37,12.15a57.58,57.58,0,0,1-22.79,4.08A43.56,43.56,0,0,1,47.57,45.48,58.87,58.87,0,0,1,44,38.06c-1.45-3.6-2.74-7.28-3.93-11-.24-.75-.46-1.48-.64-2.22a16.37,16.37,0,0,1,4.67-10.71c1.27-1.3-.62-3.09-2-2A18.76,18.76,0,0,0,38.67,16a5.49,5.49,0,0,0-.83-1.61c-1.28-1.71-3.7-2.42-5.38-.69a12.43,12.43,0,0,0-2.61,4.05h0a3.15,3.15,0,0,0-3,2.59c-1.75-.83-4-.64-4.94,1.4-5.48,12.19-8.41,26-2.47,38.64.28.59.58,1.17.91,1.73a40.34,40.34,0,0,0,4.19,10.2c2.9,4.75,7.55,8.61,11.9,12a29,29,0,0,0,16.39,6.6,47.09,47.09,0,0,0,10.64-.71,43.85,43.85,0,0,0,20.21-.25c5.24-1.26,10.16-3.64,15-6,9.09-4.45,18.63-10.13,23-19.7a4.26,4.26,0,0,0,0-4c.56-.75,1.11-1.51,1.62-2.29A31.07,31.07,0,0,0,125.81,53.4Z"/></g><g class="cls-15"><path class="cls-16" d="M74.3,23.3a7.43,7.43,0,0,0,1.64.7c.56.21,1.08.45,1.62.69a2.29,2.29,0,0,0,3-.8,2.25,2.25,0,0,0-.8-3.05,6.11,6.11,0,0,0-4.4-.46c-1.18.37-2.57,1.91-1.11,2.92Z"/></g><path class="cls-16" d="M89.23,29.63c.71,1.38,2.33,2.31,3.44,3.39a26.94,26.94,0,0,1,3.38,3.78,2.86,2.86,0,1,0,4.51-3.48,15.4,15.4,0,0,0-4.9-4.18c-1.6-.82-3.92-1.88-5.74-1.23a1.19,1.19,0,0,0-.69,1.72Z"/><path class="cls-3" d="M94.28,60.4c1.58,16.29-10.52,32.12-26.07,37.24S36,100.94,23,91c-4.19-3.18-9.08-9.65-11.52-14.3-2.09-4-3.07-8.45-4-12.85C36.78,62.85,64.93,61.43,94.28,60.4Z"/><g class="cls-17"><path class="cls-18" d="M4.45,60.6c-1,4.13.13,8.09,1.68,11.93a45,45,0,0,0,6.65,11.29,49.75,49.75,0,0,0,20.43,15c17,6.87,40.05,4.68,53.11-9.13A37.69,37.69,0,0,0,95,76.16c1.64-4.93,2.81-12.39-.27-16.93a2.36,2.36,0,0,0-4,0C88.18,63,89,68,88,72.31a25.83,25.83,0,0,1-5.62,10.21c-5.4,6.42-12.5,9.88-20.66,11.5A45.47,45.47,0,0,1,19.92,80.69c-2.76-2.91-9.27-15.12-10.65-22.88-.18-1-4.54,1.63-4.82,2.79Z"/><path class="cls-19" d="M92.36,54c.06,2.31-.34,4.68-.48,7s.31,4.2-.08,6.45c-.71,4.16-2.23,7.17-4,11a30.16,30.16,0,0,1-18.09,16.2,49.52,49.52,0,0,1-12.42,2.08,99.72,99.72,0,0,1-13.6-.45c-10.16-.95-19.27-7.73-22.57-10.25C13.73,80.4,9.5,68.18,8.07,58.85c-.31-2-3.56-.23-5.37.27C.55,59.71-.24,61.74.06,63.77A40,40,0,0,0,14,88a93.75,93.75,0,0,0,11.64,8.24c4.31,2.67,8.7,5.48,13.65,6.8s10.3,1.4,15.43,1.31a64.55,64.55,0,0,0,15.83-2c9.13-2.48,17.38-7.94,22-16.38a52.85,52.85,0,0,0,5.24-15.72,36.82,36.82,0,0,0,.63-8.64,19.34,19.34,0,0,0-.71-4.6,33.15,33.15,0,0,0-1.82-4c-.81-1.7-3.54-.83-3.49,1Z"/><path class="cls-20" d="M81.57,52.55a4,4,0,0,0-4.93,1.61,11.22,11.22,0,0,1-3,2.81,13.43,13.43,0,0,0-5.82.59c-2,.66-3.89,1.57-6,2-4.1,1-8.49.79-12.67.9a129.39,129.39,0,0,1-13.21-.19,45.94,45.94,0,0,1-6.15-.64,3.78,3.78,0,0,0-2.59-2.27c-1.1-.25-2.2-.51-3.31-.74a4.33,4.33,0,0,0-1.9,0q-1.21-.86-2.37-1.8A4,4,0,0,0,13,57a7.14,7.14,0,0,1-.43-1.38c-.23-1.15-1.91-.82-2,.27-.29,6,3.64,10,7.62,13.93,4.42,4.31,9.42,8.25,15.19,10.55,12.3,4.92,26.31-.08,37-6.74A32.14,32.14,0,0,0,83.86,57.21,3.93,3.93,0,0,0,81.57,52.55Z"/></g><g class="cls-21"><path class="cls-22" d="M62.07,53.27a49.47,49.47,0,0,1-33.48,4.84A3.57,3.57,0,0,0,24,59.28l-.21.29c-1.2,1.66-.19,4.19,1.56,5a15.52,15.52,0,0,0,2,1.74,20.67,20.67,0,0,0,5.29,2.76,41.41,41.41,0,0,0,13.68,2.8C55.4,72.05,62.87,66,67,58.22A3.65,3.65,0,0,0,62.07,53.27Z"/></g><g class="cls-21"><path class="cls-23" d="M83.65,86.49C73.17,91,61.29,91.81,51.25,85.8c-9.43-5.65-15-16.1-15.58-26.95a1.6,1.6,0,0,0-2.49-1.13,3.61,3.61,0,0,0-6.44,1.12c-.29-1.31-.53-2.63-.74-4-.61-4-6.86-2.91-6.9.94,0,1.68,0,3.37.16,5.05a2.41,2.41,0,0,0-.42-.48,15.23,15.23,0,0,0-2.18-2.85,4.73,4.73,0,0,0-6.57-.3,3.48,3.48,0,0,0-3.46,2.69c-.43,1.72-.87,3.45-1.3,5.18a4.39,4.39,0,0,0-.27.53c-.76,1.78-.23,3.21.89,4.66a2.83,2.83,0,0,0,1.31,1,2.63,2.63,0,0,0,.2.33l.15.32Q8.27,73.32,9,74.71c1,1.94,2,3.87,3,5.76,1.25,2.2,2.58,4.35,4,6.44a4.68,4.68,0,0,0-.41,1.14c-.44,1.93.4,3.62,1.54,5.11,3.79,5,9.2,8.11,15.11,10.25a45.57,45.57,0,0,0,5.34,3.07A4.26,4.26,0,0,0,42,106.1c2.54.52,5.07.94,7.49,1.31a4.47,4.47,0,0,0,4.18-1.29,20.16,20.16,0,0,0,2.23.76c6.71,1.84,13.66.64,19.91-2.15S88.55,97,88.93,89.51C89.08,86.57,85.9,85.53,83.65,86.49Z"/></g><path class="cls-24" d="M65.45,74a4.76,4.76,0,0,0,.79,2.41,4.15,4.15,0,0,0,2.42,2.3,2,2,0,0,0,2.43-2.43,4,4,0,0,0-2.26-2.46,4.55,4.55,0,0,0-2.49-.71.91.91,0,0,0-.89.89Z"/><path class="cls-24" d="M70.28,71.12a9.4,9.4,0,0,1,.6,1.07,3.85,3.85,0,0,0,1,1.07c1,.85,2.52,1.49,3.66.37a1.88,1.88,0,0,0,.41-1.8,2.5,2.5,0,0,0-1.78-1.57,5.54,5.54,0,0,0-2.79-.36h.65l-.68-.2a1,1,0,0,0-1.09,1.42Z"/><path class="cls-24" d="M73.73,67.49a2.66,2.66,0,0,0,1.59,1.62,3.29,3.29,0,0,0,3,.09,1.7,1.7,0,0,0,.62-2.33,3.22,3.22,0,0,0-3.06-1.35c-1,.07-2.46.69-2.14,2Z"/><path class="cls-24" d="M60.31,77.2a12.87,12.87,0,0,0-.3,2,4.27,4.27,0,0,0,.13,1.18,2.44,2.44,0,0,0,1,1.31,1.7,1.7,0,0,0,2.31-.61c.87-1.47-.2-3-1-4.21-.49-.79-2-.78-2.18.29Z"/><path class="cls-24" d="M54.13,78.74a4.91,4.91,0,0,0-.91,2.15,4.28,4.28,0,0,0,.33,2.86,2.19,2.19,0,0,0,2.43,1,2.22,2.22,0,0,0,1.57-2.07c.11-1.38-.81-2.75-1.33-3.93a1.22,1.22,0,0,0-2.09,0Z"/><path class="cls-24" d="M47.79,78.71c-1.38,1.59-2.38,4.4-.74,6.15a2,2,0,0,0,2.88,0c1.28-1.44.9-3.68.57-5.44a1.63,1.63,0,0,0-2.71-.71Z"/><path class="cls-24" d="M41.09,79.43a6.23,6.23,0,0,0-2.18,2.18c-.65,1.22-1.22,2.63-.4,3.91a2.32,2.32,0,0,0,3.11.82c1.78-1.08,1.71-3.68,1.88-5.53a1.61,1.61,0,0,0-2.41-1.38Z"/><path class="cls-24" d="M34.6,79.18c-1.23.78-3.15,1.46-3.65,3a1.87,1.87,0,0,0,2.28,2.28c1.73-.45,2.42-2.65,3-4.07.38-.91-.87-1.75-1.63-1.26Z"/><path class="cls-24" d="M28.71,75.82a9.25,9.25,0,0,1-1,.48l.8-.22-.59.07-.32.14c-.26.11-.53.21-.79.33-.56.27.36-.11-.2.09a5.11,5.11,0,0,0-1,.47A2.23,2.23,0,1,0,27.83,81a5.19,5.19,0,0,0,1.55-1.58,3.43,3.43,0,0,0,.71-1.79l-.21.8c.2-.46.32-.9.49-1.37a1.14,1.14,0,0,0-1.66-1.27Z"/><path class="cls-24" d="M24.27,73.16c-.51.11-1,.1-1.52.22a2.43,2.43,0,0,0-.67.15l.29,0a1,1,0,0,0-.34,0,2,2,0,0,0-.75.25,1.81,1.81,0,0,0-.36,2.83l0,0a1.85,1.85,0,0,0,1.8.48,3.53,3.53,0,0,0,1.63-1.45c.34-.45.49-.85.81-1.29.45-.63-.3-1.35-.94-1.21Z"/><path class="cls-24" d="M22.51,69.19c-1.74-1-4.12-.36-5.72.7a2.22,2.22,0,0,0-.78,3,2.19,2.19,0,0,0,3,.78,10.89,10.89,0,0,0,3.85-3.23.92.92,0,0,0-.32-1.22Z"/><path class="cls-24" d="M73.5,76.92v.18l.18-.66a3.24,3.24,0,0,0,.25,2.65,4,4,0,0,0,2.48,2.57,2,2,0,0,0,2.5-2.5,4.77,4.77,0,0,0-2-2.32,4.07,4.07,0,0,0-2.05-1l.66.18-.15-.09a1.22,1.22,0,0,0-1.83,1Z"/><path class="cls-24" d="M76.86,74.74a3,3,0,0,0,.55.69,1.83,1.83,0,0,0,.5.42c.19.14.21.15,0,0a3.74,3.74,0,0,0,2.25,1.06c1.59.17,2.48-1.84,1.76-3.07a3.66,3.66,0,0,0-4.56-1.2,1.55,1.55,0,0,0-.54,2.08Z"/><path class="cls-24" d="M80,69.63a5.77,5.77,0,0,0,1.83,1.26,3,3,0,0,0,2.64-.06,1.89,1.89,0,0,0,.38-2.94c-1.12-1.21-3-.85-4.24-.58A1.4,1.4,0,0,0,80,69.63Z"/><path class="cls-24" d="M59.75,71.61a3.77,3.77,0,0,0,.14,1c.09.27.21.53.31.79a4.16,4.16,0,0,0,.57,1,2,2,0,0,0,1.5.73,1.45,1.45,0,0,0,1.4-1.07,2.38,2.38,0,0,0-.74-2.37,5.18,5.18,0,0,0-1.34-1.17,1.24,1.24,0,0,0-1.84,1.06Z"/><path class="cls-24" d="M66.18,83.57c-.16-.37-.19-.42-.11-.16l.06.4a7.58,7.58,0,0,0,.21.82,3.76,3.76,0,0,0,1.09,2,1.81,1.81,0,0,0,3.08-1.28,4.43,4.43,0,0,0-1-2.69,3.34,3.34,0,0,0-1.86-1.57c-1.37-.32-2.6,1.44-1.44,2.48Z"/><path class="cls-24" d="M50.5,86.74a3.52,3.52,0,0,0-.87,2.15,2.38,2.38,0,0,0,1,2.5,1.8,1.8,0,0,0,2.14-.28,2.59,2.59,0,0,0,.46-2.63,4.49,4.49,0,0,0-.78-1.74,1.43,1.43,0,0,0-2,0Z"/><path class="cls-25" d="M20.88,69.05a3.79,3.79,0,0,0-1.85.34c-.74.39-1.51.9-1.54,1.82a1.41,1.41,0,0,0,1.27,1.48c1.27.07,2.13-1.26,2.85-2.12a1,1,0,0,0-.73-1.52Z"/><g class="cls-26"><path class="cls-16" d="M19.91,70.58a1,1,0,0,0-.49.09c-.2.11-.4.24-.41.49a.37.37,0,0,0,.34.39c.33,0,.56-.33.75-.56a.26.26,0,0,0-.19-.41Z"/></g><path class="cls-25" d="M24.32,73.58a3.88,3.88,0,0,0-1.84.35c-.75.38-1.52.89-1.55,1.82a1.41,1.41,0,0,0,1.28,1.48c1.26.07,2.12-1.26,2.84-2.13a1,1,0,0,0-.73-1.52Z"/><path class="cls-25" d="M28.82,76.3a4.11,4.11,0,0,0-2,.7,2.56,2.56,0,0,0-1.39,2.28,1.57,1.57,0,0,0,1.67,1.4c1.41-.14,2.12-1.75,2.77-2.84a1.09,1.09,0,0,0-1.08-1.54Z"/><g class="cls-27"><path class="cls-16" d="M28,78.16a1.13,1.13,0,0,0-.53.19.68.68,0,0,0-.37.6.41.41,0,0,0,.45.37c.37,0,.56-.46.73-.75a.29.29,0,0,0-.28-.41Z"/></g><path class="cls-25" d="M35,79.59a4.19,4.19,0,0,0-1.9.87,2.56,2.56,0,0,0-1.18,2.39,1.56,1.56,0,0,0,1.78,1.25c1.39-.26,2-1.93,2.51-3.07A1.09,1.09,0,0,0,35,79.59Z"/><g class="cls-28"><path class="cls-16" d="M34.38,81.51a1.27,1.27,0,0,0-.5.23c-.19.17-.38.37-.32.64a.42.42,0,0,0,.48.33c.37-.07.52-.51.66-.81a.29.29,0,0,0-.32-.39Z"/></g><path class="cls-25" d="M41.4,80.31a4.28,4.28,0,0,0-1.59,1.36,2.56,2.56,0,0,0-.48,2.63,1.57,1.57,0,0,0,2.06.71c1.26-.63,1.35-2.4,1.56-3.64a1.09,1.09,0,0,0-1.55-1.06Z"/><g class="cls-27"><path class="cls-16" d="M41.32,82.34a1.05,1.05,0,0,0-.42.36.67.67,0,0,0-.13.7.42.42,0,0,0,.55.19c.33-.17.36-.64.41-1a.28.28,0,0,0-.41-.28Z"/></g><path class="cls-25" d="M48.12,79.52a4.23,4.23,0,0,0-.82,1.92A2.54,2.54,0,0,0,48,84a1.57,1.57,0,0,0,2.16-.27c.85-1.13.15-2.75-.2-4a1.1,1.1,0,0,0-1.87-.26Z"/><path class="cls-25" d="M51.34,86.41a4.35,4.35,0,0,0-.83,1.92,2.58,2.58,0,0,0,.73,2.57,1.56,1.56,0,0,0,2.16-.27c.86-1.12.16-2.75-.2-4a1.09,1.09,0,0,0-1.86-.26Z"/><g class="cls-28"><path class="cls-16" d="M52.16,88.26a1.36,1.36,0,0,0-.22.51c0,.25,0,.52.2.68a.41.41,0,0,0,.57-.07c.23-.3,0-.73-.05-1a.29.29,0,0,0-.5-.07Z"/></g><path class="cls-25" d="M53.8,79.77a4.32,4.32,0,0,0-.4,2.06,2.57,2.57,0,0,0,1.26,2.35,1.57,1.57,0,0,0,2.06-.72c.59-1.28-.44-2.72-1-3.82a1.09,1.09,0,0,0-1.88.13Z"/><g class="cls-26"><path class="cls-16" d="M55,81.41a1.12,1.12,0,0,0-.11.54c0,.25.08.52.34.63a.42.42,0,0,0,.54-.19c.16-.34-.11-.73-.27-1a.29.29,0,0,0-.5,0Z"/></g><path class="cls-25" d="M60.86,77.53a4.31,4.31,0,0,0-.39,2.06,2.54,2.54,0,0,0,1.25,2.35,1.57,1.57,0,0,0,2.06-.72c.6-1.28-.43-2.72-1-3.82a1.1,1.1,0,0,0-1.88.13Z"/><g class="cls-26"><path class="cls-16" d="M62.06,79.17a1.11,1.11,0,0,0-.1.54.68.68,0,0,0,.33.63.44.44,0,0,0,.55-.19c.16-.34-.12-.73-.28-1a.29.29,0,0,0-.5,0Z"/></g><path class="cls-25" d="M60.39,71.81a3.84,3.84,0,0,0,.18,1.93c.32.8.78,1.65,1.73,1.76a1.45,1.45,0,0,0,1.64-1.17C64.13,73,62.85,72,62,71.2a1,1,0,0,0-1.63.61Z"/><path class="cls-25" d="M66.82,82.89A4.07,4.07,0,0,0,67,84.82c.33.81.78,1.65,1.73,1.77a1.45,1.45,0,0,0,1.64-1.18c.2-1.29-1.09-2.3-1.91-3.12a1,1,0,0,0-1.64.6Z"/><g class="cls-27"><path class="cls-16" d="M68.31,84a1,1,0,0,0,0,.52c.09.21.21.43.46.47a.39.39,0,0,0,.43-.32c.06-.34-.29-.61-.5-.83a.27.27,0,0,0-.44.16Z"/></g><path class="cls-25" d="M66.51,74.85a3.94,3.94,0,0,0,.61,1.83c.5.71,1.13,1.44,2.09,1.33a1.45,1.45,0,0,0,1.33-1.51c-.1-1.3-1.58-2-2.57-2.62a1,1,0,0,0-1.46,1Z"/><g class="cls-27"><path class="cls-16" d="M68.22,75.62a1.18,1.18,0,0,0,.16.49c.14.19.3.38.56.35a.38.38,0,0,0,.35-.4c0-.35-.42-.53-.68-.69a.27.27,0,0,0-.39.25Z"/></g><path class="cls-25" d="M39.23,75.22a2.81,2.81,0,0,0-1.3.59,1.73,1.73,0,0,0-.82,1.63,1.07,1.07,0,0,0,1.21.87c1-.18,1.35-1.32,1.73-2.09a.75.75,0,0,0-.82-1Z"/><path class="cls-16" d="M38.79,76.54a.87.87,0,0,0-.34.15c-.13.12-.26.25-.22.44a.3.3,0,0,0,.32.23c.25,0,.36-.35.46-.56a.2.2,0,0,0-.22-.26Z"/><path class="cls-25" d="M71.68,70.21a4,4,0,0,0,.61,1.84c.5.71,1.13,1.43,2.08,1.33a1.46,1.46,0,0,0,1.34-1.51c-.1-1.31-1.59-2-2.58-2.62a1,1,0,0,0-1.45,1Z"/><g class="cls-29"><path class="cls-16" d="M73.39,71a1,1,0,0,0,.16.48.64.64,0,0,0,.55.36.39.39,0,0,0,.36-.4c0-.35-.42-.54-.69-.7a.27.27,0,0,0-.38.26Z"/></g><path class="cls-25" d="M80.38,69.15a3.85,3.85,0,0,0,1.55,1.16,2.36,2.36,0,0,0,2.47-.09,1.46,1.46,0,0,0,.23-2c-.83-1-2.44-.74-3.6-.69a1,1,0,0,0-.65,1.62Z"/><path class="cls-16" d="M82.23,68.81a.9.9,0,0,0,.41.31.63.63,0,0,0,.65,0,.37.37,0,0,0,.06-.53c-.22-.27-.64-.2-.95-.19a.27.27,0,0,0-.17.43Z"/></g></g></g></g></svg>