<svg xmlns="http://www.w3.org/2000/svg" xmlns:xlink="http://www.w3.org/1999/xlink" viewBox="0 0 86.61 89.97"><defs><style>.cls-1{fill:#f8d700;}.cls-2{fill:none;}.cls-3{fill:#ffc817;}.cls-4{isolation:isolate;}.cls-5{clip-path:url(#clip-path);}.cls-6{fill:#fff93f;}.cls-7{fill:#f8b200;}.cls-10,.cls-13,.cls-8{fill:#fcb300;}.cls-8{opacity:0.29;}.cls-9{clip-path:url(#clip-path-2);}.cls-10{opacity:0.48;}.cls-11{opacity:0.64;}.cls-12{fill:#f7bc00;}.cls-13{opacity:0.42;}.cls-14{clip-path:url(#clip-path-4);}.cls-15{fill:#ffbc00;}.cls-16{fill:#ffde1a;}.cls-17{fill:#ffbf0b;opacity:0.36;mix-blend-mode:multiply;}.cls-18{fill:#ffd527;}.cls-19{fill:#fce01a;}.cls-20{fill:#fffaf2;}.cls-21{fill:#fff;}.cls-22{clip-path:url(#clip-path-5);}.cls-23{clip-path:url(#clip-path-6);}.cls-24{clip-path:url(#clip-path-7);}.cls-25{clip-path:url(#clip-path-8);}.cls-26{clip-path:url(#clip-path-9);}.cls-27{clip-path:url(#clip-path-10);}.cls-28{clip-path:url(#clip-path-11);}.cls-29{clip-path:url(#clip-path-12);}.cls-30{opacity:0.41;mix-blend-mode:soft-light;}.cls-31{opacity:0.32;}.cls-32{opacity:0.34;}.cls-33{opacity:0.43;}</style><clipPath id="clip-path"><path class="cls-1" d="M26.44,30.86c.7-3,4.87-10.4,7.18-12.46,2.93-2.63,6.42-4.63,8.89-7.69A14.87,14.87,0,0,1,44.4,8.43a4.17,4.17,0,0,1,4.38-.5c1.66.83,2.55,2.66,3.94,3.89,1.83,1.63,4.38,2.08,6.69,2.88a22,22,0,0,1,5.68,2.94,25.73,25.73,0,0,1,3.62,3.22,32.4,32.4,0,0,1,8.6,18.81,33.17,33.17,0,0,1-4.5,20.2,19.39,19.39,0,0,1-4.12,5.06c-3.69,3.08-9.22,6.82-18,5.13-4.72-.91-12-3.1-15.53-6.38C25.89,55,23.38,44,26.44,30.86Z"/></clipPath><clipPath id="clip-path-2"><path class="cls-2" d="M26.44,30.86c.7-3,4.87-10.4,7.18-12.46,2.93-2.63,6.42-4.63,8.89-7.69A14.87,14.87,0,0,1,44.4,8.43a4.17,4.17,0,0,1,4.38-.5c1.66.83,2.55,2.66,3.94,3.89,1.83,1.63,4.38,2.08,6.69,2.88a22,22,0,0,1,5.68,2.94,25.73,25.73,0,0,1,3.62,3.22,32.4,32.4,0,0,1,8.6,18.81,33.17,33.17,0,0,1-4.5,20.2,19.39,19.39,0,0,1-4.12,5.06c-3.69,3.08-9.22,6.82-18,5.13-4.72-.91-12-3.1-15.53-6.38C25.89,55,23.38,44,26.44,30.86Z"/></clipPath><clipPath id="clip-path-4"><path class="cls-3" d="M11.21,54.43s-1.54,9.26,1.63,16.19C15.2,75.79,23.2,83.44,29.89,84.39S44.43,86,51.42,80.65,65.51,57.71,62,55,11.21,54.43,11.21,54.43Z"/></clipPath><clipPath id="clip-path-5"><path class="cls-2" d="M37.61,51.75c.18-2.42.37-4.83.55-7.25a.41.41,0,0,0-.12-.39,1.17,1.17,0,0,0-.48-.12,21.54,21.54,0,0,0-12.82,2.86c-.47.3-1,.69-.86,1.1.06.26.34.47.62.65,2.55,1.7,5.7,3,8,4.86.74.61,3,2.73,4.65,1.84C38,54.82,37.56,52.4,37.61,51.75Z"/></clipPath><clipPath id="clip-path-6"><path class="cls-2" d="M31.21,53.83,22.71,49a1,1,0,0,0-.55-.18,1,1,0,0,0-.46.15c-3.46,1.92-5.36,5-5,7.94A1.25,1.25,0,0,0,17.51,58a3,3,0,0,0,1.21.11c3.75-.16,7.42-.85,11.18-.77,1.24,0,5.3.3,5.32-1.07C35.23,55.57,32,54.27,31.21,53.83Z"/></clipPath><clipPath id="clip-path-7"><path class="cls-2" d="M28.56,58.49l-11,.48a1.1,1.1,0,0,0-.57.12.37.37,0,0,0-.1.33c.08,3,2.46,6.08,6.2,8a2.91,2.91,0,0,0,1.78.44,1.74,1.74,0,0,0,.89-.48c2.16-1.86,3.65-4.08,6.11-5.77.81-.55,3.66-2.25,2.07-3.25C33.11,57.87,29.55,58.45,28.56,58.49Z"/></clipPath><clipPath id="clip-path-8"><path class="cls-2" d="M46.67,57.5l10.67-.15a.89.89,0,0,0,.54-.11A.41.41,0,0,0,58,56.9c-.4-3.08-2.78-6.61-6.65-8.75a3.22,3.22,0,0,0-1.79-.63,4.42,4.42,0,0,0-1.38,1c-1.92,1.85-2.83,4-5.05,5.62-.73.55-3.34,2.21-1.68,3.29C42.3,58,45.71,57.52,46.67,57.5Z"/></clipPath><clipPath id="clip-path-9"><path class="cls-2" d="M44.31,61.9l8.37,4.92a1,1,0,0,0,.55.19.87.87,0,0,0,.46-.15C57.21,65,59.19,62,58.88,59a1.22,1.22,0,0,0-.74-1.12,3,3,0,0,0-1.21-.12c-3.75.11-7.44.76-11.21.63-1.23-.05-5.28-.36-5.35,1C40.34,60.12,43.56,61.46,44.31,61.9Z"/></clipPath><clipPath id="clip-path-10"><path class="cls-2" d="M37.82,64.19q-.57,3.68-1.13,7.35c0,.14,0,.3.09.39a.92.92,0,0,0,.46.11A22.27,22.27,0,0,0,50.15,68.9c.49-.32,1-.72.94-1.13s-.3-.47-.56-.65c-2.39-1.67-5.4-2.92-7.48-4.76-.69-.61-2.71-2.71-4.45-1.78C37.66,61.08,37.92,63.52,37.82,64.19Z"/></clipPath><clipPath id="clip-path-11"><path class="cls-2" d="M48.05,46.71c-.37-.85-8-2.87-8.34-2.43S38,54.45,38.26,54.9c.44.71.86,1.64,2.64.33S48.46,47.66,48.05,46.71Z"/></clipPath><clipPath id="clip-path-12"><path class="cls-2" d="M35.47,71.94c.62-.2,2.17-10.92,1.66-11.19s-1.7-1.53-2.77-.08S31.65,62.86,30,64.5s-4.17,3.89-3.61,4.55S34.26,72.35,35.47,71.94Z"/></clipPath></defs><title>Layer 23</title><g class="cls-4"><g id="Layer_2" data-name="Layer 2"><g id="Layer_1-2" data-name="Layer 1"><g id="Layer_23" data-name="Layer 23"><path class="cls-1" d="M26.44,30.86c.7-3,4.87-10.4,7.18-12.46,2.93-2.63,6.42-4.63,8.89-7.69A14.87,14.87,0,0,1,44.4,8.43a4.17,4.17,0,0,1,4.38-.5c1.66.83,2.55,2.66,3.94,3.89,1.83,1.63,4.38,2.08,6.69,2.88a22,22,0,0,1,5.68,2.94,25.73,25.73,0,0,1,3.62,3.22,32.4,32.4,0,0,1,8.6,18.81,33.17,33.17,0,0,1-4.5,20.2,19.39,19.39,0,0,1-4.12,5.06c-3.69,3.08-9.22,6.82-18,5.13-4.72-.91-12-3.1-15.53-6.38C25.89,55,23.38,44,26.44,30.86Z"/><g class="cls-5"><path class="cls-6" d="M51.67,5.93A1.2,1.2,0,0,0,50.12,5c-1.49.38-1.23,2.21-.69,3.25,1.49,2.87,4.6,5,7.2,6.76a34.43,34.43,0,0,1,7.17,6,29.23,29.23,0,0,1,4.67,7.82c2.68,6.33,2.76,13.49,1.57,20.18-.54,3-1.22,6.57-3.17,9a34.15,34.15,0,0,1-7.16,6.63c-3,2-6.61,2.46-10.15,2.37-2.2-.06-4.4-.26-6.59-.52-2.42-.28-5-.57-7.26.47a2.9,2.9,0,0,0-.88,4.47c3,3,8,3,12,3.27A32.47,32.47,0,0,0,58,74a24.83,24.83,0,0,0,9.75-5.75c2.83-2.58,5.73-5.26,7.39-8.76a40.88,40.88,0,0,0,2.92-11.1,45.92,45.92,0,0,0,.23-12.17,34.27,34.27,0,0,0-8-18.8,29.37,29.37,0,0,0-8.77-6.72C59.71,9.78,57.93,8.84,56.1,8c-.74-.33-1.44-.71-2.15-1.11-.38-.22-.76-.42-1.13-.64s-.44-.26-.65-.4c-.42-.39-.61-.28-.57.34L51,6.79l.19-.06a.68.68,0,0,0,.52-.8Z"/><path class="cls-7" d="M39,8.61c-1.9,3.87-6.64,5.9-9.46,9a33,33,0,0,0-7.29,13,35.44,35.44,0,0,0,3.77,27.8c2.6,4.32,6.82,10.61,12.58,10.13a2.41,2.41,0,0,0,1.86-2.81c-.74-4.07-5-7-7.16-10.39a30.19,30.19,0,0,1-4.27-11.27c-1.32-8.37,1.61-16.79,6.86-23.27,2.88-3.56,6.86-7.35,5-12.32-.34-1-1.57-.58-1.92.13Z"/><path class="cls-8" d="M83.3,42.94c0-.4,0-9,0-9.42s-8.14-7-10.66-4.79c-3.69,3.27-8,6.08-13.08,6.59-3.66.36-8.16-1-10.46-4.31C47.81,29.2,47.29,26.5,47,24.18a51.73,51.73,0,0,1-.72-7.13c0-4.81.92-9.71,3.75-13.67,1.47-2-1.37-4.46-3.24-2.86a20,20,0,0,0-4.27,5.12c-2-1.55-5.69-1.35-6.36,1.6-.23,1-.42,2-.58,3.09a4,4,0,0,0-1-.5c-1.86-.64-4.46.35-5,2.41-.25,1-.46,2-.61,3.07a62.84,62.84,0,0,0-1,8.56,3.78,3.78,0,0,0-3.46,3.57c0,6.7-3.62,12.29-1.06,18.57-.84.7,2.82,3.4,2.67,4.47-.89,6.36,3.89,12,8.88,15.19a26.76,26.76,0,0,0,8.1,3.55,16,16,0,0,0,4.66.6c1.64-.08,11.22,1.52,11.51,1.35,7.77-.76,9.53-6.36,15.18-11.77,1.4-1.33,4.09-2.28,3-3.91-.18-.26,4.21-.63,4-.83,1.88-1.16-3.55-3.78-3-6.09S85.67,43.2,83.3,42.94Z"/></g><g class="cls-9"><path class="cls-10" d="M50.25,12.4A5.68,5.68,0,0,0,50,8.7C49.62,7.59,49.1,6,48.07,5.37a1.44,1.44,0,0,0-1.72.11c-2.3,2,.84,6.54,3.06,7.33a.68.68,0,0,0,.84-.41Z"/><path class="cls-1" d="M45.54,11.78c.81-1.17,2-2.58,1.69-4.11A1.17,1.17,0,0,0,45.33,7c-1.18,1-1.13,2.86-1.22,4.26a.79.79,0,0,0,1.43.49Z"/><g class="cls-11"><path class="cls-12" d="M56.44,11.35a4.17,4.17,0,0,0-1.47-2A22.56,22.56,0,0,1,53,7.09c-1.5-1.81-3.24-1.82-5.34-2.28a2.35,2.35,0,0,0-2.89,1.41,2.27,2.27,0,0,0,1.4,2.89c.94.23,2,.15,2.94.46s1.34,1.18,2,1.76c1.35,1.13,3.37,2.08,5,1a1,1,0,0,0,.32-1Z"/></g><path class="cls-8" d="M86.54,51.16a3.79,3.79,0,0,0-3.24-2.93,10.43,10.43,0,0,0,.63-1.44,3.61,3.61,0,0,0-.3-3.07A7.88,7.88,0,0,0,83.94,42c.22-3.26-3.42-4.51-5.79-2.85a31.24,31.24,0,0,1-29.46,3.05A35,35,0,0,1,35.4,32.59c-3.56-4.17-5.71-10.11-4.53-15.6.23-1.06-1.29-2.14-1.91-.95a18.07,18.07,0,0,0-1.07,2.44,3.11,3.11,0,0,0-4.27,2.1,19.86,19.86,0,0,0,0,9.66,3.69,3.69,0,0,0-3,3.36v0A3.28,3.28,0,0,0,19.47,36a38.22,38.22,0,0,0,.58,6.5c0,.35-.08.69-.1,1a15.53,15.53,0,0,0,1.66,7.92,19.75,19.75,0,0,0,5.18,6.29A30.15,30.15,0,0,0,29.74,61c.41.4.84.78,1.27,1.16,3.06,4.14,8.12,6.56,13,8.34a25.87,25.87,0,0,0,11,1.64c2.82-.23,5.51-1.59,8.29-2A16.57,16.57,0,0,0,65.8,70a3.23,3.23,0,0,0,2.56-1.93c.92-.55,1.83-1.15,2.71-1.79a29.08,29.08,0,0,0,9.27-4.58,3.76,3.76,0,0,0,.88-4.46,3.32,3.32,0,0,0-.64-.9l1-.29q1-.24,2.07-.51A3.79,3.79,0,0,0,86.54,51.16Z"/></g><g class="cls-9"><path class="cls-13" d="M78.12,46.66a74.35,74.35,0,0,1-15.84,5.86c-5.09,1-9.47,1-14.69.83C43.16,53.24,36.88,52,33,49.72a25.24,25.24,0,0,1-8.86-8.2c-.46-.69-1.94-.73-1.87.38a14.73,14.73,0,0,0,3,8c-.06.14-.11.28-.16.43a6.82,6.82,0,0,0,1.16,6.31A4.58,4.58,0,0,0,26.14,58c.42,3.68,4.54,6,7.32,7.81C36.63,68,39.94,70,43.72,70.74a26.86,26.86,0,0,0,4.18.46c5.85,1.52,12.46.21,18.2-1.41a4.14,4.14,0,0,0,3.1-3.41,19.78,19.78,0,0,0,7.86-6,3.32,3.32,0,0,0,.53-3.24,12.68,12.68,0,0,0,3.3-7.27C81.22,47.13,80.47,45.49,78.12,46.66Z"/></g><path class="cls-3" d="M11.21,54.43s-1.54,9.26,1.63,16.19C15.2,75.79,23.2,83.44,29.89,84.39S44.43,86,51.42,80.65,65.51,57.71,62,55,11.21,54.43,11.21,54.43Z"/><g class="cls-14"><path class="cls-15" d="M28.63,64.59c-.28,1-1.67,9.25-1,13.41s6.93,11,6.93,11-29-2-29.64-2.36S0,69.49,0,67.56s4.59-16.8,4.59-16.8l7-2.4Z"/><path class="cls-16" d="M52.72,66.16s-3.95,11.2-6,16.06a16.91,16.91,0,0,1-5.31,7s14.48,2.38,15.88-1.59,6.6-22.76,6.6-22.76L64,57Z"/></g><path class="cls-17" d="M59.42,63c-.41.89.89,5.32-6.09,10.3S30.48,77.3,26.25,76,10.7,68.49,11.53,61.67,59.42,63,59.42,63Z"/><path class="cls-18" d="M62.88,56.27C64.29,62.4,60.73,67.86,54.67,72a18.9,18.9,0,0,1-6.9,2.84,45.83,45.83,0,0,1-11.62.82A48.48,48.48,0,0,1,23.2,73.24C13.76,70,11.19,63,10.82,58c-.28-3.74.25-9.36,10.25-14a35.19,35.19,0,0,1,18.31-3.24c6.75.49,13.24,2.67,17.24,6.1C59.4,49.25,62.2,53.34,62.88,56.27Z"/><path class="cls-19" d="M61.35,55.94c1.44,4,1.22,6.87-2.94,11.4a20.38,20.38,0,0,1-5.48,4.15,31.52,31.52,0,0,1-5.74,2.14C40.85,75.4,33.55,74.71,27,73.08a22.53,22.53,0,0,1-8.12-4,19.41,19.41,0,0,1-5-5.81,18.17,18.17,0,0,1-2-4.17c-1.66-5.57,4-11.43,10.8-14.72C28.53,41.62,35,41.26,42,42.25c2.27.33,10.14,2.3,13.88,6C58.18,50.57,60.36,53.21,61.35,55.94Z"/><path class="cls-20" d="M60.45,56.09c1.39,3.72,1.18,6.47-2.82,10.73a19.35,19.35,0,0,1-5.27,3.91,30.25,30.25,0,0,1-5.52,2c-6.09,1.66-13.1,1-19.39-.53a21.82,21.82,0,0,1-7.8-3.73A18.15,18.15,0,0,1,14.83,63a17.11,17.11,0,0,1-1.9-3.93c-1.6-5.25,3.81-10.76,10.38-13.86,5.59-2.64,11.82-3,18.5-2,2.18.31,9.76,2.17,13.35,5.66A21.45,21.45,0,0,1,60.45,56.09Z"/><path class="cls-19" d="M37.61,51.75c.18-2.42.37-4.83.55-7.25a.41.41,0,0,0-.12-.39,1.17,1.17,0,0,0-.48-.12,21.54,21.54,0,0,0-12.82,2.86c-.47.3-1,.69-.86,1.1.06.26.34.47.62.65,2.55,1.7,5.7,3,8,4.86.74.61,3,2.73,4.65,1.84C38,54.82,37.56,52.4,37.61,51.75Z"/><path class="cls-19" d="M31.21,53.83,22.71,49a1,1,0,0,0-.55-.18,1,1,0,0,0-.46.15c-3.46,1.92-5.36,5-5,7.94A1.25,1.25,0,0,0,17.51,58a3,3,0,0,0,1.21.11c3.75-.16,7.42-.85,11.18-.77,1.24,0,5.3.3,5.32-1.07C35.23,55.57,32,54.27,31.21,53.83Z"/><path class="cls-19" d="M28.56,58.49l-11,.48a1.1,1.1,0,0,0-.57.12.37.37,0,0,0-.1.33c.08,3,2.46,6.08,6.2,8a2.91,2.91,0,0,0,1.78.44,1.74,1.74,0,0,0,.89-.48c2.16-1.86,3.65-4.08,6.11-5.77.81-.55,3.66-2.25,2.07-3.25C33.11,57.87,29.55,58.45,28.56,58.49Z"/><path class="cls-19" d="M46.67,57.5l10.67-.15a.89.89,0,0,0,.54-.11A.41.41,0,0,0,58,56.9c-.4-3.08-2.78-6.61-6.65-8.75a3.22,3.22,0,0,0-1.79-.63,4.42,4.42,0,0,0-1.38,1c-1.92,1.85-2.83,4-5.05,5.62-.73.55-3.34,2.21-1.68,3.29C42.3,58,45.71,57.52,46.67,57.5Z"/><path class="cls-19" d="M44.31,61.9l8.37,4.92a1,1,0,0,0,.55.19.87.87,0,0,0,.46-.15C57.21,65,59.19,62,58.88,59a1.22,1.22,0,0,0-.74-1.12,3,3,0,0,0-1.21-.12c-3.75.11-7.44.76-11.21.63-1.23-.05-5.28-.36-5.35,1C40.34,60.12,43.56,61.46,44.31,61.9Z"/><path class="cls-19" d="M37.82,64.19q-.57,3.68-1.13,7.35c0,.14,0,.3.09.39a.92.92,0,0,0,.46.11A22.27,22.27,0,0,0,50.15,68.9c.49-.32,1-.72.94-1.13s-.3-.47-.56-.65c-2.39-1.67-5.4-2.92-7.48-4.76-.69-.61-2.71-2.71-4.45-1.78C37.66,61.08,37.92,63.52,37.82,64.19Z"/><path class="cls-21" d="M40.4,57.88c.24-.61-2.06-2.08-3.84-1.69s-2,1.54-1,2.49S39.59,59.93,40.4,57.88Z"/><path class="cls-19" d="M48.05,46.71c-.37-.85-8-2.87-8.34-2.43s-2,10.48-1.45,10.62.86,1.64,2.64.33S48.46,47.66,48.05,46.71Z"/><path class="cls-19" d="M35.47,71.94c.62-.2,2.17-10.92,1.66-11.19s-1.7-1.53-2.77-.08S31.65,62.86,30,64.5s-4.17,3.89-3.61,4.55S34.26,72.35,35.47,71.94Z"/><g class="cls-22"><path class="cls-18" d="M35.26,55.45c1.25-1,.82-2.51.74-3.9s-.13-2.54-.17-3.81a9.14,9.14,0,0,0-.07-2.28c.31-.54.18-.7-.37-.49-.39,0-.78.09-1.16.15a26.54,26.54,0,0,0-3.56.78,25.88,25.88,0,0,0-3.75,1.38c-.41.2-1.53.49-1.25,1.17a6,6,0,0,0,1.48.74c1.9.79,6.92,4.33,7.87,6.17.19.38-4-2.34-4.34-2.54a37.61,37.61,0,0,0-5.63-2.36c-1.21-.44-2.15-1.31-1.92-2.71.31-1.83,2.34-2.53,3.84-3.13a29.28,29.28,0,0,1,6.36-1.76c1.26-.2,3.25-.79,4.25.31s.57,4.26.58,5.78c0,1.3.59,8.91-2.83,7.14a.41.41,0,0,1-.07-.64Z"/></g><g class="cls-23"><path class="cls-18" d="M34.53,56.42A31.46,31.46,0,0,1,27.64,54c-1.21-.58-2.3-1.33-3.45-2a7.67,7.67,0,0,0-2.1-1.09c-.74,0-1.06.62-1.46,1.21-.55.83-1.57,2.5-1.54,3.55s.46.76,1.41.73c.72,0,1.92,0,2.63-.09,2.48-.32,9.7-.65,12.1.23.77.29-.33.53-1,.8-2.12.8-8.33.78-10.56,1-1.58.19-3.72,1-5.28.48-3.14-1-1.28-5.3-.2-7.19.64-1.1,1.65-2.61,2.94-3s3.1.8,4.23,1.51a32.26,32.26,0,0,0,5.53,3c1.58.61,3.22,1.15,4.25,2.56.28.38-.21.77-.57.7Z"/></g><g class="cls-24"><path class="cls-18" d="M32.1,58.32l0-.22a.51.51,0,0,1,.39-.48c1.75-.56,2.12,1.48,1.5,2.69a21,21,0,0,1-2.68,3.5,44.65,44.65,0,0,1-3.24,3.9c-1.86,1.78-4.57,1.28-6.63.13s-4.87-3.8-5.14-6.13c-.1-.84-.32-3.42.48-3,1.44.81,3.1,4.45,4.27,5.6A7.25,7.25,0,0,0,23.47,66a2.76,2.76,0,0,0,3.42-.65c1.34-1.34,2.5-2.87,3.77-4.27.57-.62,1.94-1.67,1.6-2.56,0-.09-.14-.06-.16-.2Z"/></g><g class="cls-25"><path class="cls-18" d="M49.76,47.4c2.54-.49,5,2.17,6.3,4.05,1,1.4,3.45,5.46,1,6.55-1.49.67-3.64.38-5.21.33A35.09,35.09,0,0,0,45.4,59c-1.41.21-3,.45-4.23-.5a2.13,2.13,0,0,1-.63-3,1,1,0,0,1,1.65,0c1.09,2.15,4.86,1,6.76.81a22.47,22.47,0,0,1,3.48,0c.56,0,2.92.16,3.37-.25,1-.87-1.58-4.19-2.25-4.92-1.19-1.31-2.9-2.07-3.93-3.49a.21.21,0,0,1,.14-.31Z"/></g><g class="cls-26"><path class="cls-18" d="M56.66,57.54c1,0,1.94-.63,2.79.21s.44,2.31.23,3.28c-.52,2.4-2.27,6.32-5.15,6.52a10.07,10.07,0,0,1-4.68-1.33c-1.85-.86-3.66-1.79-5.49-2.69-1.35-.67-3-1.29-3.69-2.79a2,2,0,0,1,.7-2.73c.38-.24.53,0,.59.5.27,2.22,3.18,2.8,4.95,3.65A39.05,39.05,0,0,0,53.14,65c2.36.66,3.69-2,4.41-3.91A5.2,5.2,0,0,0,58,59.52c0-.73,0-.73-.4-1.07s-1.6-.29-2-.73c-.15-.18.77-.18,1-.18Z"/></g><g class="cls-27"><path class="cls-18" d="M40,61c-1.25-.09-1,5.31-1,6.09a15.45,15.45,0,0,0-.14,2.25q-.37,1,.66,1.32a7.73,7.73,0,0,0,1.39-.44,20.68,20.68,0,0,1,4-1.16,14.18,14.18,0,0,0,2.49-.54,9.78,9.78,0,0,0,2.37-1.45l.07-.07a1.15,1.15,0,0,1,1.6,0l.13.12a1.2,1.2,0,0,1,0,1.69,12.08,12.08,0,0,1-3.55,2c-1.47.5-3,.51-4.51.95-1.81.53-5.06,2.45-6.68.4-.75-.94-.31-2.59-.22-3.69.18-2,.33-4,.63-6,.25-1.62,1.25-3.55,3.14-2.52a.54.54,0,0,1-.3,1Z"/></g><g class="cls-28"><path class="cls-18" d="M45.36,45.09a7.35,7.35,0,0,1-2.77.1c-.62,0-1.9-.16-2.31.47-.2.3,0,1.18,0,1.55,0,1.23-.39,2.36-.53,3.58-.2,1.64-1.19,3.07.36,4.32.65.52,1.06,1.53.21,1.6a2.72,2.72,0,0,1-2.74-2.56,18.58,18.58,0,0,1,.42-4c.14-1.35.12-2.71.23-4.06s.52-2.36,1.93-2.58c1.59-.25,4.24.11,5.25,1.47a.09.09,0,0,1,0,.16Z"/></g><g class="cls-29"><path class="cls-18" d="M35.46,60c.81-1.68,2.22,0,2.48,1.08a17.08,17.08,0,0,1-.33,8.28c-.54,1.86-1.64,3.2-3.71,3s-6.49-1.49-7.31-3.54a.75.75,0,0,1,.47-1.08c1.24-.2,2,.37,3.13.87.88.4,3.82,2,4.78,1.15s2-9.4.71-9.33c-.22,0-.3-.25-.22-.41Z"/></g><g class="cls-30"><path class="cls-21" d="M28.87,50.83c1.67-5.82,10.27-6,14.83-4.17,5.48,2.18,11.34,8.19,9.37,14.61-.48,1.57-1.56,3.32-3.27,3.74a3.54,3.54,0,0,1-3.94-1.73c-.61-1.11-.44-2.48-.65-3.69a6.73,6.73,0,0,0-1.28-3,11.23,11.23,0,0,0-6-3.8c-2.57-.71-5.21.12-7.81-.2a1.39,1.39,0,0,1-1.28-1.78Z"/></g><g class="cls-31"><path class="cls-21" d="M49.19,68.07a10,10,0,0,1-4.29-2.72.17.17,0,0,1,.2-.26,30.44,30.44,0,0,1,4.2,2.81c.08.07,0,.19-.11.17Z"/></g><g class="cls-32"><path class="cls-21" d="M47.44,69.18a8.5,8.5,0,0,1-1.65-1.4A6.65,6.65,0,0,1,44.46,66c-.05-.13.08-.3.21-.2a9.36,9.36,0,0,1,1.5,1.58,12.87,12.87,0,0,1,1.32,1.72s0,.06-.05.05Z"/></g><g class="cls-33"><path class="cls-21" d="M40.76,64.71a11.27,11.27,0,0,1,.55,4.23c0,.18-.3.24-.34,0-.27-1.39-.15-2.83-.33-4.23a.06.06,0,0,1,.12,0Z"/></g><path class="cls-21" d="M33.75,65.05a9.76,9.76,0,0,1-1.93,3.76.16.16,0,0,1-.25-.16c.53-1.29,1.45-2.4,2-3.65a.07.07,0,0,1,.13,0Z"/><g class="cls-31"><path class="cls-21" d="M32.49,64.79a9.28,9.28,0,0,1-2.14,2.68c-.06,0-.17,0-.12-.1.66-.92,1.49-1.72,2.18-2.63a0,0,0,0,1,.08.05Z"/></g><g class="cls-32"><path class="cls-21" d="M27.88,61.67a18.42,18.42,0,0,1-3.42,2.75.14.14,0,0,1-.16-.22,18.15,18.15,0,0,1,3.44-2.72c.11-.08.24.1.14.19Z"/></g><g class="cls-31"><path class="cls-21" d="M26.19,60.84a7.75,7.75,0,0,1-3.63,1.4c-.13,0-.19-.21-.06-.26,1.16-.5,2.45-.84,3.65-1.22.06,0,.08.05,0,.08Z"/></g><path class="cls-21" d="M24.26,60.38a20.61,20.61,0,0,1-2,.48.06.06,0,1,1,0-.12,19.91,19.91,0,0,1,2-.62.13.13,0,0,1,.07.26Z"/><path class="cls-21" d="M26.49,53.74a7.93,7.93,0,0,0-2.73-1.35,16.74,16.74,0,0,1-2.12-1,.1.1,0,0,1,.05-.19,9.91,9.91,0,0,1,2.73,1,4.12,4.12,0,0,1,2.08,1.5,0,0,0,0,1,0,0Z"/><g class="cls-31"><path class="cls-21" d="M25,54.31a12.38,12.38,0,0,1-2.48-.64c-.11-.06,0-.21.07-.22a5.19,5.19,0,0,1,2.47.71c.09,0,0,.17-.06.15Z"/></g><path class="cls-21" d="M34.14,51.55A11.09,11.09,0,0,0,33.31,50a8.45,8.45,0,0,1-.92-1.45c0-.14.07-.28.21-.2,1,.58,1.5,2,1.82,3,0,.17-.21.28-.28.11Z"/><g class="cls-31"><path class="cls-21" d="M44.82,46.75a3,3,0,0,1-.63,1.57A20,20,0,0,1,43.08,50c-.18.22-.45,0-.41-.25a3.93,3.93,0,0,1,.85-1.63,9.65,9.65,0,0,0,1.21-1.43s.09,0,.09,0Z"/></g><path class="cls-21" d="M50.33,50.65a12.69,12.69,0,0,1-3.4,2.75.11.11,0,0,1-.12-.17,13.27,13.27,0,0,1,3.44-2.69c.07,0,.13.06.08.11Z"/><g class="cls-32"><path class="cls-21" d="M49.26,52.84a8.49,8.49,0,0,1-3.76,2.53c-.1,0-.19-.11-.1-.18,1.15-.94,2.61-1.54,3.84-2.38,0,0,0,0,0,0Z"/></g><g class="cls-32"><path class="cls-21" d="M55.25,61.88a10.53,10.53,0,0,1-5.22-1,.17.17,0,0,1,.09-.31,16.76,16.76,0,0,1,2.44.5c.91.21,1.83.36,2.73.61a.11.11,0,0,1,0,.22Z"/></g><path class="cls-21" d="M54.76,63.3a7.35,7.35,0,0,1-3.14-.77.13.13,0,0,1,.08-.24,8.18,8.18,0,0,1,1.45.39c.55.15,1.09.29,1.65.39.13,0,.09.25,0,.23Z"/></g></g></g></g></svg>