<svg xmlns="http://www.w3.org/2000/svg" xmlns:xlink="http://www.w3.org/1999/xlink" viewBox="0 0 103.41 93.34"><defs><style>.cls-1{fill:none;}.cls-2{fill:#528332;}.cls-3{fill:#588c36;}.cls-4{fill:#48732c;}.cls-23,.cls-24,.cls-5{fill:#cd0005;}.cls-6{isolation:isolate;}.cls-7{clip-path:url(#clip-path);}.cls-34,.cls-8{opacity:0.21;}.cls-8{mix-blend-mode:soft-light;}.cls-25,.cls-26,.cls-29,.cls-30,.cls-31,.cls-32,.cls-33,.cls-34,.cls-9{fill:#fff;}.cls-10{opacity:0.19;}.cls-10,.cls-21,.cls-23,.cls-24,.cls-27{mix-blend-mode:multiply;}.cls-11{clip-path:url(#clip-path-2);}.cls-12{clip-path:url(#clip-path-3);}.cls-13{clip-path:url(#clip-path-4);}.cls-14{clip-path:url(#clip-path-5);}.cls-15{clip-path:url(#clip-path-6);}.cls-16{clip-path:url(#clip-path-7);}.cls-17{clip-path:url(#clip-path-8);}.cls-18{clip-path:url(#clip-path-9);}.cls-19{clip-path:url(#clip-path-10);}.cls-20{opacity:0.16;}.cls-20,.cls-25{mix-blend-mode:screen;}.cls-21{opacity:0.27;}.cls-22{clip-path:url(#clip-path-11);}.cls-23{opacity:0.08;}.cls-24,.cls-31{opacity:0.15;}.cls-25{opacity:0.13;}.cls-26{opacity:0.1;}.cls-27{fill:#d2251f;opacity:0.52;}.cls-28{fill:#c43d0e;}.cls-29{opacity:0.25;}.cls-30{opacity:0.18;}.cls-32{opacity:0.17;}.cls-33{opacity:0.29;}</style><clipPath id="clip-path"><path class="cls-1" d="M77.25,13.64a20.2,20.2,0,0,1,1.81,6.88A25.29,25.29,0,0,1,79.25,24c0,1.32-.27,2.55.33,3.78a1.75,1.75,0,0,0,3.2,0c1.2-2.31.46-6.09-.27-8.47a10.66,10.66,0,0,0-4.68-6.11c-.29-.19-.78.09-.58.46Z"/></clipPath><clipPath id="clip-path-2"><path class="cls-1" d="M74.73,17.35c.86,1.82,1.65,3.78,2.39,5.66s.45,3.87,1.3,5.49a1.81,1.81,0,0,0,3,.39c1.68-1.91.62-5-.52-6.91-1.38-2.32-3.4-3.57-5.3-5.34-.45-.41-1.17.19-.92.71Z"/></clipPath><clipPath id="clip-path-3"><path class="cls-2" d="M83.36,16.84C82.11,18,81.89,20.1,81.3,21.6c-.77,1.93-2.16,3.39-3.1,5.21a1.75,1.75,0,0,0,1.86,2.37c2.9-.43,4.66-3.23,5.33-5.88.45-1.82.82-5.55-1.29-6.56a.71.71,0,0,0-.74.1Z"/></clipPath><clipPath id="clip-path-4"><path class="cls-1" d="M88.58,23c-.76,1.4-2.58,2.7-3.84,3.61-1.47,1.06-3.19,1.81-4.4,3.18s.22,3.44,1.87,3.2a10.72,10.72,0,0,0,6-3.75,7.34,7.34,0,0,0,1.7-6.08c-.06-.74-1-.7-1.31-.16Z"/></clipPath><clipPath id="clip-path-5"><path class="cls-1" d="M93.92,23.9a31.1,31.1,0,0,1-9.08,4.78c-.92.33-1.87.65-2.82.9a12.93,12.93,0,0,0-2.32.59,2,2,0,0,0-.62,3.25c2.46,2.45,7.68-.3,10.1-1.57,2.87-1.51,6.15-3.53,6.16-7.15a.9.9,0,0,0-1.42-.8Z"/></clipPath><clipPath id="clip-path-6"><path class="cls-1" d="M97.7,34.13c-1.46.35-3-.21-4.4-.57s-2.77-.74-4.16-1.08c-1.63-.41-3.26-.83-4.9-1.19s-2.81-.77-4.06.59a1.52,1.52,0,0,0-.2,1.51c.55,1.77,2.53,1.83,4.09,2.2,1.85.42,3.71.79,5.57,1.18a12.3,12.3,0,0,0,8.49-1.08c.79-.38.52-1.78-.43-1.56Z"/></clipPath><clipPath id="clip-path-7"><path class="cls-3" d="M100.5,27.42c-3.64.92-7.26,2-10.93,2.82a27,27,0,0,1-5.14.72c-1.59,0-3.26-.5-4.68.42a1,1,0,0,0-.37.92c.82,4,7.45,2.6,10.12,1.91a32,32,0,0,0,11.63-5.3c.63-.47.21-1.7-.63-1.49Z"/></clipPath><clipPath id="clip-path-8"><path class="cls-4" d="M99.48,41.5a7,7,0,0,1-1.9.19,4.34,4.34,0,0,1-2.65-.61,20.62,20.62,0,0,1-4.39-3.57c-2-1.91-6-6.81-9-4.37A2,2,0,0,0,82,36.57c3.95,1.25,6.55,5.14,10.06,7.19a8.52,8.52,0,0,0,5.52,1.37c1.89-.3,2.38-1.31,2.79-3,.12-.47-.49-.86-.9-.67Z"/></clipPath><clipPath id="clip-path-9"><path class="cls-2" d="M94.44,48.58C96.61,46,93,42.83,91.18,41.31a25.54,25.54,0,0,1-3.41-3.16c-.81-1-1.72-2.9-3.22-2.83a2.12,2.12,0,0,0-1.66,1.78,4.18,4.18,0,0,0,.55,2.13,12.2,12.2,0,0,0,3,3.54c1.17,1.06,2.47,1.94,3.68,2.94s2,2.54,3.43,3.12a.81.81,0,0,0,.91-.25Z"/></clipPath><clipPath id="clip-path-10"><path class="cls-5" d="M28.19,48.44c3-5.57,8.35-15.17,12.83-19.6,5.14-5.08,9-9.21,16-11,9.93-2.59,22,3.82,27.46,12.54A42.18,42.18,0,0,1,88,38a30.63,30.63,0,0,1,1.84,7,21.72,21.72,0,0,1-1.95,9.19C83.75,61.56,82,62,76.54,65.39a39.39,39.39,0,0,1-18.19,5.44c-4.25.27-5.29.13-10.42.47a73.13,73.13,0,0,1-11.46.2c-4.4-.51-7.29-1.62-9.45-3.2a7.59,7.59,0,0,1-3.32-7.88A39.27,39.27,0,0,1,28.19,48.44Z"/></clipPath><clipPath id="clip-path-11"><path class="cls-1" d="M28.19,48.44c3-5.57,8.35-15.17,12.83-19.6,5.14-5.08,9-9.21,16-11,9.93-2.59,22,3.82,27.46,12.54A42.18,42.18,0,0,1,88,38a30.63,30.63,0,0,1,1.84,7,21.72,21.72,0,0,1-1.95,9.19C83.75,61.56,82,62,76.54,65.39a39.39,39.39,0,0,1-18.19,5.44c-4.25.27-5.29.13-10.42.47a73.13,73.13,0,0,1-11.46.2c-4.4-.51-7.29-1.62-9.45-3.2a7.59,7.59,0,0,1-3.32-7.88A39.27,39.27,0,0,1,28.19,48.44Z"/></clipPath></defs><title>Layer 15</title><g class="cls-6"><g id="Layer_2" data-name="Layer 2"><g id="Layer_1-2" data-name="Layer 1"><g id="Layer_15" data-name="Layer 15"><path class="cls-4" d="M77.25,13.64a20.2,20.2,0,0,1,1.81,6.88A25.29,25.29,0,0,1,79.25,24c0,1.32-.27,2.55.33,3.78a1.75,1.75,0,0,0,3.2,0c1.2-2.31.46-6.09-.27-8.47a10.66,10.66,0,0,0-4.68-6.11c-.29-.19-.78.09-.58.46Z"/><path class="cls-2" d="M74.73,17.35c.86,1.82,1.65,3.78,2.39,5.66s.45,3.87,1.3,5.49a1.81,1.81,0,0,0,3,.39c1.68-1.91.62-5-.52-6.91-1.38-2.32-3.4-3.57-5.3-5.34-.45-.41-1.17.19-.92.71Z"/><g class="cls-7"><g class="cls-8"><path class="cls-9" d="M82.12,20.11c1.34-1.69-.91-4.66-1.58-6.24-.77-1.79-1.64-5.16-4-3.54a.62.62,0,0,0-.11.86c1.11,1.59,2.71,2.75,3.73,4.41.75,1.23.33,3.9,1.71,4.57a.2.2,0,0,0,.23-.06Z"/></g><g class="cls-10"><path class="cls-2" d="M79.4,20.52c1.59-.51.31-4.45-.12-5.62a20.31,20.31,0,0,0-2.43-4.78.31.31,0,0,0-.54.08c-.55,1.69.43,3.65.75,5.32.12.62.24,3.95,1.48,3.56Z"/></g></g><g class="cls-11"><g class="cls-8"><path class="cls-9" d="M79.76,19.77c-.41-.9-1-1.69-1.49-2.57A6.23,6.23,0,0,0,77,15.5c-.68-.65-2.62-2.43-3.62-1.3S74.26,16.54,75,17c1.45,1,2.46,2.73,4.08,3.46a.55.55,0,0,0,.71-.72Z"/></g><g class="cls-10"><path class="cls-2" d="M76.92,25.06c.81-2.08-.26-3.94-.77-6.09-.44-1.78-3.75-4.42-5.64-5.1a.56.56,0,0,0-.77.46c-.09,1.76,4.69,3.4,5.27,5,.67,1.86.75,3.84,1.36,5.72a.3.3,0,0,0,.55,0Z"/></g></g><path class="cls-2" d="M83.36,16.84C82.11,18,81.89,20.1,81.3,21.6c-.77,1.93-2.16,3.39-3.1,5.21a1.75,1.75,0,0,0,1.86,2.37c2.9-.43,4.66-3.23,5.33-5.88.45-1.82.82-5.55-1.29-6.56a.71.71,0,0,0-.74.1Z"/><g class="cls-12"><g class="cls-8"><path class="cls-9" d="M80.64,28.78c2.25,1.64,4.61-3.18,5.17-4.71,1-2.61,1.28-6.45-.38-8.85-.38-.55-1.15-.11-1.1.46A26.66,26.66,0,0,1,84.76,20a9.4,9.4,0,0,1-1.59,4.55c-.34.48-3.65,3.44-2.53,4.26Z"/></g><g class="cls-10"><path class="cls-2" d="M82.15,19.8C84,19,84.27,15.75,83.3,14.17c-.45-.72-1.47-.25-1.6.44s-.09,1.62-.2,2.41a7.77,7.77,0,0,0-.31,2.24.7.7,0,0,0,1,.54Z"/></g></g><path class="cls-4" d="M88.58,23c-.76,1.4-2.58,2.7-3.84,3.61-1.47,1.06-3.19,1.81-4.4,3.18s.22,3.44,1.87,3.2a10.72,10.72,0,0,0,6-3.75,7.34,7.34,0,0,0,1.7-6.08c-.06-.74-1-.7-1.31-.16Z"/><path class="cls-2" d="M93.92,23.9a31.1,31.1,0,0,1-9.08,4.78c-.92.33-1.87.65-2.82.9a12.93,12.93,0,0,0-2.32.59,2,2,0,0,0-.62,3.25c2.46,2.45,7.68-.3,10.1-1.57,2.87-1.51,6.15-3.53,6.16-7.15a.9.9,0,0,0-1.42-.8Z"/><path class="cls-2" d="M97.7,34.13c-1.46.35-3-.21-4.4-.57s-2.77-.74-4.16-1.08c-1.63-.41-3.26-.83-4.9-1.19s-2.81-.77-4.06.59a1.52,1.52,0,0,0-.2,1.51c.55,1.77,2.53,1.83,4.09,2.2,1.85.42,3.71.79,5.57,1.18a12.3,12.3,0,0,0,8.49-1.08c.79-.38.52-1.78-.43-1.56Z"/><g class="cls-13"><g class="cls-8"><path class="cls-9" d="M88.29,28.38c1.26-1,2.24-1.84,2.53-3.52.21-1.17,0-3.08-1-3.82a.26.26,0,0,0-.41.11,18.37,18.37,0,0,0-.32,3.08,12.08,12.08,0,0,1-1,4c-.06.11.05.26.16.17Z"/></g><g class="cls-10"><path class="cls-2" d="M81.67,30.12c1.83-1.47,3.56-3.05,5.42-4.5,1.3-1,3.79-2.48,3.43-4.41,0-.27-.3-.59-.6-.58a3.55,3.55,0,0,0-2.44,1.28c-1,.89-2.06,1.7-3.1,2.54-1.55,1.25-4,3.11-3.46,5.37a.47.47,0,0,0,.75.3Z"/></g></g><g class="cls-14"><g class="cls-8"><path class="cls-9" d="M90.59,30.79c3.56.35,6-5.82,5.36-8.61a.42.42,0,0,0-.74-.2c-1.08,1.38-1.18,3.3-2.12,4.81-.78,1.25-2,1.91-2.91,3a.62.62,0,0,0,.41,1Z"/></g><g class="cls-10"><path class="cls-2" d="M88.38,28a26.1,26.1,0,0,0,4.84-2.43c1-.65,2.89-1.78,2.63-3.2a.42.42,0,0,0-.36-.35c-1.3-.33-2.58,1.25-3.43,2.05-1.29,1.19-2.59,2.37-3.93,3.5a.25.25,0,0,0,.25.43Z"/></g></g><g class="cls-15"><g class="cls-8"><path class="cls-9" d="M83.83,33.84c2.12,2.87,6.07,3.58,9.43,3.52a17.29,17.29,0,0,0,5.28-.92c1.48-.5,3.37-1.09,3.74-2.79.1-.44-.31-.78-.69-.87-1.32-.31-2.62.74-3.82,1.18a16.81,16.81,0,0,1-4.7,1c-3.14.21-6.11-.79-9.18-1.2-.06,0-.09.06-.06.11Z"/></g></g><path class="cls-3" d="M100.5,27.42c-3.64.92-7.26,2-10.93,2.82a27,27,0,0,1-5.14.72c-1.59,0-3.26-.5-4.68.42a1,1,0,0,0-.37.92c.82,4,7.45,2.6,10.12,1.91a32,32,0,0,0,11.63-5.3c.63-.47.21-1.7-.63-1.49Z"/><g class="cls-16"><g class="cls-8"><path class="cls-9" d="M90.82,33.09c2,.88,5.13-.73,6.84-1.67s4.57-2.58,4.73-4.75a.37.37,0,0,0-.51-.38,7.93,7.93,0,0,0-2.34,1.91,14.81,14.81,0,0,1-3.23,2.13,30.22,30.22,0,0,1-3,1.28,5.89,5.89,0,0,0-2.51,1.25.16.16,0,0,0,.07.23Z"/></g><g class="cls-10"><path class="cls-2" d="M91.49,29.85a9.47,9.47,0,0,0,6-.43c2-.62,4.49-1.62,5.76-3.3.52-.68,0-1.93-1-1.7-1.91.47-3.69,1.77-5.51,2.55a27.53,27.53,0,0,0-5.28,2.45.25.25,0,0,0,.06.43Z"/></g></g><path class="cls-4" d="M99.48,41.5a7,7,0,0,1-1.9.19,4.34,4.34,0,0,1-2.65-.61,20.62,20.62,0,0,1-4.39-3.57c-2-1.91-6-6.81-9-4.37A2,2,0,0,0,82,36.57c3.95,1.25,6.55,5.14,10.06,7.19a8.52,8.52,0,0,0,5.52,1.37c1.89-.3,2.38-1.31,2.79-3,.12-.47-.49-.86-.9-.67Z"/><g class="cls-17"><g class="cls-8"><path class="cls-9" d="M91.53,43.16a5.25,5.25,0,0,0,5.94,2.45c1.88-.58,4.94-2.54,4.57-4.82a.61.61,0,0,0-1.07-.28c-1.33,1.38-2.36,2.83-4.39,3.28a4.38,4.38,0,0,1-2.68-.39A10.09,10.09,0,0,0,91.65,43a.13.13,0,0,0-.12.21Z"/></g><g class="cls-10"><path class="cls-2" d="M89.6,36.27C89.48,39,91.8,40.54,94,41.79s6.24,2.86,8.07.4a.65.65,0,0,0-.12-.91c-1.73-1.06-4.05-1-5.91-1.87-1.09-.52-2.14-1.13-3.21-1.68-.63-.33-2.15-.68-2.36-1.47-.1-.42-.8-.51-.82,0Z"/></g></g><path class="cls-2" d="M94.44,48.58C96.61,46,93,42.83,91.18,41.31a25.54,25.54,0,0,1-3.41-3.16c-.81-1-1.72-2.9-3.22-2.83a2.12,2.12,0,0,0-1.66,1.78,4.18,4.18,0,0,0,.55,2.13,12.2,12.2,0,0,0,3,3.54c1.17,1.06,2.47,1.94,3.68,2.94s2,2.54,3.43,3.12a.81.81,0,0,0,.91-.25Z"/><g class="cls-18"><g class="cls-8"><path class="cls-9" d="M87.46,43a20.28,20.28,0,0,0,3.59,5.1,7.12,7.12,0,0,1,1.59,2.36c.24.72.17,1.1.76,1.61a.62.62,0,0,0,.65.08c3.76-2.15-4.58-8.51-6.29-9.46-.18-.1-.38.14-.3.31Z"/></g><g class="cls-10"><path class="cls-2" d="M92.25,44.28a11.14,11.14,0,0,1,1,3.95,18.55,18.55,0,0,0,.61,3.47.5.5,0,0,0,.76.21C96.05,51,96.36,49,96,47.48a5.16,5.16,0,0,0-3.13-3.83.45.45,0,0,0-.63.63Z"/></g></g><path class="cls-5" d="M28.19,48.44c3-5.57,8.35-15.17,12.83-19.6,5.14-5.08,9-9.21,16-11,9.93-2.59,22,3.82,27.46,12.54A42.18,42.18,0,0,1,88,38a30.63,30.63,0,0,1,1.84,7,21.72,21.72,0,0,1-1.95,9.19C83.75,61.56,82,62,76.54,65.39a39.39,39.39,0,0,1-18.19,5.44c-4.25.27-5.29.13-10.42.47a73.13,73.13,0,0,1-11.46.2c-4.4-.51-7.29-1.62-9.45-3.2a7.59,7.59,0,0,1-3.32-7.88A39.27,39.27,0,0,1,28.19,48.44Z"/><g class="cls-19"><g class="cls-20"><path class="cls-9" d="M20.8,66.09c.16,3.22,3.42,5.9,6.1,7.23,3.43,1.72,7.58,2.08,11.35,2,7.64-.08,14.63-2.56,22.07-3.91,7.18-1.3,14.69-1.69,21.16-5.38a22.06,22.06,0,0,0,8.1-7.75,29,29,0,0,0,3.54-11.69c.51-4.24-.31-8.37-1.39-12.44-1-3.81-1.94-8.1-5.32-10.56a2.17,2.17,0,0,0-3.43,2c.84,6,4.1,11.76,4.08,17.94,0,3.23-1.73,5.58-3.35,8.21s-3.08,4.93-5.73,6.6c-5,3.15-11.29,3.48-17,4.38-6.35,1-12.47,3.24-18.87,4-3.61.4-7.27.3-10.89.56a21.46,21.46,0,0,1-5.13-.09,15.59,15.59,0,0,1-4.38-1.83c-.51-.26-1,.26-.94.73Z"/></g><g class="cls-21"><path class="cls-5" d="M24.11,64.42c1.22-2.52,1.95-5.21,3.36-7.67a44.07,44.07,0,0,1,5.39-7.15c4.21-4.72,8.48-9.42,12.88-14,3.82-4,8-8.45,13.14-10.7a21.79,21.79,0,0,1,6.78-1.74A26.16,26.16,0,0,1,73,23c2.88.53,5.23,2.09,7.63,3.64a38.45,38.45,0,0,1,3.7,2.66c1.25,1,2.59,1.7,3.9,2.58A1,1,0,0,0,89.78,31a10.82,10.82,0,0,0-1-4.09A21.74,21.74,0,0,0,85.9,23c-2-2.54-5.29-4.27-8.25-5.46a41.94,41.94,0,0,0-9.13-2.77c-3.21-.47-6.82.35-9.89,1.26-6.73,2-11.94,6.74-16.79,11.61A150.53,150.53,0,0,0,27.39,44.16c-2.35,3.16-4.7,6.59-5.93,10.37-1,3-2.06,8,.64,10.43a1.32,1.32,0,0,0,2-.54Z"/></g></g><g class="cls-22"><path class="cls-23" d="M64,66.62a65.83,65.83,0,0,1-5.1-6.56,28.13,28.13,0,0,1-4.53-12.87c-.87-8.71,2.36-18.67,9.56-24,4-3,9.85-3.73,13.94-.47,2.34,1.86,5-1.23,3.53-3.53-3.44-5.31-9.85-6.63-15.67-4.95a18.57,18.57,0,0,0-2.55,1q.6-.49,1.23-1c3.76-2.78.14-9.34-4.19-7.19-4.88,2.44-9.61,5-13.29,9.1l-.65.75a3.41,3.41,0,0,0-3.74,1.59,79.71,79.71,0,0,0-4.3,7.68,3.46,3.46,0,0,0-3.57,1.57,37.11,37.11,0,0,0-5.3,15.34,5.38,5.38,0,0,0-.49.47A10.68,10.68,0,0,0,27.22,46a7.41,7.41,0,0,0-2.3,3.16,13.7,13.7,0,0,0-.61,6.36,3.83,3.83,0,0,0-.84.25c-1.9.8-3.24,3.41-2.19,5.37a10.38,10.38,0,0,1,1,2.93,11.09,11.09,0,0,0,.2,3.58,4.35,4.35,0,0,0,3.74,3.59c.26.64.54,1.28.83,1.91a4.53,4.53,0,0,0,7.13,1.22,4,4,0,0,0,.59-.16c.48.59,1,1.17,1.46,1.73a4.32,4.32,0,0,0,5.92.77,4.14,4.14,0,0,0,1.24-1.58l.76.83a4.36,4.36,0,0,0,5.95.78,4.26,4.26,0,0,0,1.35-1.85,5.07,5.07,0,0,0,5.14-.58,7.49,7.49,0,0,0,2.47.11A27,27,0,0,0,61.29,76a3.84,3.84,0,0,0,5.82-1.58C68.41,71.09,65.93,68.92,64,66.62Z"/><path class="cls-24" d="M54.1,64.26a72.83,72.83,0,0,1-5.48-7,30,30,0,0,1-4.88-13.79c-.94-9.32,2.51-20,10.23-25.7,4.27-3.17,10.56-4,15-.49,2.51,2,5.39-1.31,3.79-3.78C69,7.79,62.13,6.37,55.88,8.16a19.86,19.86,0,0,0-2.73,1c.43-.35.87-.7,1.32-1,4-3,.13-10-4.5-7.7-5.25,2.61-10.31,5.31-14.26,9.72q-.36.4-.69.81a3.66,3.66,0,0,0-4,1.7,83.07,83.07,0,0,0-4.6,8.22,3.69,3.69,0,0,0-3.83,1.67A39.61,39.61,0,0,0,16.89,39a4.91,4.91,0,0,0-.51.51,10.75,10.75,0,0,0-1.73,2.59,7.66,7.66,0,0,0-2.46,3.39,14.49,14.49,0,0,0-.65,6.8,4.08,4.08,0,0,0-.91.27c-2,.85-3.46,3.64-2.33,5.74a11.37,11.37,0,0,1,1.13,3.14,12.06,12.06,0,0,0,.21,3.83,4.68,4.68,0,0,0,4,3.85c.28.69.57,1.37.88,2.05,1.47,3.14,5.63,3.29,7.67,1.31a4.34,4.34,0,0,0,.62-.16c.52.63,1,1.24,1.57,1.85a4.66,4.66,0,0,0,6.36.83,4.3,4.3,0,0,0,1.33-1.69l.82.89a4.69,4.69,0,0,0,6.39.84,4.49,4.49,0,0,0,1.43-2,5.46,5.46,0,0,0,5.53-.61,8,8,0,0,0,2.65.12,26.34,26.34,0,0,0,2.33,1.76,4.13,4.13,0,0,0,6.25-1.68C58.89,69.06,56.23,66.73,54.1,64.26Z"/><path class="cls-24" d="M49.77,70.05A71.71,71.71,0,0,1,43,64.28a30.19,30.19,0,0,1-7.57-12.52c-2.8-8.94-1.57-20.07,4.84-27.24,3.54-4,9.13-9.41,14.14-6.87,2.86,1.44,4.14-2.06,2.07-4.15C51.69,8.68,46,11.73,40.19,14.75a20.91,20.91,0,0,0-2.47,1.55c.35-.43.71-.86,1.09-1.27,3.35-3.72-1.89-9.82-6-6.63-4.61,3.61-9,7.27-12,12.4q-.27.45-.51.93a3.64,3.64,0,0,0-3.59,2.47,84.18,84.18,0,0,0-2.85,9,3.7,3.7,0,0,0-3.42,2.41A39.7,39.7,0,0,0,8.23,52.81a5.21,5.21,0,0,0-.4.6A10.9,10.9,0,0,0,6.66,56.3a7.82,7.82,0,0,0-1.73,3.81,14.67,14.67,0,0,0,.74,6.79,5.18,5.18,0,0,0-.83.45C3,68.6,2.18,71.62,3.71,73.45a11.13,11.13,0,0,1,1.74,2.84,12.13,12.13,0,0,0,1,3.71,4.67,4.67,0,0,0,4.72,3c.42.62.84,1.23,1.29,1.82,2.06,2.79,6.17,2.09,7.76-.25a5.39,5.39,0,0,0,.59-.29c.63.51,1.26,1,1.91,1.49a4.66,4.66,0,0,0,6.4-.46,4.43,4.43,0,0,0,.95-1.93l1,.71a4.69,4.69,0,0,0,6.42-.47,4.56,4.56,0,0,0,1-2.23,5.47,5.47,0,0,0,5.29-1.71,7.88,7.88,0,0,0,2.62-.42A26.59,26.59,0,0,0,49,80.47a4.12,4.12,0,0,0,5.78-2.91C55.44,73.78,52.36,72,49.77,70.05Z"/><path class="cls-24" d="M46.1,71.41a71.8,71.8,0,0,1-7.64-4.58,30.12,30.12,0,0,1-9.53-11.1c-4.24-8.35-4.86-19.54.28-27.66C32.05,23.57,36.66,17.28,42,19c3.06.95,3.75-2.72,1.36-4.43-5.51-4-10.67,0-15.85,3.91a20.24,20.24,0,0,0-2.19,1.94c.28-.48.56-1,.86-1.44,2.7-4.22-3.48-9.37-7-5.55-3.95,4.32-7.7,8.66-9.79,14.2-.13.34-.25.67-.36,1a3.67,3.67,0,0,0-3.13,3A83.46,83.46,0,0,0,4.63,41a3.7,3.7,0,0,0-3,2.94,39.48,39.48,0,0,0,.63,17.36,4.45,4.45,0,0,0-.31.66,11.21,11.21,0,0,0-.67,3A7.83,7.83,0,0,0,.23,69a14.66,14.66,0,0,0,1.85,6.57,4.44,4.44,0,0,0-.75.58c-1.59,1.53-1.91,4.65-.1,6.2a11.11,11.11,0,0,1,2.18,2.52A12.24,12.24,0,0,0,5,88.37a4.66,4.66,0,0,0,5.14,2.13c.52.54,1,1.08,1.57,1.59,2.5,2.41,6.43,1,7.62-1.53.19-.12.36-.25.53-.38.7.4,1.41.79,2.13,1.16a4.65,4.65,0,0,0,6.23-1.52,4.39,4.39,0,0,0,.63-2l1.08.53a4.7,4.7,0,0,0,6.27-1.52,4.55,4.55,0,0,0,.62-2.36,5.52,5.52,0,0,0,4.94-2.56A8.2,8.2,0,0,0,44.26,81a27.28,27.28,0,0,0,2.81.8A4.12,4.12,0,0,0,52.29,78C52.3,74.16,49,73,46.1,71.41Z"/></g><path class="cls-25" d="M85.05,43.17c.7-6.88-6.17-11.8-12.22-12.93-6.26-1.18-13.09,1.59-17.62,5.86a38.88,38.88,0,0,0-6.41,8l-.45.75A32.73,32.73,0,0,0,45.7,48.1c-.41.48-.82,1-1.21,1.48-2,2.45-5.36,6-4.48,9.35a4.44,4.44,0,0,0,4.29,3.33,8.39,8.39,0,0,0,2.61-.48,22,22,0,0,0,3.64-.13c1.74-.1,3.48-.24,5.21-.41,6-.59,12.42-1.23,17.89-3.91C79,54.72,84.41,49.38,85.05,43.17Z"/><path class="cls-26" d="M82,44.15c.49-4.87-4.37-8.35-8.65-9.15s-9.26,1.12-12.46,4.15a28,28,0,0,0-4.54,5.68c-.1.18-.21.36-.32.53a25.32,25.32,0,0,0-1.87,2.27l-.86,1c-1.38,1.74-3.78,4.21-3.16,6.62a3.12,3.12,0,0,0,3,2.35A5.85,5.85,0,0,0,55,57.31a14.66,14.66,0,0,0,2.57-.09c1.23-.07,2.46-.17,3.69-.29,4.23-.41,8.78-.87,12.65-2.76S81.55,48.54,82,44.15Z"/><path class="cls-26" d="M78.09,45.16c.3-2.93-2.63-5-5.2-5.51a9,9,0,0,0-7.5,2.5,16.1,16.1,0,0,0-2.73,3.42c-.07.1-.13.21-.19.31-4.13,9.57,8.44,6.44,10.77,5.3S77.82,47.8,78.09,45.16Z"/><path class="cls-27" d="M27.2,54.74A1.22,1.22,0,1,1,29,56.41c-.46.49-2.28.65-2.28.65A5.33,5.33,0,0,1,27.2,54.74Z"/><path class="cls-28" d="M27.52,55.19a.66.66,0,0,1,1,.9c-.25.27-1.23.36-1.23.36S27.27,55.46,27.52,55.19Z"/><path class="cls-29" d="M27.9,55.65a.24.24,0,0,1,.34,0,.23.23,0,0,1,0,.33c-.09.1-.44.13-.44.13S27.81,55.75,27.9,55.65Z"/><path class="cls-27" d="M26.32,61.91a1.22,1.22,0,0,1,1.72.18,1.21,1.21,0,0,1-.18,1.71c-.52.43-2.34.34-2.34.34S25.8,62.34,26.32,61.91Z"/><path class="cls-28" d="M26.58,62.4a.66.66,0,0,1,.83,1,2.89,2.89,0,0,1-1.27.19S26.3,62.63,26.58,62.4Z"/><path class="cls-30" d="M26.9,62.91a.23.23,0,0,1,.33,0,.24.24,0,0,1,0,.34c-.1.08-.46.06-.46.06S26.8,63,26.9,62.91Z"/><path class="cls-27" d="M34.17,63.86a1.22,1.22,0,1,1,.93,2.25c-.63.26-2.35-.35-2.35-.35S33.54,64.11,34.17,63.86Z"/><path class="cls-28" d="M34.27,64.4a.66.66,0,1,1,.5,1.22c-.34.14-1.26-.19-1.26-.19S33.93,64.54,34.27,64.4Z"/><path class="cls-30" d="M34.43,65a.23.23,0,0,1,.31.13.24.24,0,0,1-.13.31c-.12,0-.46-.07-.46-.07S34.31,65,34.43,65Z"/><path class="cls-27" d="M34.61,67.69a1.22,1.22,0,1,1,.93,2.25c-.62.26-2.34-.35-2.34-.35S34,67.94,34.61,67.69Z"/><path class="cls-28" d="M34.72,68.23a.64.64,0,0,1,.85.36.66.66,0,0,1-.35.86c-.34.14-1.27-.19-1.27-.19S34.38,68.37,34.72,68.23Z"/><path class="cls-30" d="M34.88,68.81a.24.24,0,0,1,.18.44c-.12,0-.46-.07-.46-.07S34.75,68.86,34.88,68.81Z"/><path class="cls-27" d="M29.52,57.56a1.22,1.22,0,0,1,.93,2.25c-.62.26-2.34-.35-2.34-.35S28.9,57.81,29.52,57.56Z"/><path class="cls-28" d="M29.62,58.1a.66.66,0,1,1,.5,1.22c-.33.14-1.26-.19-1.26-.19S29.29,58.24,29.62,58.1Z"/><path class="cls-30" d="M29.78,58.68a.25.25,0,0,1,.32.13.24.24,0,0,1-.13.31,1,1,0,0,1-.46-.07S29.66,58.73,29.78,58.68Z"/><path class="cls-27" d="M35.59,56.22A1.22,1.22,0,0,1,37.27,58c-.48.47-2.31.53-2.31.53S35.1,56.68,35.59,56.22Z"/><path class="cls-28" d="M35.88,56.69a.66.66,0,1,1,.91,1c-.26.25-1.25.28-1.25.28S35.62,56.94,35.88,56.69Z"/><path class="cls-30" d="M36.24,57.16a.24.24,0,0,1,.33.35,1,1,0,0,1-.45.1S36.14,57.26,36.24,57.16Z"/><path class="cls-27" d="M34,48.77a1.22,1.22,0,0,1,1.69,1.76c-.49.47-2.32.53-2.32.53S33.48,49.24,34,48.77Z"/><path class="cls-28" d="M34.26,49.24a.66.66,0,0,1,.91.95c-.26.25-1.25.28-1.25.28S34,49.49,34.26,49.24Z"/><path class="cls-30" d="M34.62,49.72a.25.25,0,0,1,.34,0,.24.24,0,0,1,0,.34c-.09.09-.45.1-.45.1A1.07,1.07,0,0,1,34.62,49.72Z"/><path class="cls-27" d="M36.35,44.49A1.22,1.22,0,0,1,38,46.26c-.48.46-2.31.52-2.31.52S35.86,45,36.35,44.49Z"/><path class="cls-28" d="M36.64,45a.66.66,0,1,1,.91.95c-.26.26-1.25.29-1.25.29S36.38,45.21,36.64,45Z"/><path class="cls-31" d="M37,45.44a.24.24,0,0,1,.34,0,.24.24,0,0,1,0,.33,1.09,1.09,0,0,1-.45.11A1.11,1.11,0,0,1,37,45.44Z"/><path class="cls-27" d="M39.35,46.49A1.22,1.22,0,0,1,41,48.25c-.49.47-2.32.53-2.32.53S38.86,47,39.35,46.49Z"/><path class="cls-28" d="M39.64,47a.66.66,0,0,1,.93,0,.65.65,0,0,1,0,.93c-.26.25-1.24.28-1.24.28S39.38,47.21,39.64,47Z"/><path class="cls-31" d="M40,47.44a.24.24,0,0,1,.34,0,.23.23,0,0,1,0,.33c-.09.09-.45.1-.45.1A1.07,1.07,0,0,1,40,47.44Z"/><path class="cls-27" d="M37.65,51.3a1.22,1.22,0,0,1,1.69,1.76c-.49.47-2.32.53-2.32.53S37.16,51.77,37.65,51.3Z"/><path class="cls-28" d="M37.94,51.77a.66.66,0,0,1,.93,0,.65.65,0,0,1,0,.93c-.26.25-1.24.28-1.24.28S37.68,52,37.94,51.77Z"/><path class="cls-30" d="M38.3,52.25a.25.25,0,0,1,.34,0,.24.24,0,0,1,0,.34c-.09.09-.45.1-.45.1A1.07,1.07,0,0,1,38.3,52.25Z"/><path class="cls-27" d="M37.5,39.37a1.22,1.22,0,1,1,1.69,1.76c-.49.47-2.31.52-2.31.52S37,39.83,37.5,39.37Z"/><path class="cls-28" d="M37.8,39.84a.66.66,0,0,1,.91.95c-.26.25-1.25.28-1.25.28S37.54,40.09,37.8,39.84Z"/><path class="cls-31" d="M38.16,40.31a.24.24,0,0,1,.33,0,.25.25,0,0,1,0,.34,1,1,0,0,1-.45.1S38.06,40.4,38.16,40.31Z"/><path class="cls-27" d="M42.07,29.81a1.22,1.22,0,1,1,1.68,1.76c-.48.46-2.31.52-2.31.52S41.58,30.27,42.07,29.81Z"/><path class="cls-28" d="M42.36,30.27a.65.65,0,0,1,.93,0,.66.66,0,0,1,0,.93c-.26.25-1.25.28-1.25.28A3,3,0,0,1,42.36,30.27Z"/><path class="cls-31" d="M42.72,30.75a.23.23,0,0,1,.33,0,.24.24,0,0,1,0,.34,1,1,0,0,1-.45.1S42.62,30.84,42.72,30.75Z"/><path class="cls-27" d="M46.52,50.39a1.22,1.22,0,0,1,1.69,1.76c-.49.46-2.32.52-2.32.52S46,50.85,46.52,50.39Z"/><path class="cls-28" d="M46.81,50.86a.64.64,0,0,1,.93,0,.66.66,0,0,1,0,.93c-.26.25-1.25.28-1.25.28S46.55,51.11,46.81,50.86Z"/><path class="cls-32" d="M47.17,51.33a.24.24,0,0,1,.34,0,.25.25,0,0,1,0,.34c-.09.09-.45.1-.45.1A1.11,1.11,0,0,1,47.17,51.33Z"/><path class="cls-27" d="M42.31,52.48A1.22,1.22,0,1,1,44,54.24c-.48.46-2.31.52-2.31.52S41.83,52.94,42.31,52.48Z"/><path class="cls-28" d="M42.61,53a.64.64,0,0,1,.93,0,.66.66,0,0,1,0,.93c-.26.25-1.25.28-1.25.28S42.35,53.2,42.61,53Z"/><path class="cls-30" d="M43,53.42a.23.23,0,0,1,.33,0,.25.25,0,0,1,0,.34,1,1,0,0,1-.45.1S42.87,53.51,43,53.42Z"/><path class="cls-27" d="M32.18,53.87a1.22,1.22,0,0,1,1.69,1.76c-.49.47-2.32.53-2.32.53S31.69,54.33,32.18,53.87Z"/><path class="cls-28" d="M32.47,54.34a.66.66,0,0,1,.91.95c-.26.25-1.25.28-1.25.28S32.21,54.59,32.47,54.34Z"/><path class="cls-30" d="M32.83,54.82a.24.24,0,1,1,.33.34c-.09.09-.45.1-.45.1A1.07,1.07,0,0,1,32.83,54.82Z"/><path class="cls-27" d="M57.24,43A1.22,1.22,0,0,1,59,43a1.23,1.23,0,0,1,0,1.73c-.49.47-2.32.52-2.32.52S56.75,43.44,57.24,43Z"/><path class="cls-28" d="M57.53,43.45a.65.65,0,0,1,.93,0,.66.66,0,0,1,0,.93c-.26.25-1.24.28-1.24.28S57.27,43.7,57.53,43.45Z"/><path class="cls-30" d="M57.89,43.92a.25.25,0,0,1,.34,0,.24.24,0,0,1,0,.34c-.09.09-.45.1-.45.1A1.11,1.11,0,0,1,57.89,43.92Z"/><path class="cls-27" d="M53.23,41.6a1.22,1.22,0,0,1,1.69,1.77c-.49.46-2.32.52-2.32.52S52.74,42.07,53.23,41.6Z"/><path class="cls-28" d="M53.52,42.07a.66.66,0,0,1,.93,0,.64.64,0,0,1,0,.93c-.26.26-1.24.29-1.24.29S53.26,42.32,53.52,42.07Z"/><path class="cls-32" d="M53.88,42.55a.24.24,0,0,1,.34,0,.23.23,0,0,1,0,.33c-.09.1-.45.11-.45.11A1.11,1.11,0,0,1,53.88,42.55Z"/><path class="cls-27" d="M63.73,41.26a1.22,1.22,0,0,1,1.19,2.13c-.58.33-2.37-.07-2.37-.07S63.14,41.59,63.73,41.26Z"/><path class="cls-28" d="M63.9,41.79a.66.66,0,0,1,.64,1.15c-.32.18-1.28,0-1.28,0S63.58,42,63.9,41.79Z"/><path class="cls-33" d="M64.13,42.34a.24.24,0,0,1,.32.09.25.25,0,0,1-.09.33,1.06,1.06,0,0,1-.46,0S64,42.41,64.13,42.34Z"/><path class="cls-27" d="M73.23,36.53a1.22,1.22,0,1,1,1.19,2.13c-.58.33-2.37-.07-2.37-.07S72.64,36.86,73.23,36.53Z"/><path class="cls-28" d="M73.4,37.06a.65.65,0,0,1,.89.25.66.66,0,0,1-.25.9,3,3,0,0,1-1.28,0S73.08,37.24,73.4,37.06Z"/><path class="cls-34" d="M73.62,37.61a.25.25,0,0,1,.33.09.24.24,0,0,1-.09.32c-.12.07-.46,0-.46,0S73.51,37.67,73.62,37.61Z"/><path class="cls-27" d="M75,40.92a1.22,1.22,0,0,1,1.2,2.13A5.28,5.28,0,0,1,73.87,43S74.45,41.25,75,40.92Z"/><path class="cls-28" d="M75.21,41.45a.64.64,0,0,1,.89.25.66.66,0,0,1-.25.9,2.93,2.93,0,0,1-1.27,0S74.89,41.63,75.21,41.45Z"/><path class="cls-34" d="M75.44,42a.24.24,0,0,1,.32.09.22.22,0,0,1-.09.32c-.11.07-.46,0-.46,0S75.32,42.06,75.44,42Z"/><path class="cls-27" d="M68.47,36.2a1.22,1.22,0,1,1,1.2,2.12,5.28,5.28,0,0,1-2.37-.07S67.88,36.53,68.47,36.2Z"/><path class="cls-28" d="M68.64,36.72a.66.66,0,0,1,.64,1.15c-.31.18-1.27,0-1.27,0S68.32,36.9,68.64,36.72Z"/><path class="cls-34" d="M68.87,37.27a.24.24,0,0,1,.32.1.22.22,0,0,1-.09.32,1.11,1.11,0,0,1-.46,0S68.75,37.34,68.87,37.27Z"/><path class="cls-27" d="M61,38.16a1.22,1.22,0,1,1,1.2,2.12,5.28,5.28,0,0,1-2.37-.07S60.44,38.49,61,38.16Z"/><path class="cls-28" d="M61.19,38.68a.66.66,0,1,1,.64,1.15c-.31.18-1.27,0-1.27,0S60.87,38.86,61.19,38.68Z"/><path class="cls-33" d="M61.42,39.23a.24.24,0,0,1,.32.1.23.23,0,0,1-.09.32,1.11,1.11,0,0,1-.46,0S61.3,39.3,61.42,39.23Z"/><path class="cls-27" d="M81.57,39a1.23,1.23,0,1,1,1.84,1.62c-.45.5-2.26.72-2.26.72A5.38,5.38,0,0,1,81.57,39Z"/><path class="cls-28" d="M81.91,39.44a.65.65,0,0,1,.93-.06.66.66,0,0,1,0,.93c-.24.27-1.21.38-1.21.38S81.67,39.71,81.91,39.44Z"/><path class="cls-34" d="M82.31,39.88a.23.23,0,0,1,.33,0,.24.24,0,0,1,0,.34c-.08.09-.44.14-.44.14S82.22,40,82.31,39.88Z"/><path class="cls-27" d="M85.15,37.65a1.21,1.21,0,0,1,1.72-.11A1.23,1.23,0,0,1,87,39.26c-.45.51-2.26.72-2.26.72S84.7,38.15,85.15,37.65Z"/><path class="cls-28" d="M85.48,38.09a.66.66,0,1,1,1,.87,3,3,0,0,1-1.22.39S85.24,38.36,85.48,38.09Z"/><path class="cls-34" d="M85.88,38.54a.24.24,0,0,1,.33,0,.24.24,0,0,1,0,.34c-.08.1-.44.14-.44.14S85.79,38.63,85.88,38.54Z"/><path class="cls-27" d="M77.54,37.05a1.22,1.22,0,1,1,1.83,1.62c-.45.5-2.26.72-2.26.72S77.09,37.56,77.54,37.05Z"/><path class="cls-28" d="M77.87,37.5a.65.65,0,0,1,.93-.06.66.66,0,0,1,.06.93c-.24.27-1.22.38-1.22.38S77.63,37.77,77.87,37.5Z"/><path class="cls-34" d="M78.27,37.94a.23.23,0,0,1,.33,0,.24.24,0,0,1,0,.33,1.07,1.07,0,0,1-.44.15S78.18,38,78.27,37.94Z"/><path class="cls-27" d="M80.88,34.8a1.23,1.23,0,0,1,1.72-.11,1.21,1.21,0,0,1,.11,1.72c-.45.51-2.26.72-2.26.72S80.43,35.31,80.88,34.8Z"/><path class="cls-28" d="M81.21,35.25a.66.66,0,0,1,1,.86c-.24.28-1.22.39-1.22.39S81,35.52,81.21,35.25Z"/><path class="cls-34" d="M81.61,35.69a.24.24,0,0,1,.34,0A.25.25,0,0,1,82,36c-.09.1-.44.14-.44.14S81.52,35.79,81.61,35.69Z"/><path class="cls-27" d="M79.42,43.82a1.22,1.22,0,0,1,1.84,1.61c-.45.51-2.26.72-2.26.72S79,44.32,79.42,43.82Z"/><path class="cls-28" d="M79.76,44.26a.66.66,0,1,1,1,.87c-.24.27-1.21.39-1.21.39S79.52,44.53,79.76,44.26Z"/><path class="cls-34" d="M80.16,44.7a.25.25,0,0,1,.33,0,.24.24,0,0,1,0,.34c-.08.1-.44.14-.44.14S80.07,44.8,80.16,44.7Z"/><path class="cls-27" d="M83.67,31.57a1.22,1.22,0,0,1,0,2.44c-.67,0-2-1.21-2-1.21S83,31.57,83.67,31.57Z"/><path class="cls-28" d="M83.56,32.11a.66.66,0,1,1,0,1.32c-.36,0-1.1-.65-1.1-.65S83.19,32.12,83.56,32.11Z"/><path class="cls-33" d="M83.49,32.71a.23.23,0,0,1,.24.23.24.24,0,0,1-.24.24c-.13,0-.4-.23-.4-.23S83.36,32.71,83.49,32.71Z"/><path class="cls-27" d="M76.16,27.92a1.22,1.22,0,0,1,.16,2.43c-.68,0-2.11-1.08-2.11-1.08S75.49,28,76.16,27.92Z"/><path class="cls-28" d="M76.08,28.46a.66.66,0,0,1,.09,1.32c-.37,0-1.14-.59-1.14-.59S75.72,28.49,76.08,28.46Z"/><path class="cls-33" d="M76.05,29.06a.24.24,0,0,1,.25.22.23.23,0,0,1-.22.25c-.13,0-.41-.21-.41-.21S75.92,29.07,76.05,29.06Z"/><path class="cls-27" d="M75.36,22.81a1.22,1.22,0,0,1,.16,2.43c-.68,0-2.11-1.08-2.11-1.08S74.69,22.85,75.36,22.81Z"/><path class="cls-28" d="M75.28,23.35a.66.66,0,0,1,.09,1.32c-.37,0-1.14-.59-1.14-.59S74.92,23.38,75.28,23.35Z"/><path class="cls-32" d="M75.25,24a.24.24,0,0,1,.25.22.24.24,0,0,1-.22.26c-.13,0-.41-.22-.41-.22S75.12,24,75.25,24Z"/><path class="cls-27" d="M66.27,23.46a1.22,1.22,0,1,1,.15,2.43c-.67.05-2.1-1.08-2.1-1.08S65.59,23.5,66.27,23.46Z"/><path class="cls-28" d="M66.19,24a.66.66,0,1,1,.08,1.31c-.36,0-1.13-.59-1.13-.59S65.83,24,66.19,24Z"/><path class="cls-32" d="M66.16,24.6a.24.24,0,0,1,.25.22.24.24,0,0,1-.22.26c-.13,0-.41-.21-.41-.21S66,24.61,66.16,24.6Z"/><path class="cls-27" d="M77,31.71a1.22,1.22,0,0,1,.16,2.44c-.67,0-2.11-1.09-2.11-1.09S76.34,31.76,77,31.71Z"/><path class="cls-28" d="M76.93,32.26A.66.66,0,0,1,77,33.58c-.36,0-1.14-.59-1.14-.59S76.57,32.29,76.93,32.26Z"/><path class="cls-33" d="M76.9,32.86a.24.24,0,1,1,0,.47c-.13,0-.41-.21-.41-.21S76.77,32.87,76.9,32.86Z"/><path class="cls-27" d="M80.53,28.75a1.22,1.22,0,0,1,.16,2.44c-.68,0-2.11-1.09-2.11-1.09S79.85,28.8,80.53,28.75Z"/><path class="cls-28" d="M80.45,29.3a.66.66,0,0,1,.09,1.32c-.37,0-1.14-.59-1.14-.59S80.09,29.33,80.45,29.3Z"/><path class="cls-33" d="M80.42,29.9a.24.24,0,0,1,.25.22.23.23,0,0,1-.22.25c-.13,0-.41-.21-.41-.21S80.29,29.91,80.42,29.9Z"/><path class="cls-27" d="M69.87,26.63A1.22,1.22,0,0,1,70,29.07c-.68,0-2.11-1.09-2.11-1.09S69.19,26.68,69.87,26.63Z"/><path class="cls-28" d="M69.79,27.18a.66.66,0,0,1,.09,1.32c-.37,0-1.14-.59-1.14-.59S69.43,27.21,69.79,27.18Z"/><path class="cls-32" d="M69.76,27.78A.24.24,0,0,1,70,28a.23.23,0,0,1-.22.25c-.13,0-.41-.21-.41-.21S69.63,27.79,69.76,27.78Z"/><path class="cls-27" d="M64.59,49.52a1.22,1.22,0,1,1,1.19,2.13c-.58.33-2.37-.07-2.37-.07S64,49.85,64.59,49.52Z"/><path class="cls-28" d="M64.76,50.05a.65.65,0,1,1,.64,1.14,2.85,2.85,0,0,1-1.28,0S64.44,50.23,64.76,50.05Z"/><path class="cls-34" d="M65,50.6a.24.24,0,0,1,.33.09.24.24,0,0,1-.09.32c-.12.07-.46,0-.46,0S64.87,50.66,65,50.6Z"/><path class="cls-27" d="M64.31,52.8a1.22,1.22,0,0,1,1.2,2.13,5.28,5.28,0,0,1-2.37-.07S63.72,53.13,64.31,52.8Z"/><path class="cls-28" d="M64.48,53.33a.65.65,0,1,1,.64,1.14c-.31.18-1.27,0-1.27,0S64.16,53.51,64.48,53.33Z"/><path class="cls-34" d="M64.71,53.88a.24.24,0,1,1,.23.41c-.11.07-.46,0-.46,0S64.59,53.94,64.71,53.88Z"/><path class="cls-27" d="M59.31,56.23a1.22,1.22,0,1,1,1.19,2.13c-.58.33-2.37-.07-2.37-.07S58.72,56.56,59.31,56.23Z"/><path class="cls-28" d="M59.48,56.76a.65.65,0,1,1,.64,1.14,2.85,2.85,0,0,1-1.28,0S59.16,56.93,59.48,56.76Z"/><path class="cls-33" d="M59.7,57.31a.24.24,0,0,1,.33.09.24.24,0,0,1-.09.32c-.12.07-.46,0-.46,0S59.59,57.37,59.7,57.31Z"/><path class="cls-27" d="M59.38,48.17a1.22,1.22,0,0,1,1.2,2.13,5.28,5.28,0,0,1-2.37-.07S58.79,48.5,59.38,48.17Z"/><path class="cls-28" d="M59.55,48.7a.65.65,0,1,1,.64,1.14c-.31.18-1.28,0-1.28,0S59.23,48.88,59.55,48.7Z"/><path class="cls-33" d="M59.78,49.25a.22.22,0,0,1,.32.09.23.23,0,0,1-.09.32c-.11.07-.46,0-.46,0S59.66,49.31,59.78,49.25Z"/><path class="cls-27" d="M60,51.44a1.22,1.22,0,1,1,1.19,2.13c-.58.33-2.37-.07-2.37-.07S59.43,51.77,60,51.44Z"/><path class="cls-28" d="M60.18,52a.66.66,0,0,1,.65,1.15,3,3,0,0,1-1.28,0S59.87,52.15,60.18,52Z"/><path class="cls-33" d="M60.41,52.52a.24.24,0,1,1,.24.42,1.11,1.11,0,0,1-.47,0S60.3,52.58,60.41,52.52Z"/><path class="cls-27" d="M59.57,34.59a1.22,1.22,0,0,1,1.68,1.76c-.48.47-2.31.53-2.31.53S59.08,35.06,59.57,34.59Z"/><path class="cls-28" d="M59.86,35.06a.66.66,0,1,1,.91.95c-.26.25-1.25.28-1.25.28S59.6,35.31,59.86,35.06Z"/><path class="cls-33" d="M60.22,35.54a.24.24,0,0,1,.33,0,.24.24,0,0,1,0,.34,1,1,0,0,1-.45.1S60.12,35.63,60.22,35.54Z"/><path class="cls-27" d="M66.61,29.9a1.22,1.22,0,0,1,1.07,2.2,5.36,5.36,0,0,1-2.36-.21S66,30.2,66.61,29.9Z"/><path class="cls-28" d="M66.75,30.44a.66.66,0,0,1,.88.3.66.66,0,0,1-.31.88c-.32.16-1.27-.11-1.27-.11S66.42,30.6,66.75,30.44Z"/><path class="cls-32" d="M66.94,31a.25.25,0,0,1,.32.11.24.24,0,0,1-.11.32c-.12.06-.46,0-.46,0S66.83,31.06,66.94,31Z"/><path class="cls-27" d="M62.07,30.44A1.22,1.22,0,0,1,63.7,31a1.21,1.21,0,0,1-.56,1.63c-.6.3-2.36-.2-2.36-.2S61.47,30.74,62.07,30.44Z"/><path class="cls-28" d="M62.21,31a.65.65,0,0,1,.88.3.66.66,0,0,1-.3.88,2.87,2.87,0,0,1-1.28-.11S61.88,31.14,62.21,31Z"/><path class="cls-32" d="M62.41,31.54a.23.23,0,0,1,.31.11.24.24,0,0,1-.11.32c-.11.06-.46,0-.46,0S62.29,31.6,62.41,31.54Z"/><path class="cls-27" d="M70.38,31.68a1.22,1.22,0,1,1,1.07,2.19c-.6.3-2.36-.2-2.36-.2S69.78,32,70.38,31.68Z"/><path class="cls-28" d="M70.52,32.21a.66.66,0,1,1,.57,1.19c-.32.16-1.27-.11-1.27-.11S70.19,32.37,70.52,32.21Z"/><path class="cls-33" d="M70.71,32.78a.23.23,0,0,1,.32.11.23.23,0,0,1-.11.31c-.11.06-.46,0-.46,0S70.6,32.83,70.71,32.78Z"/><path class="cls-27" d="M65.26,33.56a1.24,1.24,0,0,1,1.64.56,1.22,1.22,0,0,1-.56,1.63,5.27,5.27,0,0,1-2.37-.2S64.66,33.86,65.26,33.56Z"/><path class="cls-28" d="M65.4,34.1A.66.66,0,1,1,66,35.28a2.82,2.82,0,0,1-1.27-.11S65.08,34.26,65.4,34.1Z"/><path class="cls-33" d="M65.6,34.66a.24.24,0,0,1,.32.11.25.25,0,0,1-.11.32c-.12.06-.46,0-.46,0S65.48,34.72,65.6,34.66Z"/><path class="cls-27" d="M63,26.77A1.22,1.22,0,0,1,64.11,29a5.22,5.22,0,0,1-2.36-.2S62.43,27.07,63,26.77Z"/><path class="cls-28" d="M63.17,27.31a.66.66,0,1,1,.58,1.18,2.82,2.82,0,0,1-1.27-.11S62.85,27.47,63.17,27.31Z"/><path class="cls-32" d="M63.37,27.87a.24.24,0,0,1,.21.43c-.12.06-.46,0-.46,0S63.25,27.93,63.37,27.87Z"/><path class="cls-27" d="M69.62,21.46a1.22,1.22,0,1,1,.11,2.43c-.67,0-2.08-1.12-2.08-1.12S69,21.49,69.62,21.46Z"/><path class="cls-28" d="M69.53,22a.67.67,0,0,1,.69.63.66.66,0,0,1-.63.69c-.36,0-1.12-.61-1.12-.61S69.17,22,69.53,22Z"/><path class="cls-32" d="M69.49,22.6a.24.24,0,0,1,.25.22.23.23,0,0,1-.23.25c-.13,0-.4-.22-.4-.22S69.36,22.6,69.49,22.6Z"/><path class="cls-27" d="M64.34,19.86a1.22,1.22,0,1,1,.11,2.43c-.67,0-2.08-1.12-2.08-1.12S63.67,19.89,64.34,19.86Z"/><path class="cls-28" d="M64.25,20.4a.66.66,0,0,1,.06,1.32c-.36,0-1.12-.61-1.12-.61S63.89,20.42,64.25,20.4Z"/><path class="cls-32" d="M64.21,21a.24.24,0,0,1,.25.23.23.23,0,0,1-.23.24c-.13,0-.4-.22-.4-.22S64.08,21,64.21,21Z"/><path class="cls-27" d="M61.31,23.87a1.22,1.22,0,1,1,.11,2.43c-.68,0-2.09-1.12-2.09-1.12S60.63,23.9,61.31,23.87Z"/><path class="cls-28" d="M61.22,24.41a.66.66,0,0,1,.06,1.32c-.37,0-1.13-.61-1.13-.61S60.85,24.43,61.22,24.41Z"/><path class="cls-32" d="M61.17,25a.23.23,0,0,1,.25.23.22.22,0,0,1-.22.24c-.14,0-.41-.22-.41-.22S61,25,61.17,25Z"/><path class="cls-27" d="M46.73,41.38a1.22,1.22,0,0,1,1.69,1.77c-.49.46-2.32.52-2.32.52S46.24,41.85,46.73,41.38Z"/><path class="cls-28" d="M47,41.85a.66.66,0,0,1,.93,0,.65.65,0,0,1,0,.93c-.26.25-1.24.29-1.24.29S46.76,42.1,47,41.85Z"/><path class="cls-31" d="M47.38,42.33a.24.24,0,0,1,.34,0,.23.23,0,0,1,0,.33c-.09.09-.45.11-.45.11A1.11,1.11,0,0,1,47.38,42.33Z"/><path class="cls-27" d="M41.12,41.2A1.22,1.22,0,0,1,42.81,43c-.49.47-2.32.53-2.32.53S40.63,41.66,41.12,41.2Z"/><path class="cls-28" d="M41.41,41.67a.66.66,0,1,1,.91.95c-.26.25-1.25.28-1.25.28S41.15,41.92,41.41,41.67Z"/><path class="cls-31" d="M41.77,42.14a.25.25,0,0,1,.34,0,.24.24,0,0,1,0,.34c-.09.09-.45.1-.45.1A1.15,1.15,0,0,1,41.77,42.14Z"/><path class="cls-27" d="M43.11,36.37a1.22,1.22,0,0,1,1.68,1.76c-.48.47-2.31.53-2.31.53S42.62,36.83,43.11,36.37Z"/><path class="cls-28" d="M43.4,36.84a.66.66,0,0,1,.91.95c-.26.25-1.25.28-1.25.28S43.14,37.09,43.4,36.84Z"/><path class="cls-31" d="M43.76,37.32a.23.23,0,0,1,.33,0,.24.24,0,0,1,0,.34,1,1,0,0,1-.45.1S43.66,37.41,43.76,37.32Z"/><path class="cls-27" d="M54.11,38.13A1.22,1.22,0,1,1,55.8,39.9a5.36,5.36,0,0,1-2.31.52S53.63,38.6,54.11,38.13Z"/><path class="cls-28" d="M54.41,38.6a.66.66,0,1,1,.91.95c-.26.25-1.25.29-1.25.29S54.15,38.85,54.41,38.6Z"/><path class="cls-32" d="M54.77,39.08a.23.23,0,0,1,.33,0,.24.24,0,0,1,0,.33,1.13,1.13,0,0,1-.46.11S54.67,39.17,54.77,39.08Z"/><path class="cls-27" d="M49.78,38.42a1.22,1.22,0,1,1,1.68,1.76c-.48.46-2.31.52-2.31.52S49.29,38.88,49.78,38.42Z"/><path class="cls-28" d="M50.07,38.89a.64.64,0,0,1,.93,0,.66.66,0,0,1,0,.93c-.26.25-1.25.28-1.25.28S49.81,39.14,50.07,38.89Z"/><path class="cls-31" d="M50.43,39.36a.24.24,0,1,1,.33.35,1,1,0,0,1-.45.1A1.11,1.11,0,0,1,50.43,39.36Z"/><path class="cls-27" d="M58.09,28.4a1.22,1.22,0,1,1,1.69,1.76c-.49.47-2.31.53-2.31.53S57.61,28.87,58.09,28.4Z"/><path class="cls-28" d="M58.39,28.87a.66.66,0,1,1,.91.95,2.89,2.89,0,0,1-1.25.28S58.12,29.12,58.39,28.87Z"/><path class="cls-32" d="M58.74,29.35a.25.25,0,0,1,.34,0,.24.24,0,0,1,0,.34c-.09.09-.45.1-.45.1A1.07,1.07,0,0,1,58.74,29.35Z"/><path class="cls-27" d="M53.66,29.54a1.23,1.23,0,0,1,1.73,0,1.22,1.22,0,0,1,0,1.72c-.49.47-2.31.53-2.31.53S53.18,30,53.66,29.54Z"/><path class="cls-28" d="M54,30a.66.66,0,1,1,.91.95,2.89,2.89,0,0,1-1.25.28S53.69,30.26,54,30Z"/><path class="cls-31" d="M54.32,30.49a.23.23,0,0,1,.32.34c-.09.09-.45.1-.45.1S54.22,30.58,54.32,30.49Z"/><path class="cls-27" d="M49.84,28.24A1.22,1.22,0,1,1,51.53,30a5.36,5.36,0,0,1-2.31.52S49.35,28.71,49.84,28.24Z"/><path class="cls-28" d="M50.13,28.71a.66.66,0,0,1,.93,0,.64.64,0,0,1,0,.93c-.26.25-1.24.29-1.24.29S49.87,29,50.13,28.71Z"/><path class="cls-31" d="M50.49,29.19a.24.24,0,0,1,.34,0,.23.23,0,0,1,0,.33c-.09.09-.45.11-.45.11A1.11,1.11,0,0,1,50.49,29.19Z"/><path class="cls-27" d="M58.82,20.64a1.22,1.22,0,0,1,1.72,0,1.23,1.23,0,0,1,0,1.73c-.49.47-2.32.52-2.32.52S58.33,21.1,58.82,20.64Z"/><path class="cls-28" d="M59.11,21.11a.65.65,0,0,1,.93,0,.66.66,0,0,1,0,.93c-.26.25-1.24.28-1.24.28S58.85,21.36,59.11,21.11Z"/><path class="cls-32" d="M59.47,21.58a.25.25,0,0,1,.34,0,.24.24,0,0,1,0,.34c-.09.09-.45.1-.45.1A1.11,1.11,0,0,1,59.47,21.58Z"/><path class="cls-27" d="M54.56,21.3a1.23,1.23,0,0,1,1.73,0,1.22,1.22,0,0,1,0,1.72c-.49.47-2.31.53-2.31.53S54.08,21.77,54.56,21.3Z"/><path class="cls-28" d="M54.86,21.77a.66.66,0,1,1,.91.95,2.89,2.89,0,0,1-1.25.28S54.59,22,54.86,21.77Z"/><path class="cls-31" d="M55.22,22.25a.23.23,0,0,1,.32.34c-.09.09-.45.1-.45.1S55.12,22.34,55.22,22.25Z"/><path class="cls-27" d="M55,24.73a1.22,1.22,0,1,1,1.68,1.76c-.48.47-2.31.52-2.31.52S54.48,25.19,55,24.73Z"/><path class="cls-28" d="M55.26,25.2a.65.65,0,0,1,.93,0,.66.66,0,0,1,0,.93c-.26.25-1.25.28-1.25.28S55,25.45,55.26,25.2Z"/><path class="cls-31" d="M55.62,25.67A.24.24,0,1,1,56,26a1,1,0,0,1-.45.1A1.11,1.11,0,0,1,55.62,25.67Z"/><path class="cls-27" d="M49.4,33.16a1.22,1.22,0,1,1,1.69,1.77,5.36,5.36,0,0,1-2.31.52S48.91,33.63,49.4,33.16Z"/><path class="cls-28" d="M49.7,33.63a.66.66,0,0,1,.93,0,.65.65,0,0,1,0,.93c-.26.25-1.24.29-1.24.29S49.43,33.88,49.7,33.63Z"/><path class="cls-31" d="M50.05,34.11a.24.24,0,0,1,.34,0,.23.23,0,0,1,0,.33c-.09.09-.45.11-.45.11A1.11,1.11,0,0,1,50.05,34.11Z"/><path class="cls-27" d="M46.21,36.6a1.22,1.22,0,1,1,1.69,1.76c-.49.47-2.31.53-2.31.53S45.73,37.07,46.21,36.6Z"/><path class="cls-28" d="M46.51,37.07a.66.66,0,1,1,.91,1,2.89,2.89,0,0,1-1.25.28S46.24,37.32,46.51,37.07Z"/><path class="cls-31" d="M46.87,37.55a.24.24,0,0,1,.33,0,.24.24,0,0,1,0,.34c-.09.09-.45.1-.45.1S46.77,37.64,46.87,37.55Z"/><path class="cls-27" d="M37.93,34.08a1.22,1.22,0,1,1,1.68,1.76c-.48.46-2.31.52-2.31.52S37.44,34.54,37.93,34.08Z"/><path class="cls-28" d="M38.22,34.54a.65.65,0,0,1,.93,0,.66.66,0,0,1,0,.93c-.26.25-1.25.28-1.25.28A3,3,0,0,1,38.22,34.54Z"/><path class="cls-31" d="M38.58,35a.23.23,0,0,1,.33,0,.24.24,0,0,1,0,.34,1,1,0,0,1-.45.1S38.48,35.11,38.58,35Z"/><path class="cls-27" d="M44.47,32.33a1.22,1.22,0,1,1,1.69,1.76c-.49.47-2.32.52-2.32.52S44,32.79,44.47,32.33Z"/><path class="cls-28" d="M44.76,32.8a.66.66,0,0,1,.93,0,.64.64,0,0,1,0,.93c-.26.25-1.24.28-1.24.28S44.5,33.05,44.76,32.8Z"/><path class="cls-31" d="M45.12,33.27a.25.25,0,0,1,.34,0,.24.24,0,0,1,0,.34c-.09.09-.45.1-.45.1A1.11,1.11,0,0,1,45.12,33.27Z"/><path class="cls-27" d="M49.14,24a1.22,1.22,0,0,1,2,1.39c-.39.56-2.16,1-2.16,1S48.75,24.52,49.14,24Z"/><path class="cls-28" d="M49.52,24.37a.65.65,0,0,1,.91-.16.66.66,0,0,1,.17.91c-.21.3-1.17.53-1.17.53A2.85,2.85,0,0,1,49.52,24.37Z"/><path class="cls-31" d="M50,24.77a.24.24,0,0,1,.34-.06.24.24,0,0,1,.05.33c-.07.11-.42.19-.42.19A1.1,1.1,0,0,1,50,24.77Z"/><path class="cls-27" d="M54.42,61.56a1.22,1.22,0,0,1,1,2.23,5.37,5.37,0,0,1-2.36-.29S53.81,61.84,54.42,61.56Z"/><path class="cls-28" d="M54.54,62.1a.66.66,0,0,1,.87.34.64.64,0,0,1-.33.86,2.82,2.82,0,0,1-1.27-.15S54.21,62.25,54.54,62.1Z"/><path class="cls-33" d="M54.72,62.67a.23.23,0,0,1,.31.12.24.24,0,0,1-.12.32,1.08,1.08,0,0,1-.46-.06S54.6,62.73,54.72,62.67Z"/><path class="cls-27" d="M48.77,61.31a1.22,1.22,0,1,1,1,2.23,5.34,5.34,0,0,1-2.35-.29S48.15,61.58,48.77,61.31Z"/><path class="cls-28" d="M48.89,61.85a.66.66,0,0,1,.87.33.67.67,0,0,1-.34.87c-.33.15-1.27-.15-1.27-.15S48.55,62,48.89,61.85Z"/><path class="cls-32" d="M49.06,62.42a.25.25,0,0,1,.32.12.23.23,0,0,1-.12.31c-.12.06-.46-.05-.46-.05S48.94,62.47,49.06,62.42Z"/><path class="cls-27" d="M63,66a1.22,1.22,0,0,1,1,2.22c-.62.28-2.36-.28-2.36-.28S62.38,66.26,63,66Z"/><path class="cls-28" d="M63.11,66.53a.66.66,0,0,1,.54,1.2c-.34.15-1.27-.16-1.27-.16S62.78,66.67,63.11,66.53Z"/><path class="cls-34" d="M63.29,67.1a.24.24,0,1,1,.19.43,1.11,1.11,0,0,1-.46,0S63.17,67.15,63.29,67.1Z"/><path class="cls-27" d="M59,67a1.22,1.22,0,0,1,1,2.23c-.62.28-2.36-.29-2.36-.29S58.42,67.3,59,67Z"/><path class="cls-28" d="M59.15,67.56a.66.66,0,0,1,.54,1.21,2.94,2.94,0,0,1-1.27-.16S58.82,67.71,59.15,67.56Z"/><path class="cls-33" d="M59.33,68.13a.23.23,0,0,1,.31.12.24.24,0,0,1-.12.32,1.08,1.08,0,0,1-.46-.06S59.21,68.19,59.33,68.13Z"/><path class="cls-27" d="M71.2,62.5a1.22,1.22,0,1,1,1,2.23c-.61.28-2.35-.28-2.35-.28S70.58,62.78,71.2,62.5Z"/><path class="cls-28" d="M71.32,63.05a.66.66,0,0,1,.87.33.67.67,0,0,1-.34.87,3,3,0,0,1-1.27-.16S71,63.19,71.32,63.05Z"/><path class="cls-34" d="M71.49,63.62a.24.24,0,0,1,.32.12.23.23,0,0,1-.12.31,1.08,1.08,0,0,1-.46-.06S71.37,63.67,71.49,63.62Z"/><path class="cls-27" d="M67,65.16a1.22,1.22,0,1,1,1,2.23,5.32,5.32,0,0,1-2.35-.29S66.35,65.43,67,65.16Z"/><path class="cls-28" d="M67.08,65.7a.66.66,0,1,1,.54,1.2c-.33.15-1.27-.15-1.27-.15S66.75,65.85,67.08,65.7Z"/><path class="cls-34" d="M67.26,66.27a.24.24,0,0,1,.2.44,1.08,1.08,0,0,1-.46-.06S67.14,66.32,67.26,66.27Z"/><path class="cls-27" d="M75.73,60.92a1.22,1.22,0,0,1,1,2.23,5.32,5.32,0,0,1-2.35-.29S75.11,61.19,75.73,60.92Z"/><path class="cls-28" d="M75.85,61.46a.64.64,0,0,1,.86.33.66.66,0,0,1-.33.87c-.33.15-1.27-.15-1.27-.15S75.51,61.61,75.85,61.46Z"/><path class="cls-34" d="M76,62a.25.25,0,0,1,.32.12.23.23,0,0,1-.12.31c-.12.06-.46-.05-.46-.05S75.9,62.08,76,62Z"/><path class="cls-27" d="M65.33,61.91a1.22,1.22,0,0,1,1,2.23A5.37,5.37,0,0,1,64,63.85S64.72,62.18,65.33,61.91Z"/><path class="cls-28" d="M65.45,62.45a.66.66,0,0,1,.54,1.2,2.82,2.82,0,0,1-1.27-.15S65.12,62.6,65.45,62.45Z"/><path class="cls-34" d="M65.63,63a.23.23,0,0,1,.31.12.24.24,0,0,1-.12.32,1.08,1.08,0,0,1-.46-.06S65.51,63.07,65.63,63Z"/><path class="cls-27" d="M79.83,57a1.22,1.22,0,1,1,1.79,1.65c-.46.5-2.27.67-2.27.67S79.38,57.46,79.83,57Z"/><path class="cls-28" d="M80.15,57.42a.66.66,0,1,1,1,.89c-.25.27-1.23.36-1.23.36S79.91,57.68,80.15,57.42Z"/><path class="cls-34" d="M80.54,57.87a.24.24,0,0,1,.34,0,.24.24,0,0,1,0,.33c-.09.1-.44.13-.44.13S80.45,58,80.54,57.87Z"/><path class="cls-27" d="M75.33,57.62a1.22,1.22,0,1,1,1.79,1.65c-.46.5-2.27.67-2.27.67S74.88,58.11,75.33,57.62Z"/><path class="cls-28" d="M75.65,58.07a.66.66,0,1,1,1,.89c-.25.27-1.23.36-1.23.36S75.41,58.33,75.65,58.07Z"/><path class="cls-34" d="M76,58.52a.24.24,0,1,1,.35.33A1.07,1.07,0,0,1,76,59S76,58.62,76,58.52Z"/><path class="cls-27" d="M86.34,44.69a1.22,1.22,0,0,1,2.38.53c-.15.66-1.63,1.72-1.63,1.72S86.19,45.35,86.34,44.69Z"/><path class="cls-28" d="M86.84,44.92a.66.66,0,0,1,1.29.29c-.08.35-.88.92-.88.92S86.76,45.28,86.84,44.92Z"/><path class="cls-34" d="M87.41,45.12a.24.24,0,0,1,.46.1c0,.13-.32.34-.32.34S87.38,45.25,87.41,45.12Z"/><path class="cls-27" d="M82.71,45.45a1.22,1.22,0,0,1,2.38.53c-.15.66-1.63,1.72-1.63,1.72S82.56,46.11,82.71,45.45Z"/><path class="cls-28" d="M83.21,45.68a.66.66,0,0,1,.79-.5.67.67,0,0,1,.5.79c-.08.35-.88.92-.88.92S83.13,46,83.21,45.68Z"/><path class="cls-34" d="M83.77,45.88a.24.24,0,0,1,.29-.18.23.23,0,0,1,.18.28c0,.13-.32.34-.32.34A1.15,1.15,0,0,1,83.77,45.88Z"/><path class="cls-27" d="M84.18,42.19a1.22,1.22,0,0,1,2.38.53c-.15.66-1.63,1.72-1.63,1.72S84,42.85,84.18,42.19Z"/><path class="cls-28" d="M84.68,42.42a.66.66,0,0,1,.79-.5.67.67,0,0,1,.5.79c-.08.35-.88.92-.88.92S84.6,42.78,84.68,42.42Z"/><path class="cls-34" d="M85.24,42.62a.24.24,0,0,1,.29-.18.23.23,0,0,1,.18.28c0,.13-.32.34-.32.34A1.15,1.15,0,0,1,85.24,42.62Z"/><path class="cls-27" d="M55.56,53.58a1.22,1.22,0,1,1,1,2.23,5.34,5.34,0,0,1-2.35-.29S54.94,53.85,55.56,53.58Z"/><path class="cls-28" d="M55.68,54.12a.64.64,0,0,1,.86.33.66.66,0,0,1-.33.87c-.33.15-1.27-.15-1.27-.15S55.34,54.27,55.68,54.12Z"/><path class="cls-33" d="M55.85,54.69a.24.24,0,0,1,.2.44,1.08,1.08,0,0,1-.46-.06S55.73,54.74,55.85,54.69Z"/><path class="cls-27" d="M49.8,54.85a1.22,1.22,0,1,1,1,2.23,5.32,5.32,0,0,1-2.35-.29S49.18,55.12,49.8,54.85Z"/><path class="cls-28" d="M49.91,55.39a.65.65,0,0,1,.87.34.64.64,0,0,1-.33.86c-.33.15-1.27-.15-1.27-.15S49.58,55.54,49.91,55.39Z"/><path class="cls-32" d="M50.09,56a.25.25,0,0,1,.32.12.25.25,0,0,1-.13.32,1,1,0,0,1-.45-.06S50,56,50.09,56Z"/><path class="cls-27" d="M53.82,49.67a1.22,1.22,0,1,1,1,2.23c-.61.28-2.35-.28-2.35-.28S53.2,50,53.82,49.67Z"/><path class="cls-28" d="M53.94,50.22a.66.66,0,0,1,.87.33.67.67,0,0,1-.34.87c-.33.15-1.27-.16-1.27-.16S53.61,50.36,53.94,50.22Z"/><path class="cls-33" d="M54.11,50.79a.24.24,0,0,1,.32.12.23.23,0,0,1-.12.31,1.08,1.08,0,0,1-.46-.06S54,50.84,54.11,50.79Z"/><path class="cls-27" d="M55.22,46.54a1.22,1.22,0,1,1,1,2.22c-.62.28-2.36-.28-2.36-.28S54.61,46.81,55.22,46.54Z"/><path class="cls-28" d="M55.34,47.08a.66.66,0,0,1,.54,1.2c-.33.15-1.27-.16-1.27-.16S55,47.23,55.34,47.08Z"/><path class="cls-33" d="M55.52,47.65a.24.24,0,0,1,.19.43c-.12.06-.46,0-.46,0S55.4,47.7,55.52,47.65Z"/><path class="cls-27" d="M54.37,34.16a1.23,1.23,0,0,1,1.61.62,1.21,1.21,0,0,1-.62,1.61c-.61.28-2.35-.28-2.35-.28S53.76,34.44,54.37,34.16Z"/><path class="cls-28" d="M54.49,34.71a.66.66,0,1,1,.53,1.2c-.33.15-1.26-.16-1.26-.16S54.16,34.85,54.49,34.71Z"/><path class="cls-32" d="M54.67,35.28a.23.23,0,0,1,.31.12.23.23,0,0,1-.12.31,1.08,1.08,0,0,1-.46-.06S54.55,35.33,54.67,35.28Z"/><path class="cls-27" d="M50,45a1.22,1.22,0,1,1,1,2.23,5.37,5.37,0,0,1-2.36-.29S49.37,45.22,50,45Z"/><path class="cls-28" d="M50.1,45.49a.66.66,0,0,1,.54,1.2c-.33.15-1.27-.15-1.27-.15S49.77,45.64,50.1,45.49Z"/><path class="cls-32" d="M50.28,46.06a.23.23,0,0,1,.31.12.24.24,0,0,1-.12.32,1.08,1.08,0,0,1-.46-.06S50.16,46.11,50.28,46.06Z"/><path class="cls-27" d="M45.42,45.49a1.22,1.22,0,1,1,1,2.23,5.32,5.32,0,0,1-2.35-.29S44.8,45.76,45.42,45.49Z"/><path class="cls-28" d="M45.53,46a.66.66,0,0,1,.54,1.2c-.33.15-1.27-.15-1.27-.15S45.2,46.18,45.53,46Z"/><path class="cls-31" d="M45.71,46.6a.23.23,0,0,1,.31.12.24.24,0,0,1-.12.32,1,1,0,0,1-.45-.06S45.59,46.65,45.71,46.6Z"/><path class="cls-27" d="M62.61,58.63a1.22,1.22,0,1,1,1,2.22c-.62.28-2.35-.28-2.35-.28S62,58.9,62.61,58.63Z"/><path class="cls-28" d="M62.72,59.17a.66.66,0,1,1,.54,1.2c-.33.15-1.27-.16-1.27-.16S62.39,59.31,62.72,59.17Z"/><path class="cls-34" d="M62.9,59.74a.24.24,0,0,1,.32.12.23.23,0,0,1-.12.31c-.12.06-.46-.05-.46-.05S62.78,59.79,62.9,59.74Z"/><path class="cls-27" d="M59.65,62.16a1.22,1.22,0,1,1,1,2.23,5.32,5.32,0,0,1-2.35-.29S59,62.44,59.65,62.16Z"/><path class="cls-28" d="M59.76,62.7a.66.66,0,0,1,.54,1.2c-.33.15-1.27-.15-1.27-.15S59.43,62.85,59.76,62.7Z"/><path class="cls-33" d="M59.94,63.27a.24.24,0,1,1,.2.44,1.08,1.08,0,0,1-.46-.06S59.82,63.33,59.94,63.27Z"/><path class="cls-27" d="M56.14,64.72a1.23,1.23,0,0,1,1.61.62A1.21,1.21,0,0,1,57.14,67c-.62.28-2.36-.28-2.36-.28S55.53,65,56.14,64.72Z"/><path class="cls-28" d="M56.26,65.26a.67.67,0,0,1,.87.34.66.66,0,0,1-.33.87,2.94,2.94,0,0,1-1.27-.16S55.93,65.41,56.26,65.26Z"/><path class="cls-33" d="M56.44,65.83a.24.24,0,0,1,.31.13.23.23,0,0,1-.12.31,1.08,1.08,0,0,1-.46-.06S56.32,65.89,56.44,65.83Z"/><path class="cls-27" d="M54.18,57.63a1.22,1.22,0,1,1,1,2.23,5.37,5.37,0,0,1-2.36-.29S53.57,57.91,54.18,57.63Z"/><path class="cls-28" d="M54.3,58.17a.66.66,0,0,1,.87.34.64.64,0,0,1-.33.86c-.33.15-1.27-.15-1.27-.15S54,58.32,54.3,58.17Z"/><path class="cls-33" d="M54.48,58.74a.23.23,0,0,1,.31.12.24.24,0,0,1-.12.32,1.08,1.08,0,0,1-.46-.06S54.36,58.8,54.48,58.74Z"/><path class="cls-27" d="M72.13,55.5a1.22,1.22,0,1,1,1,2.22c-.61.28-2.35-.28-2.35-.28S71.52,55.77,72.13,55.5Z"/><path class="cls-28" d="M72.25,56a.66.66,0,1,1,.53,1.2c-.33.15-1.26-.16-1.26-.16S71.92,56.18,72.25,56Z"/><path class="cls-34" d="M72.43,56.61a.23.23,0,0,1,.31.12.23.23,0,0,1-.12.31,1.11,1.11,0,0,1-.46,0S72.31,56.66,72.43,56.61Z"/><path class="cls-27" d="M69.18,58.74a1.22,1.22,0,1,1,1,2.23,5.34,5.34,0,0,1-2.35-.29S68.57,59,69.18,58.74Z"/><path class="cls-28" d="M69.3,59.28a.66.66,0,1,1,.53,1.2c-.33.15-1.27-.15-1.27-.15S69,59.43,69.3,59.28Z"/><path class="cls-34" d="M69.48,59.85a.23.23,0,0,1,.31.12.25.25,0,0,1-.12.32,1.08,1.08,0,0,1-.46-.06S69.36,59.91,69.48,59.85Z"/><path class="cls-27" d="M67.81,55.5a1.22,1.22,0,0,1,1,2.23,5.37,5.37,0,0,1-2.36-.29S67.2,55.77,67.81,55.5Z"/><path class="cls-28" d="M67.93,56a.66.66,0,0,1,.54,1.2,2.82,2.82,0,0,1-1.27-.15S67.6,56.19,67.93,56Z"/><path class="cls-34" d="M68.11,56.61a.23.23,0,0,1,.31.12.23.23,0,0,1-.12.31c-.12.06-.46,0-.46,0S68,56.66,68.11,56.61Z"/><path class="cls-27" d="M74.51,46.1a1.22,1.22,0,0,1,1,2.23A5.37,5.37,0,0,1,73.15,48S73.9,46.38,74.51,46.1Z"/><path class="cls-28" d="M74.63,46.64a.66.66,0,0,1,.87.34.64.64,0,0,1-.33.86,2.82,2.82,0,0,1-1.27-.15S74.3,46.79,74.63,46.64Z"/><path class="cls-34" d="M74.81,47.21a.23.23,0,0,1,.31.12.25.25,0,0,1-.12.32,1.08,1.08,0,0,1-.46-.06S74.69,47.27,74.81,47.21Z"/><path class="cls-27" d="M70.86,43.48a1.22,1.22,0,1,1,1,2.23,5.34,5.34,0,0,1-2.35-.29S70.24,43.75,70.86,43.48Z"/><path class="cls-28" d="M71,44a.64.64,0,0,1,.86.33.65.65,0,0,1-.33.87c-.33.15-1.27-.15-1.27-.15S70.64,44.17,71,44Z"/><path class="cls-34" d="M71.15,44.59a.24.24,0,1,1,.2.44,1.08,1.08,0,0,1-.46-.06S71,44.64,71.15,44.59Z"/><path class="cls-27" d="M68.62,40.57a1.22,1.22,0,1,1,1,2.23,5.34,5.34,0,0,1-2.35-.29S68,40.84,68.62,40.57Z"/><path class="cls-28" d="M68.74,41.11a.64.64,0,0,1,.86.33.65.65,0,0,1-.33.87c-.33.15-1.27-.15-1.27-.15S68.4,41.26,68.74,41.11Z"/><path class="cls-34" d="M68.91,41.68a.24.24,0,0,1,.2.44,1.08,1.08,0,0,1-.46-.06S68.79,41.73,68.91,41.68Z"/><path class="cls-27" d="M63.82,45.18a1.21,1.21,0,0,1,1.61.61,1.23,1.23,0,0,1-.61,1.62,5.37,5.37,0,0,1-2.36-.29S63.21,45.45,63.82,45.18Z"/><path class="cls-28" d="M63.94,45.72a.66.66,0,1,1,.54,1.2c-.34.15-1.27-.16-1.27-.16S63.61,45.87,63.94,45.72Z"/><path class="cls-33" d="M64.12,46.29a.24.24,0,1,1,.19.43c-.12.06-.46,0-.46,0S64,46.34,64.12,46.29Z"/><path class="cls-27" d="M71,50a1.22,1.22,0,1,1,1,2.23,5.34,5.34,0,0,1-2.35-.29S70.43,50.22,71,50Z"/><path class="cls-28" d="M71.16,50.49a.66.66,0,0,1,.87.34.64.64,0,0,1-.34.86c-.33.15-1.26-.15-1.26-.15S70.83,50.64,71.16,50.49Z"/><path class="cls-34" d="M71.34,51.06a.23.23,0,0,1,.31.12.25.25,0,0,1-.12.32,1.08,1.08,0,0,1-.46-.06S71.22,51.12,71.34,51.06Z"/><path class="cls-27" d="M76.15,52a1.22,1.22,0,1,1,1,2.23,5.34,5.34,0,0,1-2.35-.29S75.54,52.25,76.15,52Z"/><path class="cls-28" d="M76.27,52.52a.66.66,0,0,1,.87.34.64.64,0,0,1-.34.86c-.33.15-1.26-.15-1.26-.15S75.94,52.67,76.27,52.52Z"/><path class="cls-34" d="M76.45,53.09a.23.23,0,0,1,.31.12.25.25,0,0,1-.12.32,1.08,1.08,0,0,1-.46-.06S76.33,53.15,76.45,53.09Z"/><path class="cls-27" d="M68.53,46.37a1.22,1.22,0,1,1,1,2.23,5.34,5.34,0,0,1-2.35-.29S67.92,46.65,68.53,46.37Z"/><path class="cls-28" d="M68.65,46.91a.66.66,0,0,1,.87.34.64.64,0,0,1-.34.86c-.33.15-1.26-.15-1.26-.15S68.32,47.06,68.65,46.91Z"/><path class="cls-34" d="M68.83,47.48a.23.23,0,0,1,.31.12.25.25,0,0,1-.12.32,1.08,1.08,0,0,1-.46-.06S68.71,47.54,68.83,47.48Z"/><path class="cls-27" d="M80.74,49.91a1.21,1.21,0,0,1,1.72-.15,1.2,1.2,0,0,1,.15,1.71c-.43.52-2.24.78-2.24.78S80.31,50.42,80.74,49.91Z"/><path class="cls-28" d="M81.09,50.34a.66.66,0,1,1,1,.85c-.23.27-1.2.41-1.2.41S80.85,50.62,81.09,50.34Z"/><path class="cls-34" d="M81.5,50.78a.22.22,0,0,1,.33,0,.24.24,0,0,1,0,.33c-.08.1-.44.15-.44.15S81.41,50.88,81.5,50.78Z"/><path class="cls-27" d="M83.87,52.59a1.22,1.22,0,0,1,1.87,1.57c-.43.51-2.24.77-2.24.77S83.44,53.1,83.87,52.59Z"/><path class="cls-28" d="M84.22,53a.65.65,0,0,1,.92-.08.66.66,0,0,1,.09.93c-.24.28-1.21.41-1.21.41S84,53.3,84.22,53Z"/><path class="cls-34" d="M84.63,53.46a.23.23,0,0,1,.36.3c-.08.1-.44.15-.44.15S84.54,53.56,84.63,53.46Z"/><path class="cls-27" d="M77.59,47.6a1.22,1.22,0,0,1,1.87,1.57c-.44.51-2.25.77-2.25.77S77.15,48.12,77.59,47.6Z"/><path class="cls-28" d="M77.93,48a.67.67,0,0,1,.93-.08.66.66,0,0,1,.08.93c-.24.28-1.21.42-1.21.42A2.94,2.94,0,0,1,77.93,48Z"/><path class="cls-34" d="M78.34,48.47a.24.24,0,0,1,.33,0,.23.23,0,0,1,0,.34c-.08.1-.43.15-.43.15A1.1,1.1,0,0,1,78.34,48.47Z"/><path class="cls-27" d="M52.93,67.72a1.21,1.21,0,0,1,1.63.49,1.2,1.2,0,0,1-.72,1.53,5.85,5.85,0,0,1-2.42-.13S52.28,68,52.93,67.72Z"/><path class="cls-28" d="M53,68.22a.64.64,0,0,1,.87.26.65.65,0,0,1-.39.83,3.08,3.08,0,0,1-1.3-.07S52.67,68.38,53,68.22Z"/><path class="cls-32" d="M53.18,68.74a.22.22,0,0,1,.31.1.23.23,0,0,1-.14.3,1.25,1.25,0,0,1-.47,0S53.05,68.8,53.18,68.74Z"/><path class="cls-27" d="M45.75,58.48a1.22,1.22,0,1,1,1.15,2.15,5.25,5.25,0,0,1-2.37-.12S45.15,58.79,45.75,58.48Z"/><path class="cls-28" d="M45.91,59a.66.66,0,0,1,.61,1.16,2.82,2.82,0,0,1-1.27-.07S45.58,59.18,45.91,59Z"/><path class="cls-32" d="M46.12,59.56a.24.24,0,0,1,.32.1.23.23,0,0,1-.09.32c-.12.07-.47,0-.47,0A1.21,1.21,0,0,1,46.12,59.56Z"/><path class="cls-27" d="M42,57.22a1.22,1.22,0,0,1,1.15,2.16,5.4,5.4,0,0,1-2.37-.12S41.44,57.54,42,57.22Z"/><path class="cls-28" d="M42.19,57.75a.66.66,0,1,1,.62,1.16c-.32.18-1.27-.06-1.27-.06S41.87,57.92,42.19,57.75Z"/><path class="cls-30" d="M42.41,58.31a.23.23,0,0,1,.32.1.24.24,0,0,1-.1.32,1.07,1.07,0,0,1-.46,0S42.29,58.37,42.41,58.31Z"/><path class="cls-27" d="M40,60.91a1.21,1.21,0,0,1,1.65.5,1.23,1.23,0,0,1-.5,1.65,5.25,5.25,0,0,1-2.37-.12S39.44,61.22,40,60.91Z"/><path class="cls-28" d="M40.19,61.44a.66.66,0,1,1,.62,1.16,2.82,2.82,0,0,1-1.27-.07S39.87,61.61,40.19,61.44Z"/><path class="cls-30" d="M40.41,62a.24.24,0,0,1,.32.1.23.23,0,0,1-.1.32c-.11.07-.46,0-.46,0S40.29,62.06,40.41,62Z"/><path class="cls-27" d="M38.85,65.06A1.22,1.22,0,0,1,40,67.22a5.4,5.4,0,0,1-2.37-.12S38.25,65.38,38.85,65.06Z"/><path class="cls-28" d="M39,65.6a.66.66,0,1,1,.62,1.16,2.82,2.82,0,0,1-1.27-.07S38.68,65.77,39,65.6Z"/><path class="cls-30" d="M39.22,66.15a.24.24,0,0,1,.22.42,1.07,1.07,0,0,1-.46,0S39.1,66.21,39.22,66.15Z"/><path class="cls-27" d="M33.26,59.94a1.22,1.22,0,1,1,1.15,2.16A5.37,5.37,0,0,1,32.05,62S32.67,60.26,33.26,59.94Z"/><path class="cls-28" d="M33.42,60.47A.66.66,0,1,1,34,61.63c-.32.18-1.28-.06-1.28-.06S33.1,60.65,33.42,60.47Z"/><path class="cls-30" d="M33.64,61a.24.24,0,0,1,.22.42,1.07,1.07,0,0,1-.46,0S33.52,61.09,33.64,61Z"/><path class="cls-27" d="M29.61,64.21a1.22,1.22,0,0,1,1.15,2.16,5.4,5.4,0,0,1-2.37-.12S29,64.53,29.61,64.21Z"/><path class="cls-28" d="M29.77,64.74a.66.66,0,0,1,.89.28.64.64,0,0,1-.28.88c-.32.18-1.27-.06-1.27-.06S29.44,64.92,29.77,64.74Z"/><path class="cls-30" d="M30,65.3a.24.24,0,0,1,.23.42,1.11,1.11,0,0,1-.47,0S29.87,65.36,30,65.3Z"/><path class="cls-27" d="M44.75,65.09a1.24,1.24,0,0,1,1.5.87,1.22,1.22,0,0,1-.87,1.49c-.65.17-2.28-.65-2.28-.65S44.1,65.27,44.75,65.09Z"/><path class="cls-28" d="M44.78,65.65a.65.65,0,0,1,.81.46.67.67,0,0,1-.47.81c-.35.09-1.23-.36-1.23-.36S44.43,65.74,44.78,65.65Z"/><path class="cls-32" d="M44.87,66.24a.23.23,0,0,1,.29.16.25.25,0,0,1-.17.3,1,1,0,0,1-.44-.13S44.74,66.27,44.87,66.24Z"/><path class="cls-27" d="M49.87,65.28a1.24,1.24,0,0,1,1.5.87,1.22,1.22,0,0,1-.87,1.49c-.65.17-2.28-.65-2.28-.65S49.22,65.46,49.87,65.28Z"/><path class="cls-28" d="M49.9,65.84a.65.65,0,0,1,.81.46.67.67,0,0,1-.47.81c-.35.09-1.23-.36-1.23-.36S49.55,65.93,49.9,65.84Z"/><path class="cls-32" d="M50,66.43a.23.23,0,0,1,.29.16.25.25,0,0,1-.17.3c-.12,0-.44-.13-.44-.13S49.86,66.46,50,66.43Z"/><path class="cls-27" d="M30.94,46.84a.91.91,0,1,1,1.23,1.28,5.2,5.2,0,0,1-2,.64A5.14,5.14,0,0,1,30.94,46.84Z"/><path class="cls-28" d="M31.14,47.19a.49.49,0,1,1,.66.69,2.78,2.78,0,0,1-1.05.35A2.77,2.77,0,0,1,31.14,47.19Z"/><path class="cls-30" d="M31.39,47.55a.22.22,0,0,1,.28,0,.21.21,0,0,1,0,.28,1,1,0,0,1-.38.12A.91.91,0,0,1,31.39,47.55Z"/><path class="cls-27" d="M38.42,69.46a1,1,0,1,1,.28,1.9,5.75,5.75,0,0,1-2.18-.65A5.87,5.87,0,0,1,38.42,69.46Z"/><path class="cls-28" d="M38.37,69.9a.53.53,0,1,1,.15,1,2.94,2.94,0,0,1-1.17-.35A3.09,3.09,0,0,1,38.37,69.9Z"/><path class="cls-30" d="M38.37,70.37a.21.21,0,0,1,.26.15c0,.1-.08.2-.21.22a1.09,1.09,0,0,1-.42-.13A1.05,1.05,0,0,1,38.37,70.37Z"/><path class="cls-9" d="M80.52,42.32c-.92.68-1.75,1.47-2.65,2.17-1.09.84-2.43,1.56-2.92,2.91a2.4,2.4,0,0,0,1.92,3.26c3.54.22,6.18-4.46,5.38-7.64a1.09,1.09,0,0,0-1.73-.7Z"/><path class="cls-9" d="M81.24,39a1.39,1.39,0,0,0,1-2.57,1.39,1.39,0,0,0-1,2.57Z"/></g></g></g></g></svg>